<?xml version="1.0" encoding="UTF-8"?>
<svg id="_Слой_2" data-name="Слой 2" xmlns="http://www.w3.org/2000/svg" viewBox="0 0 1059.2 588.7">
  <defs>
    <style>
      .cls-1 {
        fill: #c9251e;
      }

      .cls-2 {
        fill: #ee332b;
      }

      .cls-3 {
        fill: #651e1d;
      }

      .cls-4 {
        fill: #f24d55;
      }

      .cls-5 {
        fill: #b83438;
      }

      .cls-6 {
        fill: #020302;
      }

      .cls-7 {
        fill: #fc866e;
      }

      .cls-8 {
        fill: #e42f27;
      }

      .cls-9 {
        fill: #932c2a;
      }

      .cls-10 {
        fill: #fd6e5d;
      }

      .cls-11 {
        fill: #311d1d;
      }
    </style>
  </defs>
  <g id="_Слой_1-2" data-name="Слой 1">
    <g>
      <path class="cls-11" d="M523.21,9.98c36.02-17.1,77.07-10.25,106.65,5.6l-1.5.46c3.95,1.99,6.84,5.53,12.16,6.07,1.1.63,2,1.22,3.05,1.87-.37,1.98-.19,2.09,3.05,1.87,1,.63,2.03,1.22,3.05,1.87l1.52.93c1.97,1.27,3.86,2.17,6.09,3.73,2.67,1.85,4.42,6.05,9.87,6.54l.79-.94c3.17,1.87,6.06,3.69,9.14,5.6-2.28,1.14.69,1.8,3.05,1.87,3.46,2.22,7.17,4.24,10.67,6.53,3.04,2,5.53,4.42,8.39,6.52l9.89,3.74c6.82,3.98,13.14,8.1,19.81,12.13l-1.49.46c3.29,1.63,6.8,4.63,10.64,5.14.51.31,1.01.62,1.52.93l1.52.93c3.59,2.15,7.1,4.41,10.67,6.53,2.04,1.21,4.01,2.5,6.09,3.73,15.75,9.35,32.79,18.55,48.75,27.99l-1.5.46c2.78,1.56,4.91,4,9.11,4.2,1.57.93,3.04,1.9,4.57,2.8-.63,2.38,5.12,3.03,7.62,4.67,1.57.93,3.04,1.9,4.57,2.8-.04,2.19,7,4.86,10.67,5.6,1.57.93,3.04,1.9,4.57,2.8.28,1.94,5.93,5.23,9.14,5.6,1.57.93,3.05,1.9,4.57,2.8.2,2.21,2.53,3.61,6.09,3.73.52.31,1.01.63,1.52.93l8.29,6.58,11.52,4.62c20.32,12,40.68,23.5,60.94,35.46-3.04.4,1.58,2.37,2.29,2.8,5.2,3.18,10.76,7.67,17.52,9.33,4.04,2.52,8.16,4.89,12.19,7.47,3.59,2.3,6.95,4.72,10.66,7,.7.43,3.92,3.26,4.57,1.4,3.15,1.85,6.06,3.76,9.14,5.6l-1.5.46c3.4,1.77,5.87,4.79,10.64,5.14,1.53.95,3.03,1.81,4.57,2.8,8.25,7.55,20.7,14.62,28.06,22.51,19.5,20.9,7.28,40.2-9.78,59.61-.21.24.22.7,0,.93-4.29.41-8.48,2.99-9.14,5.6-1.01.67-2.07,1.24-3.05,1.87l-48.75,29.86c-5.59,3.4-11.16,6.86-16.76,10.26-.65-1.86-3.87.97-4.57,1.4-11.32,6.94-23.29,13.98-33.52,20.99-4.52,2.41-7.56,4.58-12.19,7.47-2.55,1.59-5.04,3.1-7.62,4.67l-1.52.93c-.51.31-1.01.62-1.52.93l-1.52.93c-1.02.62-2.02,1.24-3.05,1.87-2.9-.32-3.54.1-3.05,1.87-2.54,1.54-5.07,3.12-7.62,4.67-2.75-.31-3.55.18-3.05,1.87-2.03,1.23-4.05,2.49-6.09,3.73-6.23,1.36-11.29,5.52-16,8.4-.7.43-5.33,2.4-2.29,2.8-1.02.62-2.02,1.24-3.05,1.87l-12.03,5.23c-5.71,4.54-12.49,8.54-19.16,12.52-4.78,2.86-14.27,5.9-14.52,10.24l-1.52.93c-5.39-.56-6.62,2.42-9.14,4.67-.51.31-1.01.62-1.52.93l-1.52.93c-3.56,2.15-7.09,4.37-10.67,6.53l-3.05,1.87c-1.02.61-2.02,1.25-3.05,1.87-2.9-.32-3.54.1-3.05,1.87-2.03,1.23-4.04,2.49-6.09,3.73-12.91,5.85-24.31,13.49-35.8,20.53-.7.43-5.33,2.4-2.29,2.8l-53.44,33.05-2.94.54-1.52.93-1.52.93c-4.1,1.12-6.3,3.93-9.14,5.6-4.09,2.4-8.06,5.02-12.19,7.47l-1.52.93c-1.53.91-3.01,1.87-4.57,2.8l-1.52.93c-4.27,2.48-7.15,4.94-12.19,7.47h-3.04s1.52.93,1.52.93c-10.89,5.03-34.34,11.58-47.94,12.16-22.16.95-40.25-2.77-57.19-11.23l1.49-.46c-1.98-1.52-4.64-2.57-7.59-3.27-1.07-.66-1.97-1.12-3.05-1.87-4.82-5.77-10.74-10.69-13.96-17.1-2.92-5.8.93-7.09-4.3-11.38-3.07-26.73,4-56.73.03-83.06-.4-2.68-.88-5.65-4.61-7.44l-413.73-.42c-8.92-.58-17.53-1.78-25.88-3.75l-23.58-6.55c-6.65-3.32-10.39-6-15.24-10.26l-7.86-12.45C-1.62,336.12-.46,251.82,2.83,168.57c-.23-4.3,8.38-9.14,5.41-13.02,6.09-7.02,18.26-14.42,28.95-18.66l26.66-4.67h426.6c1.93,0,3.61-2.92,3.88-4.15,6.6-29.99-13.33-80.66,12.28-106.1l16.59-11.98ZM584.15,28.65c1.31-2.43-6.47-2.83-8.45-2.83-21.83.03-39.1,5.62-42.66,19.58-6.75,26.46,3.68,60.96-.75,88.26.37,3.07,4.67,5.98,9.2,6.96.39.08.99-.05,1.52,0,3.09,2.98,4.95,4.21,10.67,4.67,5.41,3.99,10.62,8.08,16.7,11.73,9.12,5.48,20.96,10.73,30.53,16.27.62.36,2.3,1.42,3.05,1.87.51.31,1.01.63,1.52.93,1.02.6,1.98,1.25,3.05,1.87.52.3,1.01.63,1.52.93,4.66,2.72,9.91,6.76,15.19,9.83.72.42,6.61,3.74,7.66,2.3,48.75,28.65,99.44,55.13,149.33,83.5,7.81,4.44,17.49,9.9,22.83,15.41-1.95.32-1.16,1.52-1.52,1.87-5.24.58-3.59,1.56-4.57,2.8-2.69,1.09-3.2,1.3-6.09,2.8-.54.28-.98.66-1.52.93-18.84,9.49-37.34,20.08-54.89,30.3-17.66,10.29-37.75,25.28-56.33,34.08l-3.03-.93c-.19.88-.66,2.12-1.54,2.8-1.85,1.41-2.92,1.77-4.57,2.8-3.94-.52-3.17,1.66-4.57,2.8-3.19,2.59-6.02,3.59-9.14,5.6-.49.32-1.02.62-1.52.93s-1.02.62-1.52.93c-3.28-.02-6.46,2.8-7.62,4.67-.51.31-1.01.62-1.52.93-3.56.12-5.89,1.52-6.09,3.73-1.53.93-3.03,1.87-4.57,2.8-1.29.78-1.37.74-3.05,1.87s-2.78,1.76-4.57,2.8c-1,.59-2.17,1.34-3.05,1.87-2.56,1.54-5.04,3.11-7.62,4.67l-.75-.91c-2.02.97-3.72,2.04-3.82,3.71-1.2.71-3.37,1.15-4.57,1.87-.52.31-1.01.63-1.52.93-3.59,2.14-7,4.38-10.67,6.53-.92.54-2.26,1.4-3.05,1.87-2.55,1.51-5,3.13-7.62,4.67-.52.3-1.01.63-1.52.93-15.48,9.25-31.37,18.65-47.23,27.99-.29.17-2.84-.55-3.13.56l.79,96.53c.68,1.62,2.5,2.5,3.86,3.7,13.54,11.92,31.96,17.17,53.81,9.16,7.21-2.64,10.7-6.01,16.27-9.16,2.14-1.21,3.98-2.51,6.09-3.73,1.61-.93,3.04-1.91,4.57-2.8.52-.3,1-.63,1.52-.93,1.07-.62,2.04-1.28,3.05-1.87,3.18-1.84,6.06-3.79,9.14-5.6,1.59-.93,3.04-1.9,4.57-2.8s3.04-1.9,4.57-2.8c.52-.31,1.01-.63,1.52-.93.66-.39,2.37-.53,3.05-.93,11.38-6.74,22.22-13.81,33.52-20.53,2.08-1.24,4.06-2.52,6.09-3.73.52-.31,1.01-.63,1.52-.93,4.13-2.46,8.1-5.02,12.19-7.47,1.55-.93,3.04-1.88,4.57-2.8.51-.31,1.01-.63,1.52-.93,2.57-1.54,5.07-3.14,7.62-4.67.61-.37,2.22-.55,3.05-.93l108.17-66.25,6.09-3.73c.53-.3,1.01-.62,1.52-.93s1.01-.62,1.52-.93c2.55-1.54,5.08-3.14,7.62-4.67,1.03-.62,2.03-1.26,3.05-1.87s2.03-1.26,3.05-1.87,2.03-1.27,3.05-1.87c2.59-1.53,5.07-3.17,7.62-4.67.52-.3,1.01-.63,1.52-.93,7.5-4.39,15.64-7.76,22.85-12.13,3.02-1.83,3.3-2.85,4.57-3.73.47-.33,1.05-.6,1.52-.93,2.01-1.39,6.32-2.45,7.62-4.67,4.31-2.26,6.96-4.37,10.67-6.53.52-.3,1.01-.63,1.52-.93,6.8-4.01,13.18-8.03,19.81-12.13.5-.31,1.02-.62,1.52-.93.99-.61,2.05-1.27,3.05-1.87,2.45-1.45,6.1-2.45,7.62-4.67,18.45-8.56,35.75-20.41,51.8-30.79,8.16-5.28,12.04-6.03,18.28-13.06.57-.65,1.02-1.19,1.52-1.87,1.13-1.52,4.44-2.81,3.05-5.6.41-.46,1.67-.42,1.52-1.87,2.2-18.54-26.49-30.93-45.71-42.92-.74-.46-2.43-1.47-3.05-1.87-1.38-.89-3.12-1.93-4.57-2.8-.51-.31-1.03-.62-1.52-.93-2.04-1.29-3.88-2.24-6.09-3.73-3.17-2.14-6.9-6.89-12.11-8.93l-12.26-5.07c-2.12-1.31-3.85-2.21-6.09-3.73-1.61-1.09,1.22-.21-3.05-1.87-.84-.33-1.16-.77-1.52-.93-1.62-3.16-7.88-7.55-13.71-7.47-12.09-7.44-24.24-14.29-36.57-21.46-.52-.3-1-.63-1.52-.93s-1.01-.63-1.52-.93c-.69-.4-1.76-1.12-3.05-1.87-1.08-.63-2.02-1.27-3.05-1.87-.52-.3-1-.63-1.52-.93-2.1-1.23-4.05-2.53-6.09-3.73-.52-.3-1-.63-1.52-.93-1.06-.62-2.04-1.28-3.05-1.87-1.26-3-6.73-6.72-12.19-6.53-.49-.32-1.04-.61-1.52-.93-.33-.22.02-1.54-1.47-2.36-.67-.37-1.51.53-1.57.5-2.2-1.14-2.71-1.46-4.57-2.8-1.69-1.22-2.82-1.71-3.05-1.87-.29-.21-1.19-.75-1.52-.93-.21-.11-1.74-1.14-3.05-1.87-1.7-.95-3.31-2.13-4.57-2.8-.53-.29-.98-.64-1.52-.93-1.29-.69-2.16-1.38-3.05-1.87-.66-2.77-4.5-4.96-9.14-4.67-.21-.2-1.16-.37-1.52-.93l1.55-.91c-.94-.16-2.48.16-3.07-.02-2.97-.89-3.06-1.99-4.57-2.8.28-1.55-3.32-3.68-6.09-3.73-3.59-2.2-7.12-4.26-10.67-6.53-.83-.53-2.39-1.44-3.05-1.87-2.98-1.93-5.92-3.29-9.14-5.6-1.94-1.39-2.89-4.82-8.4-5.58l-.74.91c-1.04-.63-2.02-1.23-3.05-1.87l1.52-1.86h-4.56c-.51-.32-1.01-.62-1.52-.94-.4-2.39-3.67-4.42-7.62-4.67-1.96-1.26-3.88-2.21-6.09-3.73s-2.65-3.98-6.87-4.64l-.74.91c-19.26-10.5-37.7-21.94-56.37-32.66.25-3.84-6.6-6.91-12.19-7.47-.48-.32-1.04-.6-1.52-.93-1.69-1.15-2.16-1.3-3.05-1.87-.44-.28-1.06-.68-1.52-.93-.64-.36-.11-.45-3.05-1.87-1.57-.76-2.28-1.47-3.05-1.87-.61-3.45-6.49-4.4-9.92-6.51l-.75.91c-9.04-5.42-18.66-10.24-27.53-15.33-6.52-3.74-12.78-11.71-22.75-12.66ZM72.23,157.42l-4.18.64c-4.37,2.14-8.95,3.63-14.1,5.89-2.59,1.14-5.22,2.46-7.62,3.73-.08.04-.89-1.17-2.18-.07-2.88,2.47-5.07,9.47-5.49,12.64l-.02,219.36c.65,6.28,3.18,13.62,12.26,17.22,3.32,2.55,15.9,8.52,20.92,9.12,6.94.83,18.77.29,26.32.21,1.52-.02,3.05.03,4.57,0,5.17-.12,9.85-.77,13.71-.93,1.01-.04,2.04.05,3.05,0,4.03,1.72,11.49.92,16.76.93,1.52,0,3.05,0,4.57,0,4.06,0,8.13,0,12.19,0,1.02,0,2.03,0,3.05,0s2.03,0,3.05,0,2.03,0,3.05,0c2.03,0,4.06,0,6.09,0,1.52,0,3.05,0,4.57,0,3.55,0,7.11,0,10.67,0,1.02,0,2.03,0,3.05,0,3.05,0,6.1,0,9.14,0,1.52,0,3.05,0,4.57,0,6.08,0,12.2,0,18.28,0h3.05c5.57,0,11.19,0,16.76,0h9.14c4.06,0,8.13,0,12.19,0h6.09c12.17,0,24.39,0,36.57,0h15.24c9.63,0,19.32,0,28.95,0h3.05c2.54,0,5.08,0,7.62,0,1.02,0,2.03,0,3.05,0,8.11,0,16.27,0,24.38,0,1.52,0,3.05,0,4.57,0,6.59,0,13.22.01,19.81,0,1.02,0,2.03,0,3.05,0,3.55,0,7.11,0,10.67,0,1.52,0,3.05,0,4.57,0,4.56,0,9.15.01,13.71,0,1.02,0,2.03,0,3.05,0,6.59-.02,13.22.02,19.81,0,1.02,0,2.03,0,3.05,0s2.03,0,3.05,0,2.03,0,3.05,0c2.03,0,4.06,0,6.09,0,2.54-.01,5.08.02,7.62,0,3.55-.02,7.11.03,10.67,0,1.02,0,2.03.01,3.05,0,1.52-.02,3.05.02,4.57,0,1.01-.02,2.03.02,3.05,0,4.74-.11,11.53.53,15.72-.19,2.76-.47,2.98-2.07,4.09-2.61,15.12-7.4,30.77-16.92,44.99-25.17,14.75-8.56,24.9-14.74,40.4-22.83,8.28-4.32,17.06-11.05,26.59-16.39,25.37-14.2,49.07-29.16,73.9-43.85,3.56-2.1,8.2-3.72,10.67-6.53.5.02,1.03.02,1.52,0,.12,0,.92.98,2.01.79,2.54-.43,12.81-7.24,13.23-9.19.13-.6-.09-1.25,0-1.87,1.36-.35,2.89-.42,4.57-.93,2.6-.79,6.7-1.86,6.09-3.73.33-.16.6-.56,1.52-.93.52-.21,2.67.23,3.05,0,.93-.58-1.49-1.76-1.52-1.86-1.86-6.85-2.46-3.67-7.62-6.53-.53-.29-1.01-.63-1.52-.93-1.01-.61-2.05-1.25-3.05-1.87-27.53-16.98-55.28-33.33-83.8-49.46-4.16-2.35-6.56-2.35-9.14-3.73-.21-.11-.47-1.35-3.05-2.8-30.33-17.1-61.36-33.74-92.07-50.45-6.79-3.7-15.13-9.94-22.14-13.5-3.01-1.53-7.75-2.23-10.73-4.16v-.93l-449.46.93Z"/>
      <path class="cls-6" d="M26.52,442.02l23.58,6.55c8.35,1.96,16.96,3.16,25.88,3.75l413.73.42c3.73,1.79,4.2,4.77,4.61,7.44,3.97,26.33-3.11,56.33-.03,83.06,5.23,4.28,1.38,5.57,4.3,11.38,3.22,6.41,9.14,11.33,13.96,17.1-36.73-25.53-16.73-79.15-21.27-112.48-.26-1.88-.09-4.53-3.46-5.41l-417.93-.59c-16.06-1.25-30.89-5-43.37-11.23Z"/>
      <path class="cls-6" d="M523.21,9.98l-16.59,11.98c-25.61,25.45-5.68,76.11-12.28,106.1-.27,1.23-1.95,4.15-3.88,4.15H63.85l-26.66,4.67c9.14-3.63,18.52-4.85,28.95-6.53,1.6,1.54,5.77.93,8.36.95,135.12,1.04,270.35-.88,405.48.05,2.09.49,4.17-.88,5.15-1,1.76-.22,4.19.18,6.1,0,.15-1.23-.17-2.5,0-3.74l1.28-1.29-1.28-.58c.03-.62-.02-1.24,0-1.87,2.54-2.19,2.6-7.89,0-10.26.03-2.17-.02-4.36,0-6.53,2.55-7.34,2.55-16.92,0-24.26.02-1.24-.02-2.49,0-3.73,2.4-.62,2.4-4.04,0-4.67.04-2.17-.05-4.36,0-6.53,2.57-4.4,2.56-11.53,0-15.86,1.3-17.83,8.81-30.05,32-41.06Z"/>
      <path class="cls-11" d="M485.12,130.36c-.98.12-3.06,1.49-5.15,1-135.13-.93-270.36.99-405.48-.05-2.59-.02-6.75.59-8.36-.95h418.98Z"/>
      <path class="cls-6" d="M1036.66,327.25c17.05-19.41,29.28-38.71,9.78-59.61-7.36-7.88-19.81-14.96-28.06-22.51,5.75,3.68,12.86,6.78,18.23,10.76,28.82,21.35,31.38,50.59.05,71.35Z"/>
      <path class="cls-6" d="M852.3,440.16c-15.26,9.26-29.45,19.3-45.71,27.99.25-4.34,9.74-7.38,14.52-10.24,6.67-3.98,13.45-7.99,19.16-12.52l12.03-5.23Z"/>
      <path class="cls-11" d="M491.21,106.1c.08-8.07-.12-16.19,0-24.26,2.55,7.34,2.55,16.92,0,24.26Z"/>
      <path class="cls-6" d="M867.54,156.48c6.4,3.77,13.31,7.37,19.81,11.2l-11.52-4.62-8.29-6.58Z"/>
      <path class="cls-11" d="M491.21,66.9c.13-5.26-.38-10.61,0-15.86,2.56,4.33,2.57,11.47,0,15.86Z"/>
      <path class="cls-6" d="M667.95,37.98l-.79.94c-5.45-.49-7.21-4.68-9.87-6.54,5.31.78,7.43,3.69,10.67,5.6Z"/>
      <path class="cls-6" d="M958.95,375.77c-12.62,7.67-24.99,15.41-38.09,22.4-.16.11.37,1-.34,1.63-.96.86-9.93,4.32-11.85,5.83,4.63-2.89,7.67-5.05,12.19-7.47,10.23-7.02,22.2-14.05,33.52-20.99.7-.43,3.92-3.26,4.57-1.4Z"/>
      <path class="cls-11" d="M491.21,122.89c.11-3.41-.05-6.85,0-10.26,2.6,2.37,2.54,8.07,0,10.26Z"/>
      <path class="cls-6" d="M690.8,51.97c7.05,2.8,12.32,6.78,18.28,10.26l-9.89-3.74c-2.86-2.11-5.35-4.53-8.39-6.52Z"/>
      <path class="cls-6" d="M995.52,231.14c-.65,1.86-3.87-.97-4.57-1.4-3.71-2.27-7.07-4.7-10.66-7,5.93,2.26,10.31,5.5,15.24,8.4Z"/>
      <path class="cls-6" d="M766.98,491.48c-12.83,7.74-25.24,15.64-38.09,23.33-3.04-.4,1.58-2.37,2.29-2.8,11.5-7.04,22.89-14.68,35.8-20.53Z"/>
      <path class="cls-6" d="M1036.66,328.18c-2.21,2.37-6.02,3.55-9.14,5.6.66-2.61,4.85-5.19,9.14-5.6Z"/>
      <path class="cls-6" d="M805.07,469.08c-1.58,2.5-6.59,3.13-9.14,4.67,2.52-2.25,3.75-5.22,9.14-4.67Z"/>
      <path class="cls-6" d="M1024.47,335.65c-15.71,10.16-32.53,19.98-48.75,29.86l48.75-29.86Z"/>
      <path class="cls-6" d="M855.35,149.02c-3.21-.37-8.86-3.66-9.14-5.6,3.12,1.84,6.08,3.79,9.14,5.6Z"/>
      <path class="cls-6" d="M873.63,427.09c-6.1,3.7-12.16,7.49-18.28,11.2-3.04-.4,1.58-2.37,2.29-2.8,4.7-2.88,9.76-7.04,16-8.4Z"/>
      <path class="cls-11" d="M491.21,78.1c.02-1.55-.03-3.11,0-4.67,2.4.62,2.4,4.04,0,4.67Z"/>
      <path class="cls-6" d="M1004.66,236.73c3.06,1.84,6.12,3.72,9.14,5.6-4.77-.35-7.24-3.36-10.64-5.14l1.5-.46Z"/>
      <path class="cls-6" d="M830.97,135.02c2.44,1.44,7.42,3.68,10.67,5.6-3.67-.74-10.71-3.41-10.67-5.6Z"/>
      <path class="cls-6" d="M646.62,25.85c-3.24.23-3.42.12-3.05-1.87,1.02.63,2.03,1.22,3.05,1.87Z"/>
      <path class="cls-6" d="M948.29,203.14c6.67,3.94,13.29,8.07,19.81,12.13-6.75-1.66-12.32-6.15-17.52-9.33-.7-.43-5.33-2.4-2.29-2.8Z"/>
      <path class="cls-6" d="M882.77,421.49c-1.02.62-2.02,1.24-3.05,1.87-.5-1.68.3-2.17,3.05-1.87Z"/>
      <path class="cls-6" d="M640.53,22.11c-5.32-.54-8.22-4.08-12.16-6.07l1.5-.46c3.28,1.76,7.11,4.47,10.67,6.53Z"/>
      <path class="cls-6" d="M893.44,414.96c-1.02.62-2.02,1.24-3.05,1.87-.49-1.76.14-2.19,3.05-1.87Z"/>
      <path class="cls-6" d="M776.12,485.88c-1.02.61-2.02,1.25-3.05,1.87-.49-1.77.14-2.19,3.05-1.87Z"/>
      <path class="cls-6" d="M728.89,74.37c3.05,1.85,6.07,3.75,9.14,5.6-3.83-.51-7.35-3.51-10.64-5.14l1.49-.46Z"/>
      <path class="cls-6" d="M814.21,124.76c-4.2-.2-6.33-2.64-9.11-4.2l1.5-.46c2.56,1.52,5.03,3.13,7.62,4.67Z"/>
      <path class="cls-6" d="M826.4,132.22c-2.5-1.63-8.25-2.29-7.62-4.67,2.6,1.54,5.07,3.16,7.62,4.67Z"/>
      <path class="cls-6" d="M521.69,577.32c-1.84-.92-4.3-2.63-6.09-3.73,2.95.7,5.61,1.75,7.59,3.27l-1.49.46Z"/>
      <path class="cls-11" d="M491.21,126.62c.08-.61-.03-1.25,0-1.87l1.28.58-1.28,1.29Z"/>
      <path class="cls-6" d="M866.02,155.55c-3.56-.12-5.89-1.52-6.09-3.73,2.06,1.21,4.02,2.51,6.09,3.73Z"/>
      <path class="cls-6" d="M628.34,575.46c-.55.27-.96.67-1.52.93l-1.52-.92h3.04Z"/>
      <path class="cls-6" d="M680.14,45.44c-2.36-.06-5.33-.73-3.05-1.87,1.01.63,2.06,1.23,3.05,1.87Z"/>
      <path class="cls-6" d="M757.84,92.1c-2.08-1.24-4.06-2.52-6.09-3.73l6.09,3.73Z"/>
      <path class="cls-6" d="M899.53,411.23l1.52-.93c-.51.31-1.01.62-1.52.93Z"/>
      <path class="cls-6" d="M896.49,413.09l1.52-.93c-.51.31-1.01.62-1.52.93Z"/>
      <path class="cls-6" d="M741.08,81.83l-1.52-.93c.51.31,1.01.63,1.52.93Z"/>
      <path class="cls-6" d="M651.19,28.65l-1.52-.93c.5.32,1.03.61,1.52.93Z"/>
      <path class="cls-6" d="M792.88,475.61l1.52-.93c-.51.31-1.01.62-1.52.93Z"/>
      <path class="cls-6" d="M779.17,484.01l3.05-1.87c-1.02.61-2.02,1.24-3.05,1.87Z"/>
      <path class="cls-6" d="M671,549.33l1.52-.93-1.52.93Z"/>
      <path class="cls-6" d="M660.33,555.86c2.84-1.66,5.04-4.47,9.14-5.6l-9.14,5.6Z"/>
      <path class="cls-6" d="M646.62,564.26l1.52-.93c-.52.31-1.01.63-1.52.93Z"/>
      <path class="cls-6" d="M640.53,567.99l1.52-.93c-.51.31-1,.63-1.52.93Z"/>
      <path class="cls-2" d="M61.57,171.42l3.73-2.8,454.03.05c8.03.93,13.43,6.83,18.73,9.31,12.49,5.87,24.89,10.97,36.43,17.08,17.39,9.21,31.35,17.33,50.69,24.48,10.24,3.79,20.3,10.31,29.87,13.43,3.12,1.02,4.09,2.14,3.76-.89,28.51,16.12,56.27,32.47,83.8,49.46-2.3.59-4.77.95-6.85,1.85-30.66,13.4-64.24,36.09-92.72,51.93-42.49,23.64-86.38,46.92-128.09,71.32-27.32.93-54.88.04-82.44-.03-61.59-.16-130.81,3.57-191.15-.97-.58-.04-2.38-.92-5.22-1.05-20.57-.92-47.08.16-70.16.11-2.92,0-6.23-.93-5.37,1.87-20.64.03-41.27.97-61.71,1.02-10.51.03-21.38-2.16-32.76-.09-.08-.22-2.81-2.71-3.05-2.8,1.17-2.32-1.2-4.98-1.52-8.4-1.13-12.16.97-24.29,1.52-36.39.85-.08,2.86.16,3.04,0,.65-.53.66-11.76-1.52-13.07.08-1.86-.02-3.73,0-5.6,1.81-1.5,2.45-5.33,2.45-7.16.05-13.09-2.08-26.74-2.45-39.5-.02-.62.02-1.24,0-1.87,2.66-8.03,1.7-17.36,1.55-25.68-.03-1.58.96-4.14-1.55-5.12-.01-.62.01-1.24,0-1.87,2.28-.13,2.28-2.67,0-2.8-.02-.93.02-1.87,0-2.8,4.7-.83,1.85-6.22,0-8.4,0-.62,0-1.24,0-1.87,3.3-10.09.87-20.97,1.46-31.3.12-2.07,4.83-9.25-1.46-8.83-.08-10.16-.35-22.72-3.05-32.66Z"/>
      <path class="cls-1" d="M805.07,289.92l208.72-.93c-1.61,2.24,1.41,5.32,1.54,6.53.15,1.45-1.11,1.41-1.52,1.87-1.22,1.35-6.76,4.4-3.05,5.6-.5.67-.95,1.22-1.52,1.87-3.81.02-6.42,5.09-8.13,6.28-.35.24-6.57,2.66-7.26,3.15-1.78,1.26-2.81,1.65-2.9,3.64-16.05,10.38-33.35,22.23-51.8,30.79-2.25,1.05-6.92,1.71-7.62,4.67-1,.59-2.06,1.26-3.05,1.87l-1.52.93c-6.62,4.1-13,8.12-19.81,12.13l-1.52.93c-3.71,2.16-6.36,4.27-10.67,6.53-1.75.92-7.21,1.76-7.62,4.67-.48.33-1.06.61-1.52.93-4.7.6-12.41,3.57-4.57,3.73-7.21,4.37-15.35,7.74-22.85,12.13l-1.52.93c-2.54,1.49-5.03,3.13-7.62,4.67-2.88-.3-3.58.09-3.05,1.87-1.02.61-2.01,1.25-3.05,1.87l-3.05,1.87c-2.54,1.52-5.06,3.12-7.62,4.67l-1.52.93c-.51.31-1,.63-1.52.93-3.54.53-5.22,1.57-6.09,3.73l-108.17,66.25-.76-.91-2.29,1.85c-2.54,1.53-5.05,3.12-7.62,4.67l-1.52.93c-1.53.92-3.02,1.87-4.57,2.8l-12.19,7.47c-.51.3-1,.62-1.52.93-2.78.07-6.37,2.16-6.09,3.73-11.3,6.72-22.14,13.79-33.52,20.53l-3.04-.93v1.86c-.52.3-1.01.63-1.53.93-4.93-.28-5.02-.22-4.57,2.8-1.53.9-2.98,1.87-4.57,2.8-3.25.39-8.5,3.61-9.14,5.6-1.01.58-1.98,1.25-3.05,1.87l-1.52.93c-1.53.89-2.96,1.87-4.57,2.8-3.77-.06-4.91,1.9-6.09,3.73-5.57,3.15-9.06,6.52-16.27,9.16-21.85,8.01-40.27,2.76-53.81-9.16-1.81-2.75-1.41-5.53-1.52-8.4,1.81-1.78,2.45-6.02,2.46-8.09.11-19.33-2.65-38.81-.19-58.17,2.22-1.55,6.33-1.69,8.74-2.85,8.31-3.99,21.37-13.93,28.63-18.82,11.8-7.96,22.65-15.24,35.1-23.5,57.74-38.28,114.22-75.72,166.62-115.41l14.61-15.78c.55-.28.98-.65,1.52-.93,6.41-.37,4.69-1.01,6.09-2.8.31-.13,1.74.28,2.76-.17.7-.3,1.06-1.92,1.81-2.63.37-.35-.42-1.55,1.52-1.87ZM571.2,457.88v.93l.76-.47-.76-.47Z"/>
      <path class="cls-2" d="M584.15,28.65c9.96.95,16.23,8.92,22.75,12.66,8.87,5.09,18.49,9.91,27.53,15.33,4.16,2.5,6.83,3.65,10.67,5.6.77.39,1.48,1.11,3.05,1.87l3.05,1.87c.46.26,1.08.65,1.52.93l3.05,1.87c.48.33,1.04.61,1.52.93,4.19,2.79,7.7,4.89,12.19,7.47,18.68,10.72,37.11,22.16,56.37,32.66,2.41,1.32,4.22,2.93,7.62,3.73,2.22,1.52,4.13,2.47,6.09,3.73,2.48,1.6,5.1,3.09,7.62,4.67.51.32,1.01.62,1.52.93,1,.61,2.06,1.25,3.05,1.87s2.01,1.23,3.05,1.87c2.86,1.74,4.55,4.52,9.14,4.67,3.22,2.31,6.17,3.67,9.14,5.6l3.05,1.87c3.54,2.27,7.08,4.33,10.67,6.53,2.2,1.35,3.48,2.33,6.09,3.73,1.51.81,1.6,1.91,4.57,2.8l1.52.93c.36.57,1.31.73,1.52.93,3.39,3.25,6,2.95,9.14,4.67.89.49,1.76,1.18,3.05,1.87l1.52.93c1.26.67,2.87,1.85,4.57,2.8l3.05,1.87c.34.18,1.23.73,1.52.93l3.05,1.87c1.87,1.34,2.37,1.66,4.57,2.8l3.05,1.87c.49.33,1.03.61,1.52.93,4.64,3,8.61,4.46,12.19,6.53,1.01.58,1.98,1.25,3.05,1.87l1.52.93c2.04,1.2,3.99,2.5,6.09,3.73l1.52.93c1.02.6,1.97,1.24,3.05,1.87l3.05,1.87c.52.3,1,.63,1.52.93l1.52.93c12.33,7.17,24.48,14.02,36.57,21.46,5.72,3.52,7.2,4.54,13.71,7.47.36.16.68.61,1.52.93l3.05,1.87c2.25,1.52,3.98,2.42,6.09,3.73,7.48,4.64,14.74,11.08,24.38,14,2.21,1.49,4.05,2.45,6.09,3.73l1.52.93c1.45.87,3.19,1.91,4.57,2.8l3.05,1.87c19.22,11.99,47.9,24.38,45.71,42.92-.13-1.21-3.15-4.3-1.54-6.53l-208.72.93c-5.34-5.51-15.03-10.97-22.83-15.41-49.89-28.37-100.58-54.85-149.33-83.5-6.96-4.09-13.77-9.52-22.85-12.13-.52-.3-1-.63-1.52-.93l-3.05-1.87c-.51-.3-1.01-.63-1.52-.93l-3.05-1.87c-9.57-5.54-21.41-10.79-30.53-16.27-6.07-3.65-11.29-7.74-16.7-11.73,1.35.11,7.31.13,7.61,0,2.79-1.28-2.74-2.05-3-2.53-.28-.51-1.43-4.2-1.56-4.93-.16-.91.14-1.88,0-2.8-3.59-22.97-3.37-53.81-1.58-77.02.47-6.15.73-13.87,6.15-19.09,1.15.2,3.14-.11,4.57,0,.68.05,4.39,1.88,6.07.92.39-.23-1.11-4.18,6.12-3.73l-6.09-6.52v-.93c3.64-.04,8.87-.32,12.19,0ZM660.33,136.89c-2.29,1.96-2.33,4.1-5.51,5.49-7.75,3.39-31.68,4.56-40.66,7.76-1.46.52-2.95.79-2.57,2.12,1.26,4.38,34.22,14.68,40.25,18.29,9.31,5.56,18.66,20.12,27.64,26.92,1.52,1.15,3.74,3.47,6.78,2.47,2.06-.68,17.54-22.52,20.14-25.96.86-1.14,3.03-1.94,3.47-2.63,1.45-2.25-4.48-2.8,4.95-2.96,2.72-3.25,32-14.97,32.46-17.05.2-.88.39-1.83-1.02-2.43-5.34-2.28-26.11-3.5-31.92-6.39-2.21-1.1-17.67-17.54-20.51-20.56-4.39-4.67-5.46-13.01-16.74-13.06l-16.77,27.99Z"/>
      <path class="cls-1" d="M745.65,283.39l1.52.93c5.16,2.87,5.76-.32,7.62,6.53l-1.52,1.87c-.92.37-1.19.78-1.52.93-2.34,1.11-4.87,1.93-6.09,3.73-1.68.51-3.21.58-4.57.93-5.29,1.36-1.57.71-3.05,1.87-2.27,1.77-4.37,2.52-6.09,3.73-.46.32-1.03.62-1.52.93-1.59,1-3.08,2.6-4.57,3.73-.49.02-1.03.02-1.52,0-7.3-.25-3.24,1.32-4.91,2.53-1,.72-10.92,1.57-5.75,4-24.84,14.69-48.53,29.65-73.9,43.85-9.54,5.34-18.32,12.07-26.59,16.39-15.49,8.08-25.65,14.27-40.4,22.83-14.21,8.25-29.86,17.77-44.99,25.17-3.05-.67-2.87,1.75-4.1,1.88-2.76.3-7.89-.55-11.32-.66-2.92-.1-5.08-1.29-4.39,1.58-1.01.02-2.03-.02-3.05,0-.22-1.4-4.35-1.4-4.57,0-1.02.01-2.03,0-3.05,0,1.49-3.3-8.12-2.17-10.67,0-2.54.02-5.08-.01-7.62,0,1.66-2.77-7.49-3.01-6.09,0-1.02,0-2.03,0-3.05,0,.15-1.58.54-2.17-2.27-1.87l-.78,1.87c-1.02,0-2.03,0-3.05,0-2.03-1.71-11.14-1.72-14.56-1.86-2.89-.12-6.11-.87-5.25,1.86-1.02,0-2.03,0-3.05,0-3.19-1.07-15.3-3.63-13.71,0-1.52,0-3.05,0-4.57,0-.69-2.05-12.62-2.98-10.67,0-1.02,0-2.03,0-3.05,0,.73-3.29-2.22-1.34-4.63-1.36-5.45-.04-11.76-1.37-15.18,1.36-1.52,0-3.05,0-4.57,0,.67-3.09-1.79-1.56-4.58-1.42-5.94.31-8.21.1-13.75-.05-2.77-.08-4.73-.98-6.05,1.47-1.02,0-2.03,0-3.05,0-1.62-2.77-5.26-1.93-7.62,0h-3.05c-5.87-2.56-23.11-2.84-28.95,0h-15.24c.85-2.83-2.33-1.79-5.26-1.87-9.71-.25-22.49-.51-31.3,1.87h-6.09c-3.1-2.55-9.18-2.51-12.19,0h-9.14l-5.13-1.72-11.63,1.72h-3.05c-2.03-2.64-9.74-1.48-13.76-1.43-2.61.04-5.23-1.76-4.52,1.43-1.52,0-3.05,0-4.57,0,2.59-2.31-11.21-2.8-9.14,0-1.02,0-2.03,0-3.05,0,2.35-2.77-12.41-3.09-10.67,0-1.52,0-3.05,0-4.57,0,1.66-2.77-7.49-3.01-6.09,0-1.02,0-2.03,0-3.05,0,.15-1.58.54-2.17-2.27-1.87l-.78,1.87c-1.02,0-2.03,0-3.05,0,2.49-2.78-14-3.11-12.19,0-1.52,0-3.05,0-4.57,0-3.74-2.99-12.21-1.16-16.76-.93-1,.05-2.04-.04-3.05,0-4.43-.64-15.01-2.64-13.71.93-1.52.03-3.05-.02-4.57,0,.62-3.04-1.21-1.36-3.74-1.49-11.96-.58-25.34,1.54-33.61-4.11-.97-1.61,4.32.58,5.34,0,.33-.19,3.05-4.89,3.06-5.17.18-3.7-7.29-1.14-7.61-1.37-.15-.11-.17-2.7,0-2.79.76-.46,6.5,1.75,4.57-3.74,11.38-2.07,22.25.11,32.76.09,20.44-.05,41.06-.99,61.71-1.02,9.91-.02,20.3,0,29.71,0h25.9c.46,0,1.6.78,2.99.78,5.91,0,16.24-.82,22.15-1.71,60.34,4.54,129.56.81,191.15.97,27.56.07,55.13.96,82.44.03,41.71-24.4,85.6-47.68,128.09-71.32,28.48-15.84,62.06-38.53,92.72-51.93,2.08-.91,4.55-1.26,6.85-1.85,1,.62,2.04,1.26,3.05,1.87Z"/>
      <path class="cls-4" d="M72.23,157.42c3.55-.05,7.12.08,10.67,0h438.79c2.98,1.93,7.72,2.63,10.73,4.16,7.01,3.57,15.34,9.81,22.14,13.5,30.71,16.72,61.74,33.35,92.07,50.45l3.05,2.8c2.58,1.38,4.98,1.38,9.14,3.73.33,3.04-.64,1.91-3.76.89-9.57-3.12-19.63-9.64-29.87-13.43-19.34-7.15-33.3-15.27-50.69-24.48-11.55-6.11-23.94-11.21-36.43-17.08-5.3-2.49-10.7-8.39-18.73-9.31l-454.03-.05-3.73,2.8c-.63-2.31-2.86-7.69-7.62-7.47,5.15-2.26,9.73-3.75,14.1-5.89l4.18-.64Z"/>
      <path class="cls-8" d="M791.36,298.32l-14.61,15.78c-52.39,39.68-108.87,77.12-166.62,115.41-12.45,8.25-23.29,15.54-35.1,23.5-7.26,4.89-20.32,14.83-28.63,18.82-2.41,1.16-6.51,1.3-8.74,2.85-2.46,19.36.29,38.84.19,58.17-.01,2.07-.65,6.31-2.46,8.09-.92-22.32,0-44.85,0-67.19v-25.19c15.86-9.34,31.75-18.74,47.23-27.99l1.52-.93c2.61-1.54,5.06-3.16,7.62-4.67l3.05-1.87c3.66-2.15,7.07-4.4,10.67-6.53l1.52-.93c1.2-.71,3.37-1.16,4.57-1.87,1.53-.91,3.03-1.87,4.57-2.8,2.58-1.55,5.06-3.13,7.62-4.67l3.05-1.87c1.79-1.04,2.84-1.64,4.57-2.8l3.05-1.87c1.54-.93,3.04-1.87,4.57-2.8,2.05-1.24,4.04-2.5,6.09-3.73.51-.31,1.01-.62,1.52-.93,2.58-1.57,5.07-3.06,7.62-4.67.5-.31,1.02-.62,1.52-.93l1.52-.93c3.13-2.01,5.96-3.01,9.14-5.6,2.56-.4,3.24-1.98,4.57-2.8,1.65-1.03,2.72-1.39,4.57-2.8,2-.25,3.11-1.17,4.57-1.87,18.58-8.81,38.67-23.8,56.33-34.08,17.55-10.22,36.05-20.81,54.89-30.3Z"/>
      <path class="cls-7" d="M61.57,171.42c2.7,9.94,2.97,22.5,3.05,32.66.11,13.57-.19,26.53,0,40.12,0,.62,0,1.24,0,1.87.04,2.79-.05,5.6,0,8.4.02.93-.02,1.87,0,2.8s-.02,1.87,0,2.8c.01.62-.01,1.24,0,1.87.17,10.42-.28,20.39,0,30.79.02.62-.02,1.24,0,1.87-2.25,1.46-1.54,3.32-1.57,5.09-.23,13.9,1.75,27.61,1.57,41.57-.02,1.86.08,3.74,0,5.6-.05,1.24.06,2.49,0,3.73-4.6.52-2.95-1.43-3.05-3.22-.45-8.24.34-16.54-.01-24.77l-4.54.94c.5-4.61-4.77-3.87-10.68-3.75,6.02-2.68,8.08-6.51-1.52-5.59v45.72l-1.52-3.26c-.81-50.39,1.07-100.81.03-151.19-.03-1.58.97-4.14-1.55-5.12.14-7.23-1.01-16.97.03-23.78.47-3.08,2.09-6.19,4.54-8.88,2.4-1.27,5.03-2.6,7.62-3.73,4.76-.22,6.99,5.15,7.62,7.47ZM46.31,303.91v-3.72h-1.49v3.72h1.49ZM45.57,306.72v.93l.76-.47-.76-.47ZM49.37,310.46c-.16-.11-3.64-.39-4.55-.94-2.13,4.78,7.31,2.86,4.55.94ZM61.56,317.92c-1.66-1.02-4.69.84-3.03,1.86s4.69-.84,3.03-1.86Z"/>
      <path class="cls-6" d="M46.33,167.68c-2.45,2.69-4.07,5.8-4.54,8.88-1.04,6.81.11,16.55-.03,23.78-1.19,61.13-1.36,122.69,0,183.83.12,5.25-.46,10.63,0,15.86.05.62-.08,1.25,0,1.87.32,2.4.62,2.62,1.52,4.67,1.48,3.32,4.14,7.6,7.62,10.26-9.08-3.6-11.61-10.94-12.26-17.22l.02-219.36c.43-3.17,2.61-10.17,5.49-12.64,1.28-1.1,2.09.12,2.18.07Z"/>
      <path class="cls-6" d="M521.69,156.48l-438.79.93c-3.54.08-7.12-.05-10.67,0l449.46-.93Z"/>
      <path class="cls-5" d="M521.69,156.48v.93c-145.45,2.37-293.65-3.17-438.79,0l438.79-.93Z"/>
      <path class="cls-8" d="M63.09,404.7c.24.09,2.97,2.58,3.05,2.8,1.94,5.48-3.81,3.28-4.57,3.74-.16.1-.14,2.69,0,2.79.32.23,7.79-2.33,7.61,1.37-.01.27-2.74,4.98-3.06,5.17-1.02.58-6.3-1.61-5.34,0,8.27,5.65,21.64,3.53,33.61,4.11,2.53.12,4.35-1.55,3.74,1.49-7.55.08-19.37.62-26.32-.21-5.02-.6-17.59-6.58-20.92-9.12s-6.14-6.94-7.62-10.26c2.78-3.32,15.25-3.53,19.81-1.87Z"/>
      <path class="cls-6" d="M535.4,448.55v.93c-2.4.62-2.4,4.04,0,4.67v14.93l-1.52,1.39,1.52.48v1.87l-1.49.47,1.49.47c0,22.34-.92,44.86,0,67.19.12,2.87-.28,5.65,1.52,8.4-1.36-1.19-3.18-2.07-3.86-3.7l-.79-96.53c.28-1.1,2.83-.38,3.13-.56Z"/>
      <path class="cls-10" d="M535.4,130.36l3.05-4.67c5.74.05,8.98,2,13.69-.93-.3,2.42.87,4.72,1.5,7.07.47,1.75-1.7,3.73,3.08,3.2.14.92-.16,1.88,0,2.8-3.87-1.17-4.92,1.9-5.46,1.88-1.38-.04-2.97-.94-4.33-.95-.62,0-1.1,2.12-3.93,1.87-.53-.05-1.13.08-1.52,0-1.94-.93-2.14-2.81-3.05-3.73-.39-2.47,1.87-5.35-3.05-4.67-.06-.62.03-1.25,0-1.87Z"/>
      <path class="cls-6" d="M541.49,140.62c-4.54-.98-8.84-3.89-9.2-6.96,4.43-27.31-6.01-61.8.75-88.26,3.56-13.96,20.83-19.55,42.66-19.58,1.99,0,9.77.4,8.45,2.83-3.32-.32-8.55-.04-12.19,0-10.49.11-15.46-.39-24.38,3.73-10.03,4.64-10.6,9.71-12.19,16.8-5.08,22.67-2.04,55.09-1.55,78.86.03,1.58-.97,4.13,1.55,5.12.6,5.71,2.35,3.03,3.05,3.73.91.92,1.11,2.81,3.05,3.73Z"/>
      <path class="cls-4" d="M556.73,137.82c.13.74,1.28,4.43,1.56,4.93.26.47,5.79,1.25,3,2.53-.3.14-6.26.11-7.61,0-5.71-.45-7.57-1.68-10.67-4.67,2.83.25,3.3-1.88,3.93-1.87,1.35.01,2.95.91,4.33.95.54.02,1.58-3.05,5.46-1.88Z"/>
      <path class="cls-8" d="M265.72,426.16c8.82-2.38,21.59-2.11,31.3-1.87,2.93.07,6.11-.96,5.26,1.87-12.17,0-24.39,0-36.57,0Z"/>
      <path class="cls-8" d="M346.47,426.16c-9.63,0-19.32,0-28.95,0,5.84-2.84,23.08-2.56,28.95,0Z"/>
      <path class="cls-6" d="M930.01,229.27l12.26,5.07c5.21,2.04,8.94,6.79,12.11,8.93-9.64-2.92-16.89-9.36-24.38-14Z"/>
      <path class="cls-6" d="M741.08,300.19c-.42,1.95-10.69,8.76-13.23,9.19-1.08.18-1.89-.8-2.01-.79,1.49-1.13,2.98-2.73,4.57-3.73l1.52-.93c1.73-1.21,3.82-1.96,6.09-3.73h3.05Z"/>
      <path class="cls-6" d="M919.34,222.74c-6.51-2.93-8-3.94-13.71-7.47,5.84-.08,12.09,4.31,13.71,7.47Z"/>
      <path class="cls-8" d="M360.19,426.16c1.32-2.45,3.28-1.55,6.05-1.47,5.54.15,7.81.36,13.75.05,2.78-.14,5.25-1.67,4.58,1.42-8.11,0-16.27,0-24.38,0Z"/>
      <path class="cls-8" d="M463.79,426.16c-6.59.02-13.22-.02-19.81,0-.87-2.73,2.36-1.98,5.25-1.86,3.42.14,12.53.15,14.56,1.86Z"/>
      <path class="cls-8" d="M218.49,426.16c-6.08,0-12.2,0-18.28,0-.71-3.19,1.91-1.39,4.52-1.43,4.02-.06,11.74-1.21,13.76,1.43Z"/>
      <path class="cls-6" d="M669.47,77.17c-4.49-2.58-8-4.67-12.19-7.47,5.59.55,12.44,3.62,12.19,7.47Z"/>
      <path class="cls-8" d="M389.13,426.16c3.42-2.74,9.73-1.4,15.18-1.36,2.41.02,5.36-1.92,4.63,1.36-6.59.01-13.22,0-19.81,0Z"/>
      <path class="cls-6" d="M847.73,180.75c-3.58-2.07-7.55-3.54-12.19-6.53,5.46-.19,10.93,3.54,12.19,6.53Z"/>
      <path class="cls-8" d="M221.54,426.16l11.63-1.72,5.13,1.72c-5.57,0-11.19,0-16.76,0Z"/>
      <path class="cls-8" d="M136.22,426.16c-5.27-.02-12.73.78-16.76-.93,4.55-.23,13.02-2.05,16.76.93Z"/>
      <path class="cls-6" d="M632.91,191.01c-1.05,1.44-6.94-1.88-7.66-2.3-5.28-3.07-10.53-7.11-15.19-9.83,9.09,2.61,15.9,8.04,22.85,12.13Z"/>
      <path class="cls-8" d="M140.79,426.16c-1.81-3.11,14.68-2.78,12.19,0-4.06,0-8.13,0-12.19,0Z"/>
      <path class="cls-8" d="M527.78,423.36c-1.11.54-1.32,2.14-4.09,2.61-4.19.72-10.98.08-15.72.19-.69-2.87,1.47-1.68,4.39-1.58,3.43.12,8.56.97,11.32.66,1.23-.14,1.04-2.55,4.1-1.88Z"/>
      <path class="cls-8" d="M116.41,425.23c-3.86.16-8.55.81-13.71.93-1.3-3.58,9.29-1.57,13.71-.93Z"/>
      <path class="cls-8" d="M172.79,426.16c-1.75-3.09,13.02-2.77,10.67,0-3.55,0-7.11,0-10.67,0Z"/>
      <path class="cls-6" d="M645.1,62.24c-3.83-1.95-6.5-3.1-10.67-5.6l.75-.91c3.43,2.12,9.31,3.06,9.92,6.51Z"/>
      <path class="cls-6" d="M809.64,158.35c-3.14-1.72-5.75-1.41-9.14-4.67,4.64-.29,8.49,1.9,9.14,4.67Z"/>
      <path class="cls-8" d="M440.94,426.16c-4.56.01-9.15,0-13.71,0-1.58-3.63,10.53-1.07,13.71,0Z"/>
      <path class="cls-6" d="M763.94,131.29c-4.59-.14-6.28-2.93-9.14-4.67l.74-.91c5.51.76,6.45,4.18,8.4,5.58Z"/>
      <path class="cls-8" d="M885.82,381.37c-1.27.89-1.55,1.9-4.57,3.73-7.84-.16-.13-3.14,4.57-3.73Z"/>
      <path class="cls-8" d="M259.63,426.16c-4.06,0-8.13,0-12.19,0,3.01-2.51,9.09-2.55,12.19,0Z"/>
      <path class="cls-8" d="M422.65,426.16c-3.55,0-7.11,0-10.67,0-1.95-2.98,9.97-2.05,10.67,0Z"/>
      <path class="cls-8" d="M486.64,426.16c2.55-2.17,12.16-3.3,10.67,0-3.55.03-7.11-.02-10.67,0Z"/>
      <path class="cls-8" d="M724.32,308.58c-2.47,2.81-7.11,4.43-10.67,6.53-5.17-2.43,4.75-3.28,5.75-4,1.68-1.21-2.39-2.78,4.91-2.53Z"/>
      <path class="cls-8" d="M186.5,426.16c-2.06-2.8,11.73-2.31,9.14,0-3.05,0-6.1,0-9.14,0Z"/>
      <path class="cls-8" d="M1010.76,302.99c-3.71-1.2,1.83-4.25,3.05-5.6,1.39,2.79-1.92,4.08-3.05,5.6Z"/>
      <path class="cls-8" d="M162.12,426.16c-1.39-3.01,7.76-2.77,6.09,0-2.03,0-4.06,0-6.09,0Z"/>
      <path class="cls-8" d="M472.93,426.16c-1.39-3.01,7.76-2.77,6.09,0-2.03,0-4.06,0-6.09,0Z"/>
      <path class="cls-8" d="M1009.23,304.85c-6.24,7.03-10.12,7.78-18.28,13.06.09-1.99,1.12-2.38,2.9-3.64.69-.49,6.92-2.91,7.26-3.15,1.7-1.18,4.32-6.25,8.13-6.28Z"/>
      <path class="cls-8" d="M357.14,426.16c-2.54,0-5.08,0-7.62,0,2.36-1.93,6-2.77,7.62,0Z"/>
      <path class="cls-8" d="M640.53,528.8c-1.53.9-2.99,1.87-4.57,2.8-.45-3.02-.36-3.07,4.57-2.8Z"/>
      <path class="cls-6" d="M748.7,122.89h4.56s-1.52,1.87-1.52,1.87c-.99-.61-2.04-1.25-3.05-1.87Z"/>
      <path class="cls-6" d="M834.02,173.28l-3.05-1.87c.07.04.9-.87,1.57-.5,1.5.83,1.14,2.14,1.47,2.36Z"/>
      <path class="cls-6" d="M645.1,383.23c-2.05,1.24-4.04,2.49-6.09,3.73.2-2.21,2.53-3.61,6.09-3.73Z"/>
      <path class="cls-6" d="M747.18,121.96c-2.52-1.58-5.14-3.07-7.62-4.67,3.95.25,7.22,2.28,7.62,4.67Z"/>
      <path class="cls-8" d="M803.55,291.79c-.75.71-1.11,2.33-1.81,2.63-1.02.45-2.44.04-2.76.17-1.4,1.79.31,2.43-6.09,2.8,2.9-1.5,3.4-1.71,6.09-2.8.98-1.24-.67-2.22,4.57-2.8Z"/>
      <path class="cls-6" d="M680.14,362.71c-1.46.69-2.57,1.62-4.57,1.87.88-.67,1.35-1.91,1.54-2.8l3.03.93Z"/>
      <path class="cls-6" d="M725.85,109.83l.74-.91c4.22.66,4.57,3.05,6.87,4.64-3.4-.8-5.2-2.42-7.62-3.73Z"/>
      <path class="cls-8" d="M466.84,426.16l.78-1.87c2.81-.3,2.42.29,2.27,1.87-1.02,0-2.03,0-3.05,0Z"/>
      <path class="cls-8" d="M156.03,426.16l.78-1.87c2.81-.3,2.42.29,2.27,1.87-1.02,0-2.03,0-3.05,0Z"/>
      <path class="cls-8" d="M741.08,298.32c-.09.61.13,1.26,0,1.87h-3.05c1.48-1.15-2.25-.5,3.05-1.87Z"/>
      <path class="cls-6" d="M754.79,290.86c.03.1,2.45,1.28,1.52,1.86-.38.23-2.52-.21-3.05,0l1.52-1.87Z"/>
      <path class="cls-8" d="M894.96,375.77c-1.29,2.21-5.61,3.28-7.62,4.67.41-2.9,5.87-3.75,7.62-4.67Z"/>
      <path class="cls-6" d="M920.86,223.67c4.27,1.65,1.44.78,3.05,1.87l-3.05-1.87Z"/>
      <path class="cls-8" d="M823.36,418.69c.87-2.17,2.56-3.2,6.09-3.73l-6.09,3.73Z"/>
      <path class="cls-6" d="M594.82,413.09l-3.05,1.87c.79-.46,2.13-1.33,3.05-1.87Z"/>
      <path class="cls-8" d="M504.93,426.16c-1.52.02-3.05-.02-4.57,0,.22-1.4,4.35-1.4,4.57,0Z"/>
      <path class="cls-6" d="M862.97,190.08c1.29.75,2.36,1.47,3.05,1.87l-3.05-1.87Z"/>
      <path class="cls-8" d="M849.26,402.83c-1.01.6-2.01,1.25-3.05,1.87-.53-1.78.17-2.17,3.05-1.87Z"/>
      <path class="cls-6" d="M626.81,394.43l-3.05,1.87c.88-.53,2.04-1.28,3.05-1.87Z"/>
      <path class="cls-6" d="M634.43,389.77l-3.05,1.87c1.68-1.12,1.76-1.09,3.05-1.87Z"/>
      <path class="cls-6" d="M603.96,175.15c-.74-.45-2.43-1.51-3.05-1.87l3.05,1.87Z"/>
      <path class="cls-6" d="M823.36,166.75c.23.16,1.35.65,3.05,1.87l-3.05-1.87Z"/>
      <path class="cls-6" d="M648.14,64.11c2.94,1.42,2.4,1.51,3.05,1.87l-3.05-1.87Z"/>
      <path class="cls-6" d="M818.78,163.95c1.3.73,2.83,1.75,3.05,1.87l-3.05-1.87Z"/>
      <path class="cls-6" d="M966.57,250.73c.62.4,2.31,1.4,3.05,1.87l-3.05-1.87Z"/>
      <path class="cls-6" d="M654.24,377.64c-2.55,1.61-5.03,3.09-7.62,4.67,1.16-1.87,4.34-4.69,7.62-4.67Z"/>
      <path class="cls-8" d="M698.42,494.28c-4.09,2.45-8.06,5-12.19,7.47l12.19-7.47Z"/>
      <path class="cls-6" d="M751.75,293.65c.61,1.87-3.5,2.94-6.09,3.73,1.22-1.8,3.75-2.62,6.09-3.73Z"/>
      <path class="cls-6" d="M671,367.37c-1.33.82-2.01,2.4-4.57,2.8,1.4-1.14.63-3.32,4.57-2.8Z"/>
      <path class="cls-8" d="M684.71,502.67c-2.04,1.21-4.02,2.5-6.09,3.73-.28-1.57,3.32-3.67,6.09-3.73Z"/>
      <path class="cls-6" d="M786.79,145.29c2.77.05,6.38,2.18,6.09,3.73-2.61-1.41-3.89-2.38-6.09-3.73Z"/>
      <path class="cls-8" d="M939.15,348.71c-1.52,2.22-5.17,3.21-7.62,4.67.69-2.95,5.37-3.62,7.62-4.67Z"/>
      <path class="cls-8" d="M645.1,526.94c-.67.4-2.39.55-3.05.93v-1.86s3.05.93,3.05.93Z"/>
      <path class="cls-8" d="M631.38,534.4c-3.09,1.8-5.96,3.76-9.14,5.6.64-1.99,5.9-5.21,9.14-5.6Z"/>
      <path class="cls-6" d="M773.08,136.89c.65.42,2.22,1.34,3.05,1.87l-3.05-1.87Z"/>
      <path class="cls-6" d="M652.71,66.9c.89.57,1.36.72,3.05,1.87l-3.05-1.87Z"/>
      <path class="cls-8" d="M613.1,545.6c-2.12,1.22-3.96,2.53-6.09,3.73,1.18-1.84,2.33-3.8,6.09-3.73Z"/>
      <path class="cls-6" d="M797.45,151.82c.59.18,2.13-.14,3.07.02l-1.55.91-1.52-.93Z"/>
      <path class="cls-2" d="M649.67,228.34l-3.05-2.8c2.57,1.45,2.84,2.69,3.05,2.8Z"/>
      <path class="cls-6" d="M616.15,400.96c-1.54.92-3.04,1.89-4.57,2.8.1-1.67,1.8-2.75,3.82-3.71l.75.91Z"/>
      <path class="cls-6" d="M962,247.93l-1.52-.93c.5.31,1.01.63,1.52.93Z"/>
      <path class="cls-8" d="M856.87,398.16l1.52-.93c-.52.3-1,.63-1.52.93Z"/>
      <path class="cls-6" d="M605.48,406.56c.51-.31,1.01-.63,1.52-.93l-1.52.93Z"/>
      <path class="cls-8" d="M840.11,408.43l3.05-1.87c-1.02.61-2.02,1.25-3.05,1.87Z"/>
      <path class="cls-8" d="M830.97,414.03l1.52-.93c-.51.31-1.01.62-1.52.93Z"/>
      <path class="cls-6" d="M582.63,420.56c.51-.31,1.01-.63,1.52-.93l-1.52.93Z"/>
      <path class="cls-2" d="M747.18,284.32l-1.52-.93c.51.31,1,.64,1.52.93Z"/>
      <path class="cls-6" d="M655.76,376.7c.5-.32,1.03-.62,1.52-.93l-1.52.93Z"/>
      <path class="cls-6" d="M869.06,193.81l-1.52-.93c.52.3,1,.63,1.52.93Z"/>
      <path class="cls-6" d="M859.92,188.21l-1.52-.93c.52.3,1.01.63,1.52.93Z"/>
      <path class="cls-6" d="M852.3,183.55l-1.52-.93c.52.3,1.01.63,1.52.93Z"/>
      <path class="cls-6" d="M608.53,177.95c-1.07-.62-2.03-1.27-3.05-1.87l3.05,1.87Z"/>
      <path class="cls-8" d="M905.63,369.24l1.52-.93c-.52.3-1,.63-1.52.93Z"/>
      <path class="cls-6" d="M814.21,161.15l-1.52-.93c.54.29.99.65,1.52.93Z"/>
      <path class="cls-8" d="M715.18,484.95c-.82.38-2.43.56-3.05.93l2.29-1.85.76.91Z"/>
      <path class="cls-8" d="M702.99,491.48l1.52-.93c-.51.31-1.01.63-1.52.93Z"/>
      <path class="cls-8" d="M926.96,356.17l1.52-.93c-.51.31-1.02.62-1.52.93Z"/>
      <path class="cls-8" d="M617.67,542.8l1.52-.93c-.52.3-1,.63-1.52.93Z"/>
      <path class="cls-10" d="M41.76,200.34c2.52.98,1.52,3.53,1.55,5.12,1.04,50.38-.84,100.81-.03,151.19l1.52,3.26v-45.72c9.61-.92,7.55,2.91,1.52,5.59,5.91-.11,11.18-.85,10.68,3.75l4.54-.94c.36,8.23-.44,16.53.01,24.77.1,1.8-1.55,3.74,3.05,3.22-.16,3.35-1.38,6.22-1.52,9.33-.55,12.11-2.66,24.23-1.52,36.39-2.36.17-16.12,1.53-16.76,1.87-1.02.54,2.44,4.54-3.05,3.73-.08-.61.05-1.25,0-1.87,2.57-4.4,2.56-11.53,0-15.86-1.36-61.13-1.19-122.69,0-183.83Z"/>
      <path class="cls-8" d="M160.6,406.56c-.86-2.81,2.44-1.88,5.37-1.87,23.08.05,49.59-1.03,70.16-.11,2.84.13,4.64,1.01,5.22,1.05-5.91.89-16.24,1.71-22.15,1.71-1.39,0-2.52-.78-2.99-.78h-25.9c-9.41,0-19.8-.02-29.71,0Z"/>
      <path class="cls-4" d="M61.57,396.3c.32,3.42,2.69,6.08,1.52,8.4-4.56-1.66-17.03-1.45-19.81,1.87-.91-2.04-1.2-2.26-1.52-4.67,5.49.81,2.03-3.19,3.05-3.73.64-.34,14.4-1.69,16.76-1.87Z"/>
      <path class="cls-8" d="M64.61,341.24c.18-13.96-1.8-27.68-1.57-41.57.03-1.77-.69-3.62,1.57-5.09.37,12.75,2.5,26.4,2.45,39.5,0,1.82-.64,5.66-2.45,7.16Z"/>
      <path class="cls-8" d="M64.61,204.07c6.3-.42,1.58,6.76,1.46,8.83-.59,10.33,1.83,21.21-1.46,31.3-.19-13.6.11-26.56,0-40.12Z"/>
      <path class="cls-8" d="M64.61,292.72c-.28-10.41.17-20.38,0-30.79,2.52.98,1.52,3.53,1.55,5.12.15,8.32,1.1,17.65-1.55,25.68Z"/>
      <path class="cls-8" d="M64.61,346.84c2.18,1.31,2.17,12.54,1.52,13.07-.19.15-2.19-.09-3.04,0,.14-3.11,1.36-5.98,1.52-9.33.06-1.24-.05-2.49,0-3.73Z"/>
      <path class="cls-8" d="M64.61,254.46c-.05-2.79.04-5.6,0-8.4,1.85,2.17,4.7,7.57,0,8.4Z"/>
      <path class="cls-8" d="M64.61,260.06c-.02-.93.02-1.87,0-2.8,2.28.13,2.28,2.67,0,2.8Z"/>
      <polygon class="cls-8" points="571.2 457.88 571.96 458.35 571.2 458.82 571.2 457.88"/>
      <path class="cls-10" d="M693.85,121.96c2.84,3.02,18.3,19.47,20.51,20.56,5.81,2.9,26.58,4.11,31.92,6.39,1.41.6,1.22,1.55,1.02,2.43-.46,2.07-29.75,13.8-32.46,17.05-9.43.16-3.51.71-4.95,2.96-.44.69-2.61,1.49-3.47,2.63-2.61,3.43-18.08,25.27-20.14,25.96-3.04,1.01-5.26-1.31-6.78-2.47-8.99-6.8-18.33-21.36-27.64-26.92-6.03-3.6-38.99-13.9-40.25-18.29-.38-1.33,1.11-1.6,2.57-2.12,8.97-3.19,32.91-4.36,40.66-7.76,3.18-1.39,3.22-3.53,5.51-5.49.13-.11,2.53.03,3.76-.93,2-1.54,2.01-5.25,4.64-7.46,2.23-1.87,12.91-7.59,16.75-7.58,3.38,0,6.45,2.92,8.37,1.03Z"/>
      <path class="cls-7" d="M561.3,38.91c-5.42,5.22-5.68,12.95-6.15,19.09-1.79,23.21-2,54.05,1.58,77.02-4.78.54-2.61-1.45-3.08-3.2-.63-2.35-1.8-4.65-1.5-7.07-4.71,2.94-7.95.98-13.69.93l-3.05,4.67c-1.3-27,.97-54.17,0-81.18,1.59-7.09,2.16-12.16,12.19-16.8,7.85,2.23,2.77,4.65,13.71,6.53Z"/>
      <path class="cls-7" d="M660.33,136.89l16.77-27.99c11.29.05,12.35,8.39,16.74,13.06-1.92,1.89-4.99-1.02-8.37-1.03-3.83-.01-14.51,5.71-16.75,7.58-2.64,2.2-2.65,5.92-4.64,7.46-1.23.95-3.63.81-3.76.93Z"/>
      <path class="cls-10" d="M571.96,28.65v.93l-6.19,2.39c-.28,2.19,6.68,5.42.09,6.94-1.43-.11-3.42.2-4.57,0-10.94-1.88-5.86-4.3-13.71-6.53,8.92-4.12,13.88-3.62,24.38-3.73Z"/>
      <path class="cls-4" d="M571.96,29.58l6.09,6.52c-7.23-.45-5.73,3.5-6.12,3.73-1.68.97-5.39-.87-6.07-.92,6.59-1.52-.37-4.75-.09-6.94l6.19-2.39Z"/>
      <path class="cls-8" d="M730.42,304.85c.5-.31,1.06-.61,1.52-.93l-1.52.93Z"/>
      <path class="cls-10" d="M521.69,157.42H82.9c145.15-3.17,293.34,2.37,438.79,0Z"/>
      <path class="cls-3" d="M535.4,454.15c-2.4-.62-2.4-4.04,0-4.67v4.67Z"/>
      <polygon class="cls-3" points="535.4 470.95 533.88 470.47 535.4 469.08 535.4 470.95"/>
      <polygon class="cls-3" points="535.4 473.75 533.91 473.28 535.4 472.81 535.4 473.75"/>
      <path class="cls-10" d="M49.37,310.46c2.76,1.92-6.68,3.83-4.55-.94.91.55,4.39.83,4.55.94Z"/>
      <path class="cls-10" d="M61.56,317.92c1.66,1.02-1.37,2.87-3.03,1.86s1.37-2.87,3.03-1.86Z"/>
      <rect class="cls-10" x="44.82" y="300.19" width="1.49" height="3.72"/>
      <polygon class="cls-10" points="45.57 306.72 46.33 307.18 45.57 307.65 45.57 306.72"/>
      <path class="cls-4" d="M41.76,400.03c-.46-5.23.12-10.61,0-15.86,2.56,4.33,2.57,11.47,0,15.86Z"/>
      <path class="cls-9" d="M535.4,130.36c.03.62-.06,1.25,0,1.87.03.31-.03.62,0,.93-2.52-.98-1.52-3.54-1.55-5.12-.49-23.78-3.53-56.2,1.55-78.86.97,27.01-1.3,54.18,0,81.18Z"/>
      <path class="cls-7" d="M535.4,132.22c4.92-.69,2.66,2.2,3.05,4.67-.7-.71-2.44,1.97-3.05-3.73-.03-.31.03-.62,0-.93Z"/>
    </g>
  </g>
</svg>