<?xml version="1.0" encoding="UTF-8"?>
<svg id="_Слой_2" data-name="Слой 2" xmlns="http://www.w3.org/2000/svg" viewBox="0 0 680.74 651.74">
  <defs>
    <style>
      .cls-1 {
        fill: #c61b30;
      }

      .cls-2 {
        fill: #e04f5b;
      }

      .cls-3 {
        fill: #0a060d;
      }

      .cls-4 {
        fill: #a1233a;
      }

      .cls-5 {
        fill: #0f0205;
      }

      .cls-6 {
        fill: #c93a4c;
      }

      .cls-7 {
        fill: #d62537;
      }

      .cls-8 {
        fill: #cb1c30;
      }

      .cls-9 {
        fill: #fd383c;
      }

      .cls-10 {
        fill: #fc3a40;
      }

      .cls-11 {
        fill: #f49596;
      }

      .cls-12 {
        fill: #ae273e;
      }

      .cls-13 {
        fill: #f19192;
      }

      .cls-14 {
        fill: #f7999e;
      }

      .cls-15 {
        fill: #e72130;
      }

      .cls-16 {
        fill: #d62c3f;
      }

      .cls-17 {
        fill: #d51d2f;
      }

      .cls-18 {
        fill: #fd8a88;
      }

      .cls-19 {
        fill: #fd363b;
      }

      .cls-20 {
        fill: #87142b;
      }

      .cls-21 {
        fill: #eb5f63;
      }

      .cls-22 {
        fill: #fdf4ec;
      }

      .cls-23 {
        fill: #7f132a;
      }

      .cls-24 {
        fill: #aa9ea5;
      }

      .cls-25 {
        fill: #fb9998;
      }

      .cls-26 {
        fill: #a299a1;
      }

      .cls-27 {
        fill: #b21e37;
      }

      .cls-28 {
        fill: #fb8886;
      }

      .cls-29 {
        fill: #fd3d44;
      }

      .cls-30 {
        fill: #bd1a2f;
      }

      .cls-31 {
        fill: #fdf7f0;
      }

      .cls-32 {
        fill: #f09496;
      }

      .cls-33 {
        fill: #92132b;
      }

      .cls-34 {
        fill: #f05f64;
      }

      .cls-35 {
        fill: #c11a2f;
      }

      .cls-36 {
        fill: #e5333a;
      }

      .cls-37 {
        fill: #f09494;
      }

      .cls-38 {
        fill: #fd4647;
      }

      .cls-39 {
        fill: #9a1e35;
      }

      .cls-40 {
        fill: #97142d;
      }

      .cls-41 {
        fill: #9e152d;
      }

      .cls-42 {
        fill: #ca3145;
      }

      .cls-43 {
        fill: #ce1c2f;
      }

      .cls-44 {
        fill: #f7494f;
      }

      .cls-45 {
        fill: #86132b;
      }

      .cls-46 {
        fill: #fd4244;
      }

      .cls-47 {
        fill: #fdf8f0;
      }

      .cls-48 {
        fill: #fd2c35;
      }

      .cls-49 {
        fill: #cc1b30;
      }

      .cls-50 {
        fill: #130304;
      }

      .cls-51 {
        fill: #fc8886;
      }

      .cls-52 {
        fill: #8f172f;
      }

      .cls-53 {
        fill: #fd8685;
      }

      .cls-54 {
        fill: #e9303d;
      }

      .cls-55 {
        fill: #fd8b89;
      }

      .cls-56 {
        fill: #e14b58;
      }

      .cls-57 {
        fill: #96132b;
      }

      .cls-58 {
        fill: #be1a2f;
      }

      .cls-59 {
        fill: #a1172f;
      }

      .cls-60 {
        fill: #f88c8b;
      }

      .cls-61 {
        fill: #ed4e57;
      }

      .cls-62 {
        fill: #fe373c;
      }

      .cls-63 {
        fill: #fb474f;
      }

      .cls-64 {
        fill: #971d31;
      }

      .cls-65 {
        fill: #fd3238;
      }

      .cls-66 {
        fill: #f19494;
      }

      .cls-67 {
        fill: #c61c30;
      }

      .cls-68 {
        fill: #0c0810;
      }

      .cls-69 {
        fill: #fb9b9c;
      }

      .cls-70 {
        fill: #f09091;
      }

      .cls-71 {
        fill: #0a070f;
      }

      .cls-72 {
        fill: #b6192f;
      }

      .cls-73 {
        fill: #fd343c;
      }

      .cls-74 {
        fill: #ee2632;
      }

      .cls-75 {
        fill: #fd3d40;
      }

      .cls-76 {
        fill: #961d34;
      }
    </style>
  </defs>
  <g id="_Слой_1-2" data-name="Слой 1">
    <g>
      <path class="cls-71" d="M519.23,110.87c.66.03,1.33-.05,1.99,0,.68,7.32-8.1,8.82-12.77,11.71-3.63,2.24,6.08,2.39,7.19,2.26,1.51-.17,2.51-1.77,4.03-1.89,5.27-.38,12.36,4.82,7.55-6.09l5.99-1.02c-1.36,5.27,4.82,3.89,2,7.99,3.78-.67,5.36.8,7.98,3.01,1.48-3.57-3.49-3.26-2.98-5.48,2.99-1.22,4.73-3.95,6.55-5.44,7.39-6.05-.9,11.38-.14,12.91.43.86,2.69,2.67,3.56,2.01.46-3.76,1.09-4.6,5.01-4,.33-.21-4.55-5.57.49-5.98,7.55,4.16,1.93,11.31,2.58,13.34.43,1.34,2.67,1.57,3.38,2.69.79,1.25.39,3.75,1.47,4.52,1.28.92,4.68.04,7.03.96,5.43,2.13,7.87,10.34,8.55,10.46,1.4.26,3.29-3.74,6.45-.48,2.16,2.22-.12,2.49-.98,4.46,3.09.83,4.7,2.57,8,1-1.08-1.78-.68-4.15-1.55-5.94-3.08-6.3-20.78-22.39-26.39-29.54-1.79-2.28-1.75-3.93-2.04-4.47,2.4,1.67,4.56,3.82,6.51,5.98,37.46,41.45,73.94,84.31,109.55,127.22,5.04,11.63,1.93,18.91-4.76,28.56-8.94,12.89-22.15,27.15-32.41,39.52-61.14,73.73-123.44,147.04-186.28,219.33-27.71,31.88-56.69,66.72-85.92,96.9-10.94,11.3-21.6,21.32-38.71,13.71-10.52-4.68-38.8-36.52-48.23-46.67-88.14-94.85-172.33-200.83-255.24-300.72.88-6.17,4.57,3.1,4.96,3.57,2.71,3.19,13.22-1.31,16.29-.4,1.47.44,2.52,2.52,4,3.1,1.41.55,3.47-.5,3.68-.28.67.67.66,9.76,6,4.51-.99-4.51-5.66-6.4-7.63-8.84-.96-1.2-5.51-12.09-7.56-7.4-1.16,2.66-.95,7.14-5.26,7.34-5.18.24-6.11-3.72-8.11-6.49-1.85-2.56-4.84-2.2-3.4-8.1h-2.99c.54,3.63-.03,4.19-3.48,5.01-.91.21-.75,1.92-2.49-.5l4.99-5c.02-3.33-4.81-2.37-4.02-5.48,8.13.34,4.91-4.45,4.99-9.99-1.74.14-3.1,1.43-4.96.55-6.83-3.22,4.86-8.2,6.94-10.09s-.48-4.82,7.02-3.45l1.01,7.48-4.02-.04-.98,3.55h9.98s-3.99-1-3.99-1c1.81-5.41,15.13-3.37,12.35,2.03l-3.35.97c6.23-.56,8.91,4.38,14.98,4l-5-5.51c.5-4.36,6.74-5.7,8.46-1.53.42,1.03-.88,2.7-.02,4.03,1.27,1.97,4.96.86,2.56,6.02,2.88-2.75,4.51-1.59,7.99-.99l-1.02,2.98,13.99,2-3.99-6.98c3.02.71,7.33-3.5,9.87-1.88.73.47.41,3.68,1.75,3.96,3.58.72,10.81-4.86,10.36,4.91-2.76-.31-6.53-.02-7,3.48l8.02,3.99-2.03,1.53c-10.96-3.36-22-6.66-32.97-9.99-9.44-2.87-20.54-7.09-29.97-8.99-.32-.06-.67.05-1,0-2.45-.4-5.04-2.11-8.01-.52l3.01,5.51c-9.01,5.24-4.04,7.33-.12,12.63,2.37,3.2.23,5.91,8.11,5.35-2.27-4.12-.26-3.36,2-5.98,59.32,71.92,120.04,143.09,180.82,213.79,12,13.96,23.71,28.15,35.96,41.96,9.59,10.81,18.96,21.53,28.97,31.97,3.57,3.72,6.67,8,10.98,10.99-1.45-5.71-4.6-11.86-7.23-17.27-.51-1.06-1.66-1.52-1.75-1.71-12.41-25.33-24.35-51.14-37.96-75.93l-51.95-104.9-3.13-8.36c-11.74-21.57-20.96-44.64-33.84-65.57-.84-1.37-.47-4.49-3.27-5.22-9.77-3.34-19.82-5.79-29.69-8.76h7.99s-1-2.99-1-2.99c10.15,4.37,9.53-.23,15.96-6.5-2.2-2.48-4.27-4.7-7.71-5.27l.74-1.22c2.76.73,16.25,3.61,17.98,3,3.76-8.93,7.49-17.94,10.99-26.97,2.11.97.31,3.08-.13,4.36-3.07,8.77-8.06,17.47-8.87,26.61l-12.98-2.99,5.99,1.99c-.02,2.97-1.91,5.32-4.99,5,3.12,8.67,5.5,1.37,6.6,1.07,3.08-.84,1.9.51,7.13-1.83,1.14-.51,3.1.04,4.27-.71,2.12-1.36,2.3-9.53,3.48-11.5,1.3-2.16,7.9-3.06,6.47-.53-7.06,3.12-3.78,2.87-4.09,7.06-.14,1.86-2.82,3.79-1.89,6.43,5.16-.48,12.34-1.45,17.34.18,1.46.48,1.46,3.11,3.53,3.38,1.52.2,2.59-1.18,3.58-1.15,1.95.05,4.71,2.52,6.57,1.17,2.91-7.12-.23-3.47-3.54-3.56-3.57-.1-14.67-1.19-17.41-2.59-1.04-.53-1.83-1.59-2.64-2.42l9.32-25.72,1.23.74c-1.23,3.27-9.01,24.8-7.99,25.97.92.2,2.22-.21,2.99,0,10.53,2.92,31.34.61,43.5.96,37.53,1.07,74.73,2.2,112.35,2.04,41.16-.18,86.54.74,127.36-2.01,3.43-.23,7.06-1.32,10.55-1.45,1.41-.86.23-4.24-.05-5.53-2.17-9.99-7.63-19.57-10.99-28.97-9.53-26.68-18.46-58.6-30.5-83.88-1.28-2.69-3.06-7.67-6.46-8.03v-1c2.01-.14,3.52.9,3-1.99-5.56-2-6.21-1.55-11.49.01-1.2.35-4.3-.73-1.5,1.98l-3,1,.99-7.95c-3.84-2.47-4.74,1.29-6.45,1.58-.88.15-2.97-1.09-3.49-.6-.48.46.86,3.34-2.54,4.02-1.63.33-8.36-.62-9.51-1.53-2.03-1.6.75-6.46-7.44-1.49-1.24-.26-4.38-9.12-3.52-9.99,2.34.03,4.71-.42,6.98.52,2.51,1.04,4.12,6.49,6.49,6.51,5.78.06-.94-2.77-.47-5.03,1.87-.51,4.01,1,5.54.9,2.03-.14,8.48-2.76,10.89-2.96,6.42-.54,15.94,1.69,20.93,1.03,1.72-.23,4.01-1.13,4.6-2.96l-64.93,1c.06,1.85,2.74.75,4.1,2.38,4.41,5.29-5.06,7.44-6.03,3.98l.93-5.37h-55.95c1.85,2.57,2.13,5.27.94,8.24-.45,1.11-2.78.31-1.93,2.73,1.98-.04,4.8,1.51,5,3.53.04.42-2.83.5-2,2.48-1.66,0-3.33,0-5,0-.82-5.24-3.31-4.23-6.98-6.51l5.55-2.46-.56-8.02c-15.79.63-31.71-1.88-47.45-1.42-1.7.05-5.62.16-6.87.6-1.51.53-1.83,4.61-6.61,2.83l1.99-2c2.15-3.44-11.54-.26-12.36-.31-1.78-.11-3.75-1.54-6.11-1.69-3.67-.24-7,.89-10.49,0-.24-1.74,2.27-.94,3.48-.99,3.49-.13,7.02.03,10.5,0,13.39-.12,26.63.86,39.96,1,29.94.32,59.97,0,89.91,0,1.33,0,2.66,0,4,0,12.14,0,24.33.15,36.48.02,1.69-.02,4.44.64,5.48-1.02,7.16-.09,17.64.97,24.24-.24,9.47-1.74,33.6-14.11,43.69-18.74,4.33-1.99,8.7-3.9,12.99-5.99,5.06-2.46,11.29-3.75,13.99-8.99.41-.79,1.07-.78,0-2ZM527.22,133.85c-10.43,4.36-20.52,10.01-31,14.45-11.51,4.87-23.97,8.63-34.86,14.15-.52,1.71,4.86,8.91,5.93,11.36,2.37,5.43,4.83,11.47,6.99,16.98,11.99,30.51,21.49,62.54,33.97,92.91-2.22,1.19.61,5.94,1.55,6.94,2.39,2.55,8.7.19,7.02,7.08-2.11,8.64-8.11.53-10.6-.5-7.49-3.08-5.61,7.75-13.94,6.45,2.22-9.38-2.24-5.46-7.99-5.99-2.04,2.58,5.83,14.31-6.05,10.54-2.92-.93-4.17-4.92-7.41-4.62-2.45.22-5.99,8.06-6.52,8.06h-18.98l11.39-2.06c4.14-2.88,2.68-10.17-1.26-6.76-.49.42-.41,4.78-4.09,5.4-1.42.24-2.67-2.23-5.35-1.46-2.08.6-2.28,3.34-2.89,3.68-1.57.88-5.63-.54-7.79,1.2-.61-2.91.97-1.61,2.2-2.29,2.96-1.65,4.39-1.02,1.85-6.26-2.5-1.78-6.9.75-8.47.39-2.12-.49-1.88-4.54-3.26-4.86-.78-.18-12.94-1.02-13.77-.94-.68.07-6.13,2.02-5.53,3.45.99,2.35,12.7.66,14.97.52.7,3.37-1.96,7.17-5.49,7.1-2.03-.04-3.07-1.6-4.31-1.83-3.08-.57-13.49,2.53-14.75,5.69l-7.4-1.96-.53,3.04-18.46-.06,1.96-7.4-5.94-2.08,2.98-3.49h-6.99s1.99,4.96,1.99,4.96c-4.82.57-1.77,3.64-1.99,7.01-12.07,1.7-24.32.84-36.51.96-17.07.17-35.36.91-52.78-.12-5.19-.31-13.02.25-16.11-3.83l.5,2.98h-8.99s1.99-3.98,1.99-3.98c-5.5-.98-14.01-4.44-15.97,2.99l5.98-.99c-.17,1.34-1.37,1.77-2.55,1.96-6.36,1.03-16.64-.94-23.42.02,2.16-3.63,10.67-1.47,5.49-6.96-2.41,3.58-5.56,3.19-9.5,2.97v4.01c-4.65-.97-10.2.96-14.39.89-3.62-.06-8.59-6.51-11.1.12,3.62,2.78,5.45,9.34,7.99,13.99.27.5,1.74,4.19,2.52,1.97,1.52,2.99,3.46,5.94,5,8.99,33.08,65.68,65.05,132.01,97.9,197.81,2.77,5.55,5.19,11.41,7.99,16.98,1.87,3.72,4.14,7.33,5.99,10.99,3.52,6.96,22.66,49.41,26.49,50.94l12.47-19.97c3.13,3.08,3.24-4.3,3.99-5.47.25-1.09,1.34-.64,2.03-.05,3.49,2.96-1.16,12.93,5.28,19.2.97.94,2.95.96,3.72,1.77,1.73,1.84-.29,5.87,3.46,4.53,2.97-1.07-.41-3.47-.28-4.49s2.51-2,2.54-2.96c0-.28-1.81-5.06-1.97-5.29-.79-1.08-4.86-.8-4.83-3.72.02-1.9,2.56-2.75,2.82-4.11s-1.36-3.01-.34-4.42c1.15-1.59,4.37-.56,6.57-.96,5.75-1.05,10.81-9.52,14.99-13.99,51.62-55.19,100.96-115.98,149.85-173.83,34.58-40.91,69.68-81.42,102.79-123.55,1.66-1.85.44-2.3.11-3.32-.19-.59.59-1.97-.6-2.07l-7.39,1.07c1.84-3.11.29-7.6-3.99-6.98l2,7.97c-1.76-.24-3.87,1.26-5.4,1.09-.51-.06-.92-4.02-2.6-2.07-.26.31.65,2.35-.64,3.05-3.19,1.71-22.67,5.72-27.87,6.92-.56.13-1.62.31-1.46-.47l2.01-4.02-8.55-1.44c-2.65-5.39,5.77-3.04,6.53-5.55.72-2.38-3.06-3.53-1-4.97l5.99-1.49c.29.23-3.04,4.92,1,3.99.14-1.3-.63-3.21.59-4.13,4.27-3.19,22.09-4.74,27.87-6.87l-2.49-1c6-1.42,12.61-2.44,18.44-4.04,1.09-.3,1.84-.34,2.52-1.45l-30.44-37.48c-17.25-14.2-30.36-36.03-46.47-50.94-3.62-5.31-8.27-11.14-12.48-15.99-3.65-4.21-13.74-16.54-17.49-18.97-6.19-4.01-9.41,1.3-14.99,5ZM468.27,140.85c-.8-.63-14.72,5.25-15.98,7.48,3.45,3.68,6,.36,8.99-1.03,1.11-.52,3.08-.1,3.78-.68.29-.24,1.58-4.84,3.21-5.77Z"/>
      <path class="cls-68" d="M464.28,78.9c-.95-.12-5.18-.69-4.99.99,2.11.25,5.44.3,7.26,1.23,3.12,1.59,4.57,9.46,9.41,1.72,22.78,6.08,49.74,4.23,69.54,18.01,2.73,3.84,7.09,8.99,10.67,12.52,1.45,1.43,2.25,2.72,2.01-.51,1.66,2.11,2.16,1.47,4,5,.28.54.25,2.19,2.04,4.47,5.61,7.15,23.31,23.24,26.39,29.54.88,1.79.48,4.16,1.55,5.94-3.3,1.56-4.9-.18-8-1,.86-1.97,3.14-2.24.98-4.46-3.16-3.25-5.06.74-6.45.48-.68-.13-3.12-8.33-8.55-10.46-2.35-.92-5.75-.04-7.03-.96-1.08-.78-.68-3.27-1.47-4.52-.71-1.12-2.95-1.36-3.38-2.69-.65-2.02,4.98-9.17-2.58-13.34-5.03.41-.16,5.77-.49,5.98-3.92-.6-4.54.24-5.01,4-.87.66-3.13-1.15-3.56-2.01-.77-1.53,7.53-18.96.14-12.91-1.83,1.49-3.56,4.22-6.55,5.44-.51,2.22,4.46,1.91,2.98,5.48-2.62-2.21-4.21-3.68-7.98-3.01,2.82-4.1-3.36-2.72-2-7.99l-5.99,1.02c4.81,10.91-2.28,5.7-7.55,6.09-1.53.11-2.53,1.71-4.03,1.89-1.11.13-10.82-.02-7.19-2.26,4.68-2.89,13.45-4.39,12.77-11.71-.66-.05-1.33.02-1.99,0-6.75-.26-13.4-1.74-19.98-3,.27-3.69,5.44-4.82,7.98-3,.81-1-2.91-10.93-4.49-11.97l-2.49,3.96,2.97,1.52c-1.17,1.71-3.86,1.47-5.1,2.92-1.81,2.12,1.7,5.57-2.87,5.57-18.45-3.56-42.51-10.36-60.46-11.97-26.58-2.39-59.56.18-86.94.04-53.39-.28-94.01-3.12-146.85,9.9-1.66.41-3.46.25-4.46,2.03-1.97.42-4.38,1.45-6.99,2-9.25,1.92-18.6,3.72-27.97,5.01,1.41,1.98,4.61,4.69,6.65,5.85,1.77,1.01,3.49.72,4.34,1.13,14.06,6.72,45.94,21.09,60.12,24.29,5.57,1.26,10.74-.36,15.8,1.68-3.48.03-7.01-.13-10.5,0-1.21.05-3.72-.75-3.48.99,3.49.89,6.82-.24,10.49,0,2.36.16,4.33,1.58,6.11,1.69.82.05,14.51-3.13,12.36.31l-1.99,2c4.79,1.78,5.11-2.3,6.61-2.83,1.25-.44,5.17-.55,6.87-.6,15.74-.46,31.66,2.06,47.45,1.42l.56,8.02-5.55,2.46c3.67,2.28,6.16,1.27,6.98,6.51-28.2.01-56.28-.53-84.46-1.04-4.79.64-3.43,2.03-4.45,5.04-4.41,12.99-9.07,26.17-13.99,38.96-7.31,19.02-15.79,37.89-22.98,56.94l-1.23-.74-9.32,25.72c.81.83,1.6,1.89,2.64,2.42,2.73,1.4,13.83,2.49,17.41,2.59,3.31.09,6.45-3.56,3.54,3.56-1.86,1.35-4.62-1.11-6.57-1.17-.99-.03-2.06,1.35-3.58,1.15-2.06-.27-2.06-2.91-3.53-3.38-5-1.63-12.18-.66-17.34-.18-.93-2.64,1.75-4.57,1.89-6.43.31-4.2-2.96-3.94,4.09-7.06,1.43-2.53-5.17-1.63-6.47.53-1.19,1.97-1.36,10.14-3.48,11.5-1.18.75-3.13.2-4.27.71-5.23,2.34-4.05.99-7.13,1.83-1.1.3-3.48,7.6-6.6-1.07,3.09.32,4.97-2.03,4.99-5l-5.99-1.99,12.98,2.99c.8-9.14,5.79-17.83,8.87-26.61.45-1.28,2.24-3.39.13-4.36,2.42-6.23,4.61-12.7,6.99-18.98,2.94-7.75,10.06-22.69,10.99-29.97l17.98-45.96c1.37-2.36,1.72-4.08-.61-5.89-4.86-3.78-18.56-6.03-25.11-8.81-5.3-2.25-11.34-5.84-17.24-8.28-7.65-3.17-15.27-6-22.98-8.99-3.44-1.33-9.84-6.87-13.98-4.5L31.19,248.74l-.49,1.48c.31,1.52,11.01,2.69,13.62,3.39,5.81,1.55,11.57,3.49,17.35,5.12,15.59,4.41,31.41,8.46,46.95,12.99,13.83,4.02,28.36,10.37,41.96,13.99l-.74,1.22c3.44.57,5.51,2.79,7.71,5.27-6.43,6.27-5.81,10.87-15.96,6.5l1,2.98h-7.99c-9.67-2.91-19.32-6.02-28.97-8.98l2.03-1.53-8.02-3.99c.47-3.5,4.23-3.79,7-3.48.45-9.77-6.78-4.18-10.36-4.91-1.34-.27-1.02-3.49-1.75-3.96-2.54-1.63-6.85,2.59-9.87,1.88l3.99,6.98-13.99-2,1.02-2.98c-3.49-.6-5.12-1.76-7.99.99,2.4-5.17-1.29-4.05-2.56-6.02-.86-1.32.45-2.99.02-4.03-1.71-4.17-7.96-2.83-8.46,1.53l5,5.51c-6.06.38-8.75-4.56-14.98-4l3.35-.97c2.78-5.4-10.54-7.44-12.35-2.03l3.99,1h-9.98s.98-3.54.98-3.54l4.02.04-1.01-7.48c-7.5-1.37-4.91,1.53-7.02,3.45s-13.77,6.87-6.94,10.09c1.86.88,3.22-.41,4.96-.55-.08,5.54,3.13,10.34-4.99,9.99-.79,3.11,4.04,2.15,4.02,5.48l-4.99,5c1.75,2.42,1.59.72,2.49.5,3.45-.82,4.02-1.37,3.48-5.01h2.99c-1.44,5.9,1.55,5.54,3.4,8.1,2,2.77,2.93,6.74,8.11,6.49,4.3-.2,4.1-4.68,5.26-7.34,2.04-4.69,6.59,6.21,7.56,7.4,1.97,2.44,6.64,4.33,7.63,8.84-5.34,5.25-5.33-3.84-6-4.51-.21-.21-2.28.84-3.68.28-1.49-.59-2.53-2.67-4-3.1-3.07-.91-13.58,3.58-16.29.4-.4-.47-4.08-9.73-4.96-3.57-12.69-15.29-35.2-31.96-23.38-53.85,39.46-45.01,77.82-94.45,118.77-137.98,10.58-11.25,15.89-15.82,31.3-19.65,22.7-5.65,64.96-14.69,87.56-16.34,31.81-2.32,65.11.94,96.9,1.09,34.53.15,75.26-2.93,108.82.07,5.29.47,12.41,2.37,17.61,3.87Z"/>
      <path class="cls-47" d="M618.13,57.92c-11.91,3.87-20.61,10.25-24.48,22.98-2.7,8.87-1.45,19.91-7.99,26.96-3.66-2.56-4.04-6.15-5.45-9.26-.29-.64-2.01-.61-2.09-1.35-.26-2.24,1.82-5.91,1.02-9.68-.05-.23-.86-1.82-1.43-3.67-2.85-9.25-9.76-19.3-19.28-22.72-3.2-1.15-16.52-2.31-15.13-7.58,1.35-5.09,13.3-6.26,16.88-7.41,5.81-1.85,14.89-11.61,16.48-17.29.57-2.05-.77-3.53-.54-5.28.1-.74,1.84-.63,2.34-1.89,2.8-6.97,1.69-16.02,7.19-21.73,3.39-.11,6.74,22.82,7.4,26.6.2,1.18-.91,2.66-.71,3.21.04.12,1.38.17,1.79.86,4.34,7.4,8.32,9.1,13.74,14.6.53.54.08,2.19.35,2.57.41.57,12.43.66,13.9,2.1-1.05-.13-5.96-.72-5.99.99,4.47.01,11.14-.06,13.98,4-4.23.25-8.02,1.72-11.99,3.01Z"/>
      <path class="cls-22" d="M70.66,500.49c-1.63.82-.43,1.04-1.85-.65-.81-.96-5.85-7.59-5.99-8.07-.67-2.31.97-6.3.4-10.31-1.27-8.91-6.41-14.78-12.6-20.38-1.18-1.07-2.13-3.61-2.92-4.04-.71-.39-1.8.58-2.75.24-.24-.09-.27-1.58-.95-1.74-3.71-.83-4.41-1.1-7.09-1.93-2.14-.66-8.36-.46-8.11-3.43,4.16-7.64,14.43-6.51,20.81-11.22,15.71-11.59,10.69-22.62,16.86-37.08.45-1.05,2.42-5.59,4.17-4.3,5.51,12.19,2.41,26.62,11.45,37,2.31,2.65,5.36,3.27,5.6,3.52.88.9.63,2.63,1.27,3.16,5.8,4.76,18.62,2.2,24.63,7.77-.77,1.21-1.94,1.38-3.17,1.81-5.35,1.87-10.32,2.22-14.84,3.29-8.74,2.07-16.4,16.45-18.94,24.37-2.33,7.27-3.19,14.85-5.99,21.98Z"/>
      <path class="cls-31" d="M642.55,91.4c6.12,6.57,1.89,15.49,6.54,22.98,1.21,1.96,6.38,6.41,8.59,7.39,5.06,2.23,9.68-.03,13.37,3.6-10.82,3.84-19.51,5.44-23.27,17.67-.96,3.12-1.85,16.83-6.17,16.81-2.16-.01-3.48-10.62-3.95-12.05-1.84-5.54-4.57-12.97-9.62-16.35-3.18-2.13-13.11-2.4-13.79-5.2-1.05-4.29,9.18-5.18,12.58-7.16,12.28-7.16,7.46-19.24,14.78-29.18.65-.3.36.88.94,1.5Z"/>
      <path class="cls-71" d="M464.28,78.9c9.31,1.14,20,4.28,29.6,5.87,31.19,5.16,43.17,1.23,64.31,28.1.25,3.23-.56,1.94-2.01.51-3.58-3.53-7.94-8.69-10.67-12.52-19.79-13.78-46.76-11.94-69.54-18.01-4.85,7.75-6.3-.13-9.41-1.72-1.83-.93-5.16-.98-7.26-1.23-.19-1.68,4.04-1.1,4.99-.99Z"/>
      <path class="cls-24" d="M622.12,49.93c3.35.42,9.96,1.54,8.99,5.98l-12.99,2.01c3.97-1.29,7.75-2.76,11.99-3.01-2.84-4.06-9.51-3.99-13.98-4,.02-1.71,4.94-1.12,5.99-.99Z"/>
      <path class="cls-26" d="M70.66,500.49c2.8-7.13,3.66-14.7,5.99-21.98.17,4.94-1.52,19.71-5.99,21.98Z"/>
      <path class="cls-40" d="M383.36,349.64c1.9-5.43,3.54-10.58,5.46-16.02,1.51-4.27,4.94-9.09,5.54-13.96,6.45.83,13.61.14,20.28-.33,10.02-.71,17.49,1.76,26.01.98,1.92-.18,4.4-2,6-1.72.96.16.94,2.15,1.61,2.61,2.3,1.57,4.04-1.23,5.5-1.16.88.04,7.46.51,7.87.58.49.09.74,3.64,5.63,1.06-1.86,6.93-3.04,12.7,2,18.46-1.6,2.36-3.35-.28-5.56,1.42-2.5,1.93.02,4.63-.42,5.08-.2.2-2.72-.26-3.55.95-.2.29-2.23,6.41-2.28,6.76-.17,1.29,1.57,2.21,1.58,2.81.02,1.04-3.55,3.06-4.19,4.46-.37.8.58,2.05.21,2.75-.11.2-3.18,3.09-3.4,3.16-1.95.56-4.75-2.4-6.34.61,2.91.93,10.66,4.99,4.36,6.24-1.71.34-3.88-2-5.36.75,3.54,3.62.55,14.29-1.6,18.44-.42.82-2.38.83-2.45,1.63-.08.91,1.69,3.48,1.03,4.38-.24.33-3.11.16-4.1,1.72-1.54,2.44-.5,9.93-.88,10.3-.24.24-3.57-.53-4.58.93-.85,1.23-.07,3.82-.64,5.35-1.07,2.87-6.49,9.77-6.68,10.39-.4,1.27.6,2.84.27,4.33-.48,2.14-6.19,8.93-7.71,11.97-.59,1.19,1.15,4.4-2.64,4v-3c-7.26.71-1.17,2.87-2.01,7.99-3.29-1.24-4.25-2.28-7.99-.98,1.74,3.07,4.49,6.14,7.52,8.01,1.37.84,2.04-.76,1.46,2.96l-1.48-1.99c-3.37,2.53-7.4,4.39-11.49,3,1.95,4.49,4.55,8.73,3.97,13.96l-6.73,1.25-.82,2.26,1.57,4.5c-4.58,1.22-2.47-2.62-2.99-2.99-2.79-2-5.36,4.51-4.89,6.44.39,1.62,5.1,1.09,1.9,4.06-3.92,2.6-5.96-4.63-4.01-7.49-6.13-.25-6.33,8.41-5.99,12.98,2.67.34,2.53.05,3.49-2l2.51,3.98c-4.2-.74-3.25,2.58-4.29,3.72-.77.84-5.26,1.63-6.82,3.76s.83,4.12-.29,5.58c-1.01,1.31-5.04.56-5.39,2.4-.54,2.82,2.23,4.53,4.79,3.54.06,3.08-4.83,4.02-1.5,7.01,2.21,1.99,3.98-.2,6.49-.02v2.99c-4.12-1.23-8.39,4.23-11.96-.5l3.98-3.49c-3.41.59-8.57-3.6-9.79.71-1.37,4.85,4.95,14.93,9.78,9.27l2,6.99-2-2.99c-2.27.6-2.08,3.14-1.98,5l1.98-1.01-.99,10c-6.43,13.59-13.25,27.05-18.98,40.96l-12.47,19.97c-3.83-1.53-22.97-43.98-26.49-50.94,3.08,2.02,1.47.52,2.11-1.37,9.01-26.63,18.6-54.58,26.36-81.55,2.52-8.76,8.47-27.02,9.49-34.97,1.89-.66,2.02-2.4,2.51-3.98,9.69-30.88,17.8-62.37,28.46-92.92Z"/>
      <path class="cls-38" d="M213.52,165.82c.33,2.04-.38,3.56-1.11,5.37-5.3,13.12-9.85,26.39-14.87,39.58-3.11,8.17-7.01,16.23-10,24.46-.69,1.91-2.94,5.83-.99,7.51-2.38,6.28-4.58,12.75-6.99,18.98-3.5,9.03-7.23,18.05-10.99,26.97l-8.47-4.02c-12.48-3.73-24.93-7.52-37.49-10.97l-71.62-22.78-4.23-2.79c-.58-2.44,15.67-17.33,18.42-20.37,25.31-27.97,48.18-58.37,75.14-84.78,17.7,4.53,35.6,9.77,53.01,15.55,6.77,2.25,13.33,5.28,20.19,7.28ZM152.37,165.03c-16.61,1.63-19.76,19.21-1.34,13.72,10.28-3.06,12.73-14.84,1.34-13.72ZM133.33,200.02c-10.6,1.59-24.28,7.21-29.58,17.37-9.26,17.74,11.93,18.42,22.79,11.8,6.09-3.71,13.34-11.07,14.61-18.36,1.52-8.71,1.9-12.27-7.82-10.81Z"/>
      <path class="cls-3" d="M628.12,257.73l2.49,1c-5.78,2.13-23.6,3.68-27.87,6.87-1.22.91-.45,2.83-.59,4.13-4.03.93-.71-3.76-1-3.99l-5.99,1.49c-2.06,1.44,1.72,2.6,1,4.97-.76,2.51-9.18.16-6.53,5.55l8.55,1.44-2.01,4.02c-.16.77.9.6,1.46.47,5.2-1.19,24.68-5.2,27.87-6.92,1.29-.69.37-2.74.64-3.05,1.68-1.94,2.09,2.02,2.6,2.07,1.53.17,3.64-1.33,5.4-1.09l-2-7.97c4.29-.62,5.84,3.86,3.99,6.98l7.39-1.07c1.19.1.41,1.48.6,2.07l-49.95,11.99c-11.47.85-34.87,8.9-46.97,12.47-9.45,2.79-27.33,6.76-34.95,11.5-.85-2.01-4.7-1.89-6.29-2.95-1.73-1.16-1.84-5.08-5.7-4.04l.99,3.98c-7.27-3.43-10.89,2.49-8.99,9l-1.94-.96-1.06,2.94c4.41-.81,2.73,4.75,7.75,2.27,4.37-2.15,0-8.01,5.23-8.25-.67,5.21,4.4,4.5,3.5,8.98,3.92-5.5.15-7.03,6.5-10.98.26.61-.18,2.14,0,3l-1.46,1c-10.77,23.98-23.32,47.31-35.03,70.91-26.63,53.7-51.79,108.16-78.4,161.87-6.93,13.99-14.43,27.77-20.98,41.96-2.2.4-5.42-.63-6.57.96-1.02,1.41.59,3.12.34,4.42s-2.8,2.21-2.82,4.11c-.03,2.92,4.04,2.64,4.83,3.72.17.23,1.98,5.01,1.97,5.29-.03.96-2.41,1.93-2.54,2.96s3.25,3.43.28,4.49c-3.75,1.35-1.73-2.69-3.46-4.53-.77-.81-2.75-.83-3.72-1.77-6.44-6.27-1.78-16.24-5.28-19.2-.69-.59-1.78-1.04-2.03.05-.75,1.17-.86,8.55-3.99,5.47,5.73-13.91,12.55-27.37,18.98-40.96,36.82-77.8,76.82-154.5,112.89-232.77.62-1.34,4.36-8.66,3.99-8.99l-74.92,1.99c-8.3-.23-17.96-.66-25.97,1-30.62-.16-61.29.22-91.91,0-7.22-.05-14.72-.99-21.44-1.04-28.14-.2-56.36.29-84.45.05-.62.55,6.12,13.27,6.99,14.98-.78,2.22-2.25-1.48-2.52-1.97-2.54-4.64-4.37-11.21-7.99-13.99,2.51-6.63,7.48-.18,11.1-.12,4.19.07,9.74-1.86,14.4-.89v-4.01c3.93.23,7.07.61,9.48-2.97,5.18,5.5-3.33,3.33-5.49,6.96,6.78-.95,17.07,1.01,23.42-.02,1.18-.19,2.37-.62,2.55-1.96l-5.98.99c1.96-7.44,10.47-3.97,15.97-2.99l-1.99,3.98h8.99s-.5-2.98-.5-2.98c3.1,4.08,10.93,3.53,16.11,3.83,17.42,1.03,35.71.29,52.78.12,12.19-.12,24.45.73,36.51-.96.22-3.38-2.83-6.44,1.99-7.01l-1.99-4.97h6.99s-2.98,3.49-2.98,3.49l5.94,2.08-1.96,7.4,18.46.06.53-3.04,7.4,1.96c1.27-3.16,11.68-6.26,14.75-5.69,1.24.23,2.28,1.79,4.31,1.83,3.53.07,6.19-3.73,5.49-7.1-2.27.14-13.98,1.83-14.97-.52-.6-1.43,4.85-3.39,5.53-3.45.82-.08,12.99.76,13.77.94,1.38.32,1.15,4.37,3.26,4.86,1.56.36,5.97-2.18,8.47-.39,2.53,5.24,1.1,4.61-1.85,6.26-1.23.69-2.81-.61-2.2,2.29,2.16-1.74,6.22-.32,7.79-1.2.61-.34.81-3.09,2.89-3.68,2.69-.77,3.93,1.7,5.35,1.46,3.68-.62,3.6-4.98,4.09-5.4,3.94-3.41,5.4,3.89,1.26,6.76l-11.39,2.06h18.98c.53,0,4.07-7.84,6.52-8.06,3.24-.3,4.49,3.69,7.41,4.62,11.89,3.77,4.01-7.96,6.05-10.54,5.75.53,10.21-3.39,7.99,5.99,8.33,1.3,6.45-9.53,13.94-6.45,2.5,1.03,8.49,9.14,10.6.5,1.68-6.89-4.63-4.53-7.02-7.08-.94-1.01-3.77-5.75-1.55-6.94.33.8.71,1.36,1,2,1.09,2.38.34,5.11,4.36,4.97,4.5-.17,20.95-6.18,26.61-7.96l.76,1.24-22.73,6.76h5.98c.85.91-7.78,12.66,3.48,9l1.04.98-.52,1.99c5.54-.09,8.62-3.15,13.98-3,.43-1.69-1.45-.6-1.87-1.12s.79-2.38.45-3.88c-.46-2.03-2.86-3.6-2.56-5.97,8.56,3.77,4.11-7.3,13.4-7,.65.02.59,1.53,1.29,1.99,5.59,3.62,5.68,4.3-1.71,6.51,1.7,1.41,4.74,3.81,6.88,4.04,1.45.16,18.76-5.65,19.96-7.17,1.85-2.34,1.91-7.05,2.19-7.31.5-.45,2.94.4,3.8-.16.55-.36.7-3.33,1.45-4.59.4-.67,2.47-.98,2.69-1.79.89-3.34-5.79-1.7-6.99-3.49,13.25-3.79,26.56-7.74,39.96-10.99,1.99-.48,4.79-.48,6.99-1Z"/>
      <path class="cls-17" d="M439.3,165.82c3.4.35,5.18,5.34,6.46,8.03,12.05,25.28,20.97,57.21,30.5,83.88.36,3.11-.84,2.19-1.86.36-1.44-2.57-3.14-6.34-3.14-9.35l-3.47,3.99c-3.19-1.33,1.87-5.53-3.19-5.83-2.68-.16-2.79,4.75-.84,5.88-1.35,4.83-2.74.09-3.13-.03-6.62-1.91-1.54,7.14-2.49,10.31-.6,2.01-11.39,6.23-9.84,11.65,9.85,2.47,1.13,3.99.46,4.95-1.18,1.69-1.33,9.69-4.46,12.04h40.95s2.01-4.98,2.01-4.98c.28,1.3,1.46,4.68.05,5.53-3.49.13-7.12,1.22-10.55,1.45-40.82,2.75-86.2,1.83-127.36,2.01v-1c2.43-.1,4.9.3,7.33-.16,18.09-26.22,35.9-52.92,53.03-79.84,8.53-13.4,20.06-30.09,26.55-43.88.42-.88,3.57-3.14,1-4,.11,0,.98-1.1,2-1Z"/>
      <path class="cls-8" d="M301.44,414.58c.47,6.35-1.36,4.05-1.79,5.15-.21.55.96,1.99.58,3.07-1.65,4.68-8.86,16.53-12.3,19.77-2.31,2.17-4.69-.55-3.48,6.98-7.77-2.32-2.25,5.7-2.37,7.47-.06.91-1.96,2.14-1.71,3.94.11.75,2.05.79,2.51,1.59.92,1.6.3,3.77,2.07,4.96,1.21-1.47,4.12-3.87,6.02-3.64.33.04,5.22,3.51,5.39,3.8.45.8-1.16,2.67-.92,3.85,2.78-.25,3.99-2.44,6.98-1-1.04-5.06-6.9-4.97-5.98-10.98l8.35.92c2.65-.86.62-6.27,3.12-4.91,1.79.97,1.21,4.48,2.95,6.1,2.62,2.43,13.32-2.25,10.55-5.1-1.82-1.88-3.53,4.47-7.32,1.97-2.61-1.72,1.24-2.19,2.34-3.43,1.54-1.75,10.11-15.27,10-6.53,3.67-3.99,4.99,2.73,9.97,0,.21,2.05-1.15,4.67,1.99,4l5.02-11.98,3.13,7.9,3.85-.93c.32-1.84-1.99-2.92-2-4.48-.01-1.82,5.44-9.87,6.01-5.99.69,4.68-3,4.15-3.04,5.08-.05.98,1.26,2.7,1.04,4.4-1.02,7.95-6.97,26.2-9.49,34.97-7.76,26.97-17.35,54.92-26.36,81.55-.64,1.89.97,3.39-2.11,1.37-1.85-3.66-4.13-7.27-5.99-10.99,2.09-.98.37-3.07-.14-4.35-2.01-5.01-4.62-9.75-6.85-14.63-16.16-35.42-32.6-70.64-48.95-105.9,1.16.37,2.31,2.93,3.51,1,.91-1.47-2.37-3.52,1.47-2.98-.1,2.45,5.44,4.18,7.51,4.09,3.78-.16,4.61-4.91,9.49-2.12-1.11-2.64.1-5.04,2-6.99,1.2-1.22,5.16-4.39,6.99-5.99-2.03,4.89-2.38,5.94-1,10.99.18.67-.41,1.89.2,2.75.48.67,5.19,2.41,6.28,2.31,2.44-.23,3.1-3.44,4.51-5.06.63-.73,2.11-1.17,3.01-2.46,1.83-2.62,2.63-6.96,4.98-9.53Z"/>
      <path class="cls-43" d="M151.58,396.59c.25-1.54-2.47-2.91.5-3,3.92-.12,1.19,2.44,4.48,2,.91-1.72-.07-5.94.48-6.99.13-.25,3.78-4,4.07-4.03,5.15-.63,2.21,3.57,2.62,5.33.09.39,3.94,6.68,4.34,6.68.84,0,1.65-4.39,6.71-1.89,1.01.5.83,3.11,4.11,1.77s2.75-7.06,2.66-9.85c-6.75,2.16-5.31-.7-7.18-1.86-.9-.56-2.54.72-3.84.28-2.4-.81-10.76-7.13-11.43-7.14s-2.86,2.35-4.53,1.74c-.55.6,2.89,4.57.99,5.98-2.42,1.79-3.28-3.41-4.96-1.99-1.14,3.41-3.62,3.91-2.03,7.98l-6.91-7.59c-.59-3.3,4.83-.04,5.5-4.35.28-1.82-3.45-3.15,1.42-7.02l-4-.02,3.76-4.49-1.74-2,4.98-1.5c.84-3.35-2.4-1.02-3.05-2.64-.36-.9-.56-5.91.05-6.34l6.37,2.04c4.11-4.98-2.64-5.52-3.2-6.22-.47-.59-.69-6.31-1.17-7.82l5.97,5c2.87-6.73-2.93-4.94-3.98-9.99.53-.48,4.5,1.56,6.39.09,1.47-1.15-.92-4.59,6.6-3.09v2.99s-5,.99-5,.99c1.67.42,8.07.61,8.81,1.19.23.18,1.14,4.86,2.67,4.79,1.03-.05,1.93-4.79,4.49-3.97l-1.99,6.98,3.98-.99c.23,1.47-.01,3.44-1.5,3.98-3.22,1.18-1.56-2.75-4.47-1.98l-3.01,9.98,5.98-4c-.87,5.32,2.75,2.06,6.02,2.64.61.11,7.74,3.99,7.96,4.38.4.71-2.51,2.32-2.85,3.7-.51,2.04,1.08,3.89.72,5.58-.9,4.22-8.38,1.5-11.11,1.9-.99.14-1.7,1.8-3.22,1.83-.36,0-.22-3.63-5.84-1.01-3.82,1.77,4.52,4.7,4.81,6.89l6.51-2.92c-.33,5.89,4.07,2.02,7.48,5.01l1.52-2.49c-11.45-3.92-.58-4.13.83-5.75,1.01-1.16-1.58-3.9,3.27-2.34,2.69.87,1.59,2.52,2.84,4.12s4.05.77,3.04,4.45c-2.87-4.08-10.59,4.3-8.98,5.99l5.34-1.08c-.07.63,4.96,4.86,5.64,4.08,1.22-1.39-3.7-5.95-1.5-7.98,2.08,1.9,2.5,5.9,4.1,7.89s2.71,1.81,2.4-.9l51.95,104.9c-.75,5.7-3.2-5.8-6.01-3l1.02-1.98c-5.61,2.8-6.13-1.55-10.99-2-1.08,1.13,3.76,9.3-1.99,8.99-.02-2.25.03-3.38-2.49-4.03-3.83-.98-1.98,1.58-2.52,3.02-17.35-21.52-35.96-42.12-52.95-63.94-.21-.27.22-2.78-.94-3.52l-15.04-15.47c-4.33-5.33-8.55-10.74-12.99-15.98ZM166.57,348.65c-14.89-2.77-6.09,5.12-6.23,7.5-.05.82-1.94,1.65-2.22,2.54-2.11,6.76,3.51,5.1,3.47,8.42-2.31,1.41-4.63,2.12-3.96,5.45l6.94,3.05c-.09-6.72,8.91-4.91,10.01-11.49.39-2.33-3.5-1.86-5-2.5l-1.94,6.38-2.05.61c-3.01-4.97-6-8.03-2.79-14.26,1.2-2.33,4.71-2.05,3.78-5.71ZM172.56,397.59l-5.99,1.01,3,6.98c-3.21-1.17-7.3,2.57-3.49,3.99,2.69,1.01,2.33-1.73,3.13-1.9.95-.2,2.7,1.46,3.87-1.09l-.53-8.99Z"/>
      <path class="cls-17" d="M151.58,396.59c-22.68-26.77-47.15-52.75-68.91-80.44-2.69-3.42-15.81-19.67-14.92-22.8.68-2.4,5.97-3.19,8.13-2.42,30.03,7.59,59.61,16.72,89.23,25.7,1.82.55,2.75,2.37,2.45-.96,12.87,20.92,22.09,43.99,33.84,65.57l3.13,8.36c.31,2.71-.88,2.81-2.4.9s-2.01-5.99-4.1-7.89c-2.2,2.03,2.72,6.6,1.5,7.98-.68.78-5.71-3.45-5.64-4.08l-5.34,1.08c-1.62-1.69,6.1-10.07,8.98-5.99,1.01-3.68-1.74-2.78-3.04-4.45s-.15-3.25-2.84-4.12c-4.85-1.57-2.26,1.18-3.27,2.34-1.41,1.62-12.29,1.83-.83,5.75l-1.52,2.49c-3.41-2.99-7.81.88-7.48-5.01l-6.51,2.92c-.29-2.19-8.62-5.11-4.81-6.89,5.63-2.61,5.48,1.02,5.84,1.01,1.52-.03,2.23-1.69,3.22-1.83,2.73-.4,10.21,2.32,11.11-1.9.36-1.69-1.23-3.54-.72-5.58.34-1.38,3.26-2.99,2.85-3.7-.22-.39-7.35-4.27-7.96-4.38-3.28-.58-6.89,2.68-6.02-2.64l-5.98,4,3.01-9.98c2.91-.76,1.25,3.16,4.47,1.98,1.49-.54,1.74-2.51,1.5-3.98l-3.98.99,1.99-6.98c-2.56-.82-3.46,3.92-4.49,3.97-1.53.07-2.45-4.62-2.67-4.79-.75-.58-7.15-.77-8.81-1.19l4.99-.99v-2.99c-7.51-1.5-5.12,1.94-6.59,3.09-1.89,1.47-5.86-.57-6.39-.09,1.05,5.05,6.85,3.26,3.98,9.99l-5.97-5c.48,1.51.7,7.23,1.17,7.82.56.7,7.3,1.24,3.2,6.22l-6.37-2.04c-.61.43-.41,5.44-.05,6.34.64,1.62,3.89-.71,3.05,2.64l-4.98,1.5,1.74,2-3.76,4.49,4,.02c-4.87,3.87-1.14,5.21-1.42,7.02-.66,4.31-6.09,1.06-5.5,4.35l6.91,7.59c-1.59-4.07.89-4.57,2.03-7.98,1.68-1.42,2.54,3.78,4.96,1.99,1.9-1.41-1.54-5.38-.99-5.98,1.67.61,3.86-1.75,4.53-1.74s9.03,6.33,11.43,7.14c1.3.44,2.94-.84,3.84-.28,1.87,1.17.42,4.03,7.18,1.86.09,2.78.54,8.54-2.66,9.85s-3.1-1.27-4.11-1.77c-5.05-2.5-5.87,1.88-6.71,1.89-.4,0-4.25-6.29-4.34-6.68-.4-1.75,2.53-5.95-2.62-5.33-.28.03-3.94,3.78-4.07,4.03-.55,1.05.43,5.27-.48,6.99-3.29.44-.56-2.12-4.48-2-2.97.09-.25,1.46-.5,3Z"/>
      <path class="cls-57" d="M542.2,128.86c3.75,2.43,13.84,14.76,17.49,18.97,4.21,4.86,8.86,10.68,12.48,15.99-.41-.38-2.82-2.17-2.99-2l-1.09,6.4,7.08,2.6-3,7.97c2.87-1.86,7.59,1.19,7.95.98.27-.15-.74-2.96,2.03-1.97l-.99,4.98c3.57,1.23,2.8-4.22,5.05-.54,1.64,2.69-.44,5.42,3.94,4.55-1.71,1.88-2.66,1.47-1.98,4.94,6.82-1.12,4.14,4.88,6.51,8,1.49,1.95,4.85,1.25,5.39,4.6.38,2.34-1.82,1-3.41,2.42-3.05,2.72.7,5.76,3.82,5.07,1.14-.25,1.31-4.34,4.65-3.06,2.66,6.96-9.61,3.85-8.98,7.47.35,2,5.15,4.23,7.4,3.59,1.11-.32.52-4.97,3.58-4.07l1.02,3.98-4.08,1.64c1.76,4.87-1.03,9.83,6.06,9.37l1.99-4.99,1.35,6.69c-.88,2.4-6.8,2.35-6.33,6.28,4.02,1.84,4.39-3.24,6.47-2.99,3.28.39-1.43,4.07-.48,4.98l5.46-2c3.26,2.06-1.1,2.95-1.4,4.64l.36,1.38,7.56,3.99-.59,2.05-3.4,2.92,4.99,1c-2.82.35-7.41.09-9,3-4.02.45-10.8,2.04-14.99,3,8.32-2.8-2.46-6.68-5.54-6.96-5.75-.53-10.28,2.69-15.45,4.53-2.78-1.82-2.28-4.89-3.32-7.26-.17-.4-1.89-.57-2.29-2.22-.59-2.44.46-3.88.2-6.09-1.45-.27-4.86-3.93-5.19-3.95-.91-.05-2.37,1.38-3.42.57s-2.29-8.65-5.2-2.35c-1.99,4.31.4,6.05-6.25,8.72-3.35-3.96-2.23-8.79-1.56-13.34-1.23-2.55-2.86-.98-4.92-.63v-3.99c3.03-.55,5.9,4.57,7.98,0,1.24,2,4.76,5.56,7.29,4.85,3.06-.86,5.24-17.1,4.61-19.18-2.02-6.68-13.58,5.15-12.9,12.34-10.47,1.68-1.86-7.67-2.99-12.98l-8.03-.59-1.97,8.59c-4.26,1.17,1.6-6.53-3.99-4,2.09-8.55,4.32-24.13,5-32.97,1.65-1.04,1-3.79,1.02-5.48.17-13.23-.07-22.59-2.71-35.28-.78-3.73-1.42-7.49-2.3-11.19,1.17-.89,2.38-1.2,2-3Z"/>
      <path class="cls-53" d="M437.31,166.82c2.57.85-.58,3.11-1,4-7.38.2-15.13.33-22.47,1.01-15.11,1.4-37.06,3.52-51.46,6.98-8.68,2.09-13.73,6.79-18.98,13.99l-3.02,1.43c-23.73,23.59-49.37,45.28-73.43,68.48-2.14,2.06-14.15,13.65-14.46,15.01-5.84.92-1.41-3.57.02-5.47,14.07-18.66,33.37-39.26,48.93-57.47,9.26-10.83,20.76-20.89,28.96-32.48.76-1.08,3.33-3.81,1.01-4.48h-42.96c-3.75.08-8.6-.21-11.99,0l-15.99.49c-5.82,7.3-12.65,13.66-18.97,20.49-2.19,2.37-5.14,4.26-7.41,7.08-16.48,20.48-22.6,59.69-34.23,83.61-.5,1.02-1.24,1.3-2.31,1.24l2.98,1.98h-6.99c-.77-.2-2.07.2-2.99,0-1.02-1.16,6.76-22.7,7.99-25.97,7.19-19.06,15.67-37.92,22.98-56.94,1.01,2.51,1.44-1.08,1.7-1.78,3.36-8.7,13.25-29.48,14.28-37.18.94-1.92,1.4-1.9,3.4-2.07,20.12-1.65,46.5.91,67.53,1.07,20.22.15,41.33.67,61.49,0,1.92-.06,4.01,1.02,3.45-2,2-.02,4,.03,5.99,0,1.04,1.65,3.79,1,5.48,1.02,14.65.18,29.32-.18,43.97-.01,1.72-1.59-2.96-.99-3.49-1,2.96-1.81,8.24-1.03,11.99-1Z"/>
      <path class="cls-75" d="M308.43,99.88l-6.99,1.99c4.78-1.15,7.69.94,11.44,1.86.7.17,2.09-.84,2.95-.66,1.41.3,2.45,3.98,4.09,4.79,2.74-1.89-1.07-4.24,1.99-5.95,3.11,2.94,7.5.17,11.49.99-1.98,4.55-6.77.47-8.97,4.49,4.7,3.45,3.48,6.42,2.97,11.49-5.05-1.11-3.99-8.6-9.97-7.99-1.21,6,1.96,4.8,4.99,7.98-4.33,1.13-7.85-5.23-11.72-3.3-4.44,2.23-4.15,11.32-4.78,11.31-5.08-1.12-.33-3.87-.58-5.37-.09-.53-2.22-2.61-2.4-2.62-.72-.01-7.05,9.32-10.48,9.48l1.99,3.47c-4.59,2.5-5.93.89-9.45.47-4.43-.52-5.32,2.87-5.54-5.87-9.95-.53-1.97,5.96-1.95,7.9.05,4.37-5.11,1.43-6.59,1.63-1,.13-8,1.79-8.75,2.06-2.45.88-1.95,4.53-3.36,4.85l-25.3-.02c-.01,1.66,3.38,2,4.48,2,16,.12,32.68-.24,48.98-.03,1.69.02,4.43-.64,5.48,1.02-2.51.11-4.62-.99-4,2-13.33-.14-26.57-1.12-39.96-1-5.06-2.04-10.23-.42-15.8-1.68-14.18-3.2-46.06-17.57-60.12-24.29l78.52-18.88c19.06-2.12,38.23-1.6,57.35-2.1Z"/>
      <path class="cls-29" d="M42.69,273.71c-.61,2.96,1.49,1.75,3.18,2.27,7.37,2.26,14.71,4.77,22.11,6.92,1.44.42,3.58,1.89,4.68-.19,10.97,3.33,22,6.63,32.97,9.99,9.65,2.96,19.3,6.07,28.97,8.99s19.92,5.43,29.69,8.76c2.8.73,2.43,3.85,3.27,5.22.3,3.33-.63,1.51-2.45.96-29.62-8.97-59.2-18.11-89.23-25.7-2.16-.77-7.45.03-8.13,2.42-.89,3.13,12.23,19.37,14.92,22.8,21.76,27.7,46.24,53.67,68.91,80.44,4.44,5.24,8.66,10.66,12.99,15.98,5.13,6.3,9.85,13.4,15.98,18.98,16.99,21.81,35.6,42.42,52.95,63.94-1.47,3.98-3.26,3.01-5,7.99-.14.4-.65.74-1,1-60.78-70.7-121.5-141.87-180.82-213.79-.97-1.18-2.59-4.22-4-5.99l1.32-3.01c-2.25.42-3.01-.26-2.35-2.5.07-.24,3.87-.81,2.02-2.48-.88-.8-3.74,3.13-4.48-1.01-.36-2.02,1.52-.52,2.49-1.99.32.05.68-.06,1,0Z"/>
      <path class="cls-46" d="M241.5,198.79c6,1.73,1.31,4.14,1.03,7.53-.42,5.11,3.01,8.02,7.25,4.51,2.01-1.66.59-4.76,3.7-4.05-1.39,3.66,2.03,6.78,2.09,9.46.06,2.85-2.9,5.85-2.8,7.03.07.83,2.66,2.59,3.28,4.43,1.66,4.93-1.02,9.45,7.43,7.05.72,2.99-2.93,2.39-3.72,3.25-.71.76-.52,2.91-1.38,4.1-1.36,1.9-8.81,9.45-3.39,10.22.79.11,1.98-.75,2.87-.65s.1,3.03,2.63,2.05l-.53-7.01c1.48-1.01,8.27-2.8,8.5-.48-3.03,4.03-2.08,14.08-8.95,10.5-.84,1.69,2.19,2.6,1.56,3.99-.77,1.72-7.04,5.69-9.09,7.97-1.59,1.76-2.55,5.1-3.93,6.14-2.05,1.54-4.05-.84-5.58.29-.49.36-5.9,8.63-7.19,9.35-1.73.97-7.78.76-9.74,3.73,4.94,2.97,8,4.15,13.97,4.5,7.88.46,16.08.77,23.98,1,27.73.79,58.39,2.16,85.92,1v1c-37.62.17-74.82-.97-112.35-2.04-12.16-.35-32.97,1.96-43.5-.96h6.99s-2.98-1.99-2.98-1.99c1.07.06,1.81-.21,2.31-1.24,11.63-23.91,17.75-63.13,34.23-83.61,2.27-2.82,5.22-4.71,7.41-7.08Z"/>
      <path class="cls-36" d="M426.32,100.88c14.43,1.8,32.62,6.09,46.99,9.46,11.04,2.58,21.8,6.33,32.93,8.54l-1,2.99c-4.29,2.09-8.65,4-12.99,5.99-1.21-1.65-5.52.9-6.96,1.53-8.9,3.92-29.12,14.19-37.58,15.36-19.78,2.74-48.66.91-69.34,1.09-1.66.01-3.33-.01-5,0,1.93-4.88,7.47-9.52,11.51-12.96,11.27-9.59,24.19-16.03,35.34-25.6,1.8-1.55,3.8-4.76,6.1-6.39Z"/>
      <path class="cls-35" d="M544.2,183.8c-.67,8.83-2.91,24.42-5,32.97-4.21,17.24-16.09,51.09-23.98,66.93-2.8,5.62-2.55,7.55-5.5,1.02l-.49.98c-.29-.64-.67-1.2-1-2-12.48-30.37-21.97-62.4-33.97-92.91-.26-3.21.65-2.16,1.83-.33,2.11,3.25,2.68,6.06,4.16,9.32,1.07,2.37,3.14,4.41,3.69,6.8.64,2.81-.41,7.51,1.45,10.55,1.25,2.04,3.6,1.15,3.91,2.26.72,2.58.11,7.47,2.43,10.36,4.97-3.75.48-6.38.47-8.48,0-.63,1.77-.34,1.99-1.13.45-1.58-1.42-3.2,1.48-6.43,4.23-4.71,8.51.14,1.6,3.67l3.46,4.37c2.32-1.69,1.4-4.52,1.51-6.97,2.07,1.09,3.12,3.69,5.98,2.99l-.93-6.37c.71-2.3,4.47-1.25,4.88-1.67.52-.53-.79-4.97,1.57-5.94,2.77,2.65,5.42,3.51,8.95,5.01.81.06,1.44-5.67,4-5.01,1.98,2.89,3.02,6.39,6.5,7.99-.3-4.12-.44-10.46,5-7.99,1.39-3.4-2.68-3.34-2.99-4.51-.45-1.68,3.03-2.86,3.04-4.98.02-3.1-3.09-2-4.32-2.53-3.26-1.39.67-4.39,4.27-1.98-2.86-5.25,4.48-11.97,4.96-16.53.36-3.46-1.47-9.45.05-13.43,1.74-.23.94,2.27.99,3.48.24,6.18.46,14.45,0,20.49Z"/>
      <path class="cls-76" d="M644.1,274.71c.33,1.02,1.55,1.48-.11,3.32-33.11,42.13-68.21,82.64-102.79,123.55.7-3.44-2.16-1.17-2.91-.41-1.51,1.53-4.73,7.15-5.11,7.4-.35.24-3.42-4.28-7.51-.03-4.99,5.19,6.37,4.48-1.45,9.02l-1.5-3.97c-3.5,1.49-3.95,3.23-3.51,6.96l-4.47-2c-2.62,1.71-.9,3.59-.52,6-4.64-1.17-4.13,2.26-6.97,4.53-5.33,4.24-10.29,3.47-8.02,11.46l-3.48-1.98c-2.3,7.14-7.72,10.3-13.01,15.01-.88.78-2.25.75-2.49.96,22.35-27.77,45.67-54.31,68.42-81.93,4.61-5.59,11.34-11.25,14.5-17.97l35.93-41.72c1.39-6.19,8.92-10.1,11.07-13.65,1.44-2.38,1.9-6.53,2.95-8.57.13-.24,5.3-3.58,1.48-3.99-.63-.07-2.12,1.09-3.04.88-6.72-1.52-10.67-1.38-17.43-.88l49.95-11.99Z"/>
      <path class="cls-10" d="M296.44,316.67h72.93l-70.29.95c-1.28,4.56-2.27,5.66-7.31,6.66-14.1,2.8-35.09-.51-49.74,2.43l-27.57.39-1.02,3.05c12.06,30.96,23.67,62.87,37.05,93.42.68,1.54,1.08,3.02,2,5,16.35,35.26,32.79,70.48,48.95,105.9l-1,2c-32.85-65.8-64.83-132.12-97.9-197.81,2.34-1.01.21-2.96-.37-4.13-2.94-5.91-5.93-11.82-8.62-17.84,34.28-.02,68.62-.01,102.9-.01Z"/>
      <path class="cls-39" d="M541.2,401.59c-48.9,57.85-98.23,118.64-149.85,173.83-2.27-2.54,2.33-3.58,2.61-5.47.14-.92-1.06-2.7-.56-3.42.22-.32,4.63-1.03,5.43-3.03.32-.8-.02-7.8,1.52-10.05,20.09-22.17,38.4-50.09,57.97-73.4,6.27-7.47,15.21-19.56,21.95-25.5.25-.22,1.62-.18,2.49-.96,5.29-4.71,10.71-7.87,13.01-15.01l3.48,1.98c-2.27-7.99,2.69-7.22,8.02-11.46,2.85-2.26,2.33-5.7,6.97-4.53-.38-2.41-2.1-4.28.52-6l4.47,2c-.44-3.73,0-5.48,3.51-6.96l1.5,3.97c7.82-4.54-3.54-3.83,1.45-9.02,4.09-4.25,7.16.27,7.51.03.37-.26,3.59-5.87,5.11-7.4.75-.76,3.61-3.03,2.91.41Z"/>
      <path class="cls-1" d="M233.5,495.5c.53-1.45-1.31-4.01,2.52-3.02,2.52.65,2.46,1.78,2.49,4.03,5.75.31.91-7.86,1.99-8.99,4.86.45,5.38,4.8,10.99,2l-1.02,1.98c2.81-2.8,5.26,8.71,6.01,3,13.62,24.79,25.56,50.59,37.96,75.93.91,2.32-2.75,2.44-3.01,3.52l2.02,3.95-1.01.52c-10.02-10.44-19.38-21.16-28.97-31.97,2.37-.86-.25-2.7-.98-3.52-11.62-12.9-22.37-26.6-33.98-39.44,1.74-4.98,3.53-4.01,5-7.99Z"/>
      <path class="cls-72" d="M468.28,170.81c3.15-8.33,11.1-1.82,14.77-6.28.63-.76.03-2.5.22-2.72.28-.32,2.29.9,3.34.73,1.35-.21,3.41-2.65,5.46-3.41,2.98-1.1,12.02-2.12,13.16-2.83,2.8-1.75-.31-7.43,7.7-8.31,1.42-.16,6.05,5.74,6.56,7.11,1.83,4.92-4.31,9.85-3.26,14.71-2.85-1.56-6.98-.63-7.87,2.69-.99,3.71,6.29,3.88,4.87,8.3-11.35-3.71-7.24,3.3-8.08,4.84-.39.72-6.97,3.67-7.65,4.39-1.46,1.55-.65,5.98-3.24,7.3-3.86,1.98-11.87-5.73-13.99,2.45-1.48-3.27-2.05-6.08-4.16-9.32-1.19-1.82-2.09-2.88-1.83.33-2.17-5.51-4.62-11.56-6.99-16.98,1.48-.47.71-2.22,1-3Z"/>
      <path class="cls-68" d="M329.41,166.82c-.83-1.98,2.05-2.05,2-2.48-.2-2.02-3.02-3.57-5-3.53-.84-2.42,1.49-1.62,1.93-2.73,1.19-2.97.92-5.67-.94-8.24h55.95l-.93,5.37c.97,3.46,10.44,1.31,6.03-3.98-1.36-1.63-4.04-.53-4.1-2.38l64.93-1c-.59,1.83-2.88,2.73-4.6,2.96-5,.66-14.51-1.57-20.93-1.03-2.41.2-8.86,2.83-10.89,2.96-1.53.1-3.67-1.41-5.54-.9-.47,2.26,6.26,5.09.47,5.03-2.37-.02-3.99-5.47-6.49-6.51-2.27-.94-4.63-.49-6.98-.52-.86.87,2.28,9.73,3.52,9.99,8.19-4.97,5.41-.11,7.44,1.49,1.15.91,7.88,1.86,9.51,1.53,3.4-.68,2.06-3.56,2.54-4.02.52-.49,2.61.75,3.49.6,1.71-.29,2.62-4.05,6.45-1.58l-.99,7.95c-32.31.07-64.59.96-96.91,1Z"/>
      <path class="cls-41" d="M572.17,163.82c16.1,14.9,29.22,36.74,46.47,50.94l30.44,37.48c-.68,1.11-1.43,1.15-2.52,1.45-5.83,1.6-12.44,2.62-18.44,4.04-2.2.52-5,.52-6.99,1-.63-1.37-2.75-1.14-4-1,1.59-2.91,6.18-2.66,9-3l-4.99-1,3.4-2.92.59-2.05-7.56-3.99-.36-1.38c.31-1.69,4.66-2.57,1.4-4.64l-5.46,2c-.95-.91,3.75-4.59.48-4.98-2.09-.25-2.45,4.83-6.47,2.99-.47-3.93,5.45-3.88,6.33-6.28l-1.35-6.69-1.99,4.99c-7.09.46-4.3-4.5-6.06-9.37l4.08-1.64-1.02-3.98c-3.06-.9-2.47,3.75-3.58,4.07-2.25.64-7.05-1.58-7.4-3.59-.63-3.62,11.64-.51,8.98-7.47-3.34-1.28-3.51,2.8-4.65,3.06-3.12.7-6.87-2.35-3.82-5.07,1.6-1.42,3.79-.08,3.41-2.42-.54-3.35-3.9-2.64-5.39-4.6-2.37-3.12.31-9.11-6.51-8-.68-3.47.26-3.07,1.98-4.94-4.37.87-2.29-1.86-3.94-4.55-2.25-3.68-1.47,1.77-5.05.54l.99-4.98c-2.76-.99-1.76,1.82-2.03,1.97-.37.2-5.09-2.84-7.95-.98l3-7.97-7.08-2.6,1.09-6.4c.17-.17,2.58,1.62,2.99,2Z"/>
      <path class="cls-49" d="M487.26,286.7l-2.01,4.99h-40.95c3.13-2.36,3.27-10.36,4.46-12.05.67-.96,9.4-2.48-.46-4.95-1.55-5.42,9.24-9.64,9.84-11.65.95-3.16-4.13-12.22,2.49-10.31.39.11,1.78,4.85,3.13.03-1.95-1.13-1.83-6.04.84-5.88,5.06.3,0,4.51,3.19,5.83l3.47-3.99c0,3.02,1.7,6.78,3.14,9.35,1.02,1.83,2.22,2.75,1.86-.36,3.36,9.4,8.82,18.98,10.99,28.97Z"/>
      <path class="cls-56" d="M519.23,112.87c-2.69,5.24-8.93,6.53-13.99,8.99l1-2.99c-11.13-2.21-21.89-5.95-32.93-8.54-14.37-3.36-32.56-7.65-46.99-9.46-2.18-.27-5.25-.85-6.99-1,2.56-.34,5.94.54,8.3-.03.38-.09,3.34-2.81,6.68-2.97l84.92,15.98Z"/>
      <path class="cls-5" d="M495.25,106.88c1.04.2,2.4.69,4,1,6.58,1.26,13.24,2.74,19.98,3,1.07,1.22.41,1.21,0,2l-84.92-15.98c-33.56-1.55-67.27-1-100.9-1-12.64,0-25.32,0-37.96,0-13.8,0-27.66-.19-41.47-.02-1.69.02-4.44-.64-5.48,1.02-2.48-.49-4.76.7-6.99,1-14.26,1.88-30.66,5.97-44.96,8.99,1-1.78,2.8-1.62,4.46-2.03,52.84-13.02,93.46-10.18,146.85-9.9,27.39.14,60.36-2.42,86.94-.04,17.95,1.61,42.01,8.41,60.46,11.97Z"/>
      <path class="cls-7" d="M538.21,132.85c-15.28,9.55-31.59,16.74-47.98,24.21-6.88,3.14-15.09,5.33-21.67,9.54-2.42,1.55-3.71,2.44-.28,4.21-.29.77.48,2.52-1,3-1.07-2.45-6.45-9.65-5.93-11.36,10.9-5.52,23.36-9.28,34.86-14.15,10.48-4.44,20.57-10.09,31-14.45,4.3-1.8,6.33-2,10.99-1Z"/>
      <path class="cls-50" d="M439.3,164.82v1c-1.02-.11-1.89,1-2,1-3.75-.03-9.03-.81-11.99,1-15.25-.28-30.7-.2-45.96,0-2,.03-4-.02-5.99,0-21.55.26-43.25,1.29-64.94,1-7.71-.1-16.13-1-23.48-1h-24.98c-5.49,0-12.71-1.84-19.04-1.05-3.11.39-2.23,1.08-3.43,2.05-.72.59-1.31,1.37-2,2,1.02-3.02-.34-4.4,4.45-5.04,28.18.51,56.26,1.06,84.46,1.04,1.66,0,3.33,0,5,0,32.32-.04,64.59-.93,96.91-1l3-1c3.3-.16,6.7.22,9.99,0Z"/>
      <path class="cls-20" d="M397.34,547.45c2.82,2.01-3.21,8.65-1.99,9.98,2.01.08,3.67-2.54,4.99-3.99-1.53,2.26-1.2,9.26-1.52,10.05-.8,2-5.2,2.7-5.43,3.03-.5.73.7,2.5.56,3.42-.28,1.9-4.87,2.94-2.61,5.47-4.18,4.47-9.23,12.94-14.99,13.99,6.55-14.19,14.05-27.97,20.98-41.96Z"/>
      <path class="cls-61" d="M296.44,315.67v1c-34.28,0-68.62,0-102.9.01,2.69,6.01,5.68,11.93,8.62,17.84.58,1.17,2.71,3.12.37,4.13-1.54-3.06-3.47-6-5-8.99-.87-1.71-7.61-14.43-6.99-14.98,28.09.25,56.31-.25,84.45-.05,6.71.05,14.22.99,21.44,1.04Z"/>
      <path class="cls-63" d="M292.45,145.84c26.44-1.19,54.28.22,80.92,0,1.66-.01,3.33.01,5,0v2c-29.94,0-59.97.32-89.91,0-.63-2.99,1.48-1.88,4-2Z"/>
      <path class="cls-2" d="M492.25,127.86c-10.09,4.64-34.22,17.01-43.69,18.74-6.6,1.21-17.08.14-24.24.24-12.14.16-24.33-.17-36.48-.02-1.69.02-4.43-.64-5.48,1.02-1.33,0-2.66,0-4,0v-2c20.68-.18,49.56,1.65,69.34-1.09,8.46-1.17,28.69-11.44,37.58-15.36,1.44-.63,5.75-3.18,6.96-1.53Z"/>
      <path class="cls-60" d="M122.61,273.71c12.55,3.45,25.01,7.24,37.49,10.97l8.47,4.02c-1.73.61-15.22-2.26-17.98-3-13.6-3.62-28.13-9.96-41.96-13.99l1-1c4.3,1.17,8.99,1.9,12.99,3Z"/>
      <path class="cls-16" d="M228.51,503.49c11.62,12.84,22.37,26.54,33.98,39.44.73.81,3.35,2.66.98,3.52-12.25-13.81-23.96-28-35.96-41.96.35-.26.86-.6,1-1Z"/>
      <path class="cls-64" d="M294.44,570.42c.09.19,1.24.65,1.75,1.71,2.63,5.42,5.79,11.56,7.23,17.27-4.31-2.99-7.41-7.27-10.98-10.99l1.01-.52-2.02-3.95c.26-1.08,3.92-1.2,3.01-3.52Z"/>
      <path class="cls-68" d="M468.27,140.85c-1.63.93-2.92,5.53-3.21,5.77-.7.58-2.67.16-3.78.68-2.99,1.39-5.54,4.71-8.99,1.03,1.26-2.23,15.18-8.11,15.98-7.48Z"/>
      <path class="cls-42" d="M542.2,128.86c.38,1.8-.83,2.11-2,3-.53.4-1.38.61-2,1-4.66-1-6.69-.8-10.99,1,5.57-3.7,8.8-9.01,14.99-5Z"/>
      <path class="cls-68" d="M424.32,146.84c-1.04,1.65-3.79,1-5.48,1.02-12.15.13-24.34-.02-36.48-.02,1.05-1.65,3.79-1,5.48-1.02,12.15-.15,24.34.18,36.48.02Z"/>
      <path class="cls-54" d="M308.43,553.44c-2.81-5.58-5.22-11.43-7.99-16.98l1-2c2.23,4.88,4.84,9.62,6.85,14.63.51,1.28,2.23,3.37.14,4.35Z"/>
      <path class="cls-68" d="M429.31,164.82c-2.8-2.71.3-1.62,1.5-1.98,5.28-1.56,5.94-2.01,11.49-.01.52,2.89-.99,1.85-3,1.99-3.29.22-6.69-.16-9.99,0Z"/>
      <path class="cls-51" d="M149.59,134.85c-2.46.88.98,1.55,1.66,1.83,4.47,1.81,8.88,3.88,13.34,5.65,1.85.74,6.23,3.04,7.98,1.51,5.89,2.44,11.93,6.03,17.24,8.28,6.55,2.78,20.25,5.03,25.11,8.81,2.33,1.81,1.98,3.53.61,5.89-.67-.25-1.33-.8-2-1-6.86-2-13.43-5.03-20.19-7.28-17.41-5.78-35.31-11.02-53.01-15.55-26.95,26.41-49.82,56.81-75.14,84.78-2.75,3.04-19,17.93-18.42,20.37l4.23,2.79,71.62,22.78c-4-1.1-8.69-1.83-12.99-3-14.44-3.94-28.75-8.3-43.16-12.3-1.46-.4-3.81-1.59-4.79.31-5.79-1.64-11.54-3.57-17.35-5.12-2.61-.7-13.31-1.88-13.62-3.39l.49-1.48,104.42-118.39c4.15-2.37,10.54,3.17,13.98,4.5Z"/>
      <path class="cls-28" d="M295.44,95.89h37.96c33.63,0,67.34-.55,100.9,1-3.34.17-6.3,2.88-6.68,2.97-2.37.56-5.74-.31-8.3.03-5.55-.49-15.22-1-20.48-1h-78.92c-2.69,0-7.76.9-11.49,1-19.11.5-38.29-.03-57.35,2.1l-78.52,18.88c-.85-.41-2.57-.12-4.34-1.13-2.04-1.16-5.25-3.87-6.65-5.85,9.37-1.29,18.73-3.09,27.97-5.01,2.41,1.85,7.4.25,10.2-.29,13.84-2.67,27.91-7.65,41.75-9.7,17.68-2.61,36.1-.12,53.94-1.01l-3.48-.99h-43.47c1.04-1.65,3.79-1,5.48-1.02,13.81-.17,27.67.02,41.47.02Z"/>
      <path class="cls-32" d="M241.5,97.89v1c-13.84,2.04-27.91,7.03-41.75,9.7-2.79.54-7.79,2.15-10.2.29,2.62-.54,5.02-1.58,6.99-2,14.3-3.02,30.7-7.11,44.96-8.99Z"/>
      <path class="cls-11" d="M109.63,270.72l-1,1c-15.54-4.52-31.36-8.58-46.95-12.99.98-1.9,3.34-.71,4.79-.31,14.41,4,28.73,8.36,43.16,12.3Z"/>
      <path class="cls-71" d="M495.25,106.88c4.57,0,1.06-3.45,2.87-5.57,1.24-1.45,3.93-1.21,5.1-2.92l-2.97-1.52,2.49-3.96c1.57,1.04,5.3,10.97,4.49,11.97-2.54-1.82-7.71-.7-7.98,3-1.6-.3-2.96-.8-4-1Z"/>
      <path class="cls-21" d="M215.52,166.82l-17.98,45.96c.08-.65-.06-1.34,0-2,5.03-13.19,9.57-26.47,14.87-39.58.73-1.81,1.44-3.33,1.11-5.37.67.19,1.33.75,2,1Z"/>
      <path class="cls-13" d="M237.5,170.81c-1.03,7.7-10.92,28.48-14.28,37.18-.27.7-.7,4.3-1.7,1.78,4.92-12.8,9.58-25.97,13.99-38.96.69-.63,1.27-1.41,2-2-.06.65.09,1.35,0,2Z"/>
      <path class="cls-34" d="M197.54,212.77c-.93,7.28-8.05,22.22-10.99,29.97-1.95-1.68.3-5.6.99-7.51,2.99-8.24,6.89-16.29,10-24.46-.06.65.08,1.35,0,2Z"/>
      <path class="cls-37" d="M172.56,143.84c-1.74,1.52-6.13-.78-7.98-1.51-4.46-1.77-8.87-3.84-13.34-5.65-.68-.28-4.12-.95-1.66-1.83,7.71,2.99,15.33,5.83,22.98,8.99Z"/>
      <path class="cls-67" d="M395.35,316.67c-6.37,9.52-9.85,21.79-11.99,32.97-10.66,30.56-18.77,62.05-28.46,92.92-.5,1.58-.62,3.32-2.51,3.98.22-1.7-1.09-3.42-1.04-4.4s3.73-.4,3.04-5.08c-.57-3.88-6.02,4.17-6.01,5.99.01,1.56,2.32,2.64,2,4.48l-3.85.93-3.13-7.9-5.02,11.98c-3.15.67-1.78-1.94-1.99-4-4.99,2.74-6.3-3.99-9.97,0,.11-8.73-8.45,4.78-10,6.53-1.09,1.24-4.95,1.71-2.34,3.43,3.8,2.5,5.5-3.85,7.32-1.97,2.77,2.85-7.93,7.54-10.55,5.1-1.74-1.62-1.16-5.13-2.95-6.1-2.51-1.36-.47,4.05-3.12,4.91l-8.35-.92c-.92,6.01,4.95,5.92,5.98,10.98-2.99-1.45-4.2.75-6.98,1-.25-1.18,1.37-3.05.92-3.85-.16-.29-5.06-3.76-5.39-3.8-1.9-.23-4.81,2.17-6.02,3.64-1.77-1.18-1.15-3.35-2.07-4.96-.46-.8-2.41-.84-2.51-1.59-.25-1.8,1.65-3.03,1.71-3.94.12-1.77-5.41-9.79,2.37-7.47-1.21-7.54,1.17-4.81,3.48-6.98,3.44-3.23,10.65-15.09,12.3-19.77.38-1.08-.79-2.52-.58-3.07.43-1.1,2.26,1.2,1.79-5.15-.32-4.32,1.51-7.23-4.44-7.02-6.59.22-9.09,4.12-13.54,8.02-1.83,1.61-5.8,4.77-6.99,5.99,1.19-2.64,2.59-8.13,4.52-10.05,1.33-1.32,2.84.2,3.95-.88,1.23-1.2,2.3-5.85,2.57-6.04.37-.26,2.76.94,4.2.78,6.36-.71,7.77-7.68,8.35-7.85,5.57-1.6,3.87,1.97,5.46,4.44,3.8,5.89,5.31-.83,6.08-1.27.97-.55,2.58.81,3.86.34,1.11-.41,2.99-4.11,4.95-1.96l-2.99,4.5c1.68-.01,9.94-.46,6.99-3.99-.42-.5-3.89,1.32-2.99-2l9.98.99-7.32-4.93-.65-3.06c8.09,4.27,11.74-3.08,9.97-9.97l5-1.01-.99,3.98,3.5.04c.1-5,3.34-1.93,4.62-3.62.28-.37,2.85-8.42,2.81-8.94-.23-3.3-3.79-4.04,2.05-8.97.18-.53-4.16-.8-3.03-4.99,1.04-.64,5.08-2.18,5.72-2.8.52-.49.21-1.8.62-2.34.65-.86,2.49-1.19,2.69-1.87,1.09-3.83-6.69-3.2-7-3.49-.77-.72.17-10.5,3.99-9.99.46,2.91-3.66,4.82.03,6.47,1.93.86,5.12.96,7.01.03.31-.15,4.72-4.72,4.79-5.06.22-1.12-1.19-2.49-.38-4.4.87-2.05,5.74-3.68,6.54-5.54,1.23-2.89-6.15-2.85-5,2.51l-6-2.01,1.01-4.98c-18.9.91-38.08-.91-56.95,0,1.04-1.65,3.79-1,5.48-1.02,23.57-.29,54.27,2.21,76.92-2,2.15-.4,3.87-2.67,5.52-3.98,1-.02,2,.05,3,0Z"/>
      <path class="cls-59" d="M414.33,314.67c.18,0,1.59,1.03,3.38,1.07,22.81.52,45.82.04,68.55-1.07l-.99,6.99c-36.07,78.27-76.07,154.97-112.89,232.77l.99-10-1.98,1.01c-.1-1.87-.29-4.4,1.98-5l2,2.99-2-6.99c-4.83,5.65-11.15-4.43-9.78-9.27,1.22-4.31,6.38-.11,9.79-.71l-3.98,3.49c3.57,4.73,7.84-.72,11.96.5v-2.99c-2.5-.19-4.27,2-6.49.02-3.33-2.99,1.56-3.93,1.5-7.01-2.56.98-5.33-.72-4.79-3.54.35-1.84,4.39-1.09,5.39-2.4,1.12-1.46-1.26-3.46.29-5.58s6.05-2.92,6.82-3.76c1.04-1.14.09-4.46,4.29-3.72l-2.51-3.98c-.95,2.05-.82,2.34-3.49,2-.34-4.58-.14-13.23,5.99-12.98-1.95,2.86.09,10.09,4.01,7.49,3.2-2.97-1.51-2.44-1.9-4.06-.47-1.93,2.09-8.45,4.89-6.44.52.38-1.58,4.21,2.99,2.99l-1.57-4.5.82-2.26,6.73-1.25c.58-5.23-2.02-9.47-3.97-13.96,4.09,1.4,8.12-.46,11.49-3l1.48,1.99c.58-3.72-.1-2.12-1.46-2.96-3.03-1.87-5.78-4.94-7.52-8.01,3.74-1.3,4.69-.26,7.99.98.84-5.12-5.26-7.28,2-7.99v3c3.79.4,2.05-2.82,2.65-4,1.52-3.04,7.23-9.82,7.71-11.97.33-1.49-.67-3.07-.27-4.33.2-.62,5.61-7.51,6.68-10.39.57-1.53-.21-4.12.64-5.35,1-1.45,4.34-.69,4.58-.93.37-.37-.66-7.86.88-10.3.99-1.56,3.86-1.39,4.1-1.72.66-.9-1.11-3.47-1.03-4.38.07-.8,2.03-.81,2.45-1.63,2.15-4.15,5.14-14.82,1.6-18.44,1.49-2.75,3.65-.41,5.36-.75,6.3-1.25-1.46-5.31-4.36-6.24,1.59-3.01,4.39-.05,6.34-.61.22-.06,3.29-2.95,3.4-3.16.37-.7-.57-1.95-.21-2.75.64-1.4,4.21-3.42,4.19-4.46-.01-.6-1.75-1.52-1.58-2.81.05-.35,2.07-6.47,2.28-6.76.83-1.21,3.35-.75,3.55-.95.45-.44-2.08-3.14.42-5.08,2.21-1.7,3.96.94,5.56-1.42-5.03-5.76-3.85-11.53-2-18.46-4.89,2.58-5.14-.97-5.63-1.06-.41-.07-7-.54-7.87-.58-1.47-.07-3.2,2.72-5.5,1.16-.67-.46-.65-2.44-1.61-2.61-1.6-.28-4.09,1.55-6,1.72-8.52.78-15.99-1.69-26.01-.98-6.67.47-13.83,1.16-20.28.33-.6,4.87-4.03,9.7-5.54,13.96-1.93,5.43-3.57,10.58-5.46,16.02,2.14-11.17,5.62-23.45,11.99-32.97.99-.05,2,.05,2.99-.01v-.98s-9.98-.01-9.98-.01c8.02-1.66,17.67-1.23,25.97-1Z"/>
      <path class="cls-55" d="M133.33,200.02c9.72-1.46,9.34,2.09,7.82,10.81-1.28,7.29-8.53,14.65-14.61,18.36-10.86,6.62-32.05,5.95-22.79-11.8,5.3-10.15,18.98-15.77,29.58-17.37Z"/>
      <path class="cls-18" d="M152.37,165.03c11.39-1.12,8.95,10.66-1.34,13.72-18.43,5.48-15.28-12.09,1.34-13.72Z"/>
      <path class="cls-23" d="M516.23,312.68c4.36-.62,10.32,3.48,11.01-2,4.49,4.85,10.75-1.3,14.51-1.59.75-.06,1.79.99,2.9,1.11,3.89.41,4.69-.88,8.44,3.07,5.31,5.59-5.25,4.15-1,9,1.81,2.07,4.79.95,7.07,1.92,4.26,1.82,5,10.37,11,7.48,1,.99-3.58,8.46-4.59,9.93-.64.94-3.93,1.16-2.39,3.03.19.23,2.55.17,2.89,1.57.29,1.19-2.14,6.84-2.9,8.44-3.16,6.72-9.89,12.38-14.5,17.97-22.75,27.63-46.07,54.17-68.42,81.93-6.74,5.94-15.68,18.03-21.95,25.5-19.57,23.31-37.88,51.23-57.97,73.4-1.32,1.45-2.98,4.07-4.99,3.99-1.21-1.33,4.81-7.98,1.99-9.98,26.61-53.7,51.77-108.17,78.4-161.87,11.71-23.6,24.25-46.93,35.03-70.91l1.46-1c1.53,1.96,3.02-.86,4-1Z"/>
      <path class="cls-71" d="M581.16,269.72c1.2,1.79,7.89.15,6.99,3.49-.22.81-2.28,1.12-2.69,1.79-.76,1.27-.9,4.23-1.45,4.59-.86.56-3.3-.29-3.8.16-.28.26-.34,4.98-2.19,7.31-1.2,1.52-18.5,7.32-19.96,7.17-2.14-.23-5.18-2.63-6.88-4.04,7.39-2.21,7.3-2.89,1.71-6.51-.71-.46-.64-1.97-1.29-1.99-9.29-.3-4.84,10.77-13.4,7-.3,2.37,2.1,3.94,2.56,5.97.34,1.51-.85,3.39-.45,3.88s2.3-.57,1.87,1.12c-5.36-.15-8.44,2.91-13.98,3l.52-1.99-1.04-.98c-11.26,3.67-2.63-8.09-3.48-9h-5.98s22.73-6.76,22.73-6.76l-.76-1.24c13.69-4.3,27.11-9.03,40.96-12.99Z"/>
      <path class="cls-52" d="M613.13,290.7c-3.71-1.16-7.7-1.29-11.54-1.05-7.6.47-21.57,4.9-29.72,7.09-6.49,1.75-9.98,3.25-17.16,3.36-3.63.06-6.49,3.57-8.23,4.68-1.29.83-4.33-.19-5.68.8-.74.54-1.54,7.52-6.07,1.1l-18.51,6c-.97.14-2.47,2.96-4,1-.18-.85.26-2.39,0-3,7.62-4.75,25.5-8.71,34.95-11.5,12.1-3.57,35.5-11.63,46.97-12.47,6.76-.5,10.71-.63,17.43.88.92.21,2.41-.95,3.04-.88,3.81.41-1.36,3.75-1.48,3.99Z"/>
      <path class="cls-4" d="M617.13,257.73c1.24-.14,3.36-.37,4,1-13.4,3.25-26.71,7.2-39.96,10.99s-27.27,8.68-40.96,12.99c-5.66,1.78-22.11,7.8-26.61,7.96-4.02.15-3.27-2.59-4.36-4.97l.49-.98c2.95,6.53,2.7,4.6,5.5-1.02-.68,4.02,1.19,3.35,4.25,2.75,8.7-1.69,18.09-6.78,26.51-9.45,8.6-2.73,17.53-4.75,26.18-7.29,1.69-.5,3.61-1.61,5-2,8.13-2.29,16.82-5.12,24.98-6.99,4.19-.96,10.97-2.55,14.99-3Z"/>
      <path class="cls-71" d="M512.23,310.68c-6.35,3.96-2.58,5.48-6.5,10.98.9-4.49-4.17-3.78-3.5-8.98-5.24.24-.87,6.1-5.23,8.25-5.02,2.48-3.34-3.08-7.75-2.27l1.06-2.94,1.94.96c-1.9-6.51,1.73-12.43,8.99-9l-.99-3.98c3.85-1.04,3.97,2.88,5.7,4.04,1.58,1.06,5.44.94,6.29,2.95Z"/>
      <path class="cls-27" d="M414.33,314.67l74.92-1.99c.36.33-3.37,7.64-3.99,8.99l.99-6.99c-22.72,1.11-45.73,1.59-68.55,1.07-1.79-.04-3.2-1.07-3.38-1.07Z"/>
      <path class="cls-6" d="M388.35,315.67h9.99s0,.99,0,.99c-.99.06-2-.04-2.99.01s-2-.02-3,0c-7.64.18-15.34-.13-22.98,0h-72.93v-1c30.62.22,61.29-.16,91.91,0Z"/>
      <path class="cls-48" d="M436.31,170.81c-6.49,13.78-18.02,30.48-26.55,43.88-17.13,26.92-34.95,53.62-53.03,79.84-2.43.47-4.9.06-7.33.16-27.53,1.16-58.18-.21-85.92-1l-1.5-2c6.55.23,12.92.89,19.48,1,14.32.25,28.66-.4,42.95,0,.95-4.61-7.16-.12-7.98-1-2.36-4.6,2.9-9.77,2.98-11.45.1-2.33-4.89-7.71-3.97-8.52,6.14-2.6,6.76,8.49,9.49,7.96,4.46-.86-.43-4.35-.49-4.64-.36-1.65.15-3.61,0-5.33h-5.01s.01-2.99.01-2.99c11.84,4.33,10.32-13.95,20.97-10-.74-6.88-9.41.29-11.99-2,3.06-5.4-3.57-9.8,5.01-10.49l-5-5.97,4.99-4.5-6.5,1.97-1.1-2.04,2.11-5.9,3.96,3.95c6.32-4.61,2.84-5.19,2.45-9.44-.69-7.42,3.43-8.76-4.91-15.51,4.22-3.79,9.71-9.91,13.99-12.99,3.55-2.56,6.61-4.55,10.99-3.01l-2.98-3.49c3.31-3.73,6.34-6.52,10.97-8.49,14.4-3.46,36.35-5.58,51.46-6.98,7.34-.68,15.09-.81,22.47-1.01Z"/>
      <path class="cls-30" d="M304.44,323.66c18.87-.91,38.04.92,56.95,0l-1.01,4.98,6,2.01c-1.15-5.36,6.23-5.41,5-2.51-.8,1.86-5.68,3.5-6.54,5.54-.81,1.91.61,3.28.38,4.4-.07.34-4.48,4.91-4.79,5.06-1.89.93-5.08.83-7.01-.03-3.69-1.65.43-3.56-.03-6.47-3.82-.51-4.77,9.27-3.99,9.99.31.29,8.09-.34,7,3.49-.19.68-2.03,1.01-2.69,1.87-.41.54-.1,1.84-.62,2.34-.64.62-4.68,2.16-5.72,2.8-1.14,4.19,3.21,4.46,3.03,4.99-5.84,4.93-2.29,5.67-2.05,8.97.04.51-2.53,8.56-2.81,8.94-1.27,1.69-4.52-1.39-4.62,3.62l-3.5-.04.99-3.98-5,1.01c1.77,6.9-1.88,14.25-9.97,9.97l.65,3.06,7.32,4.93-9.98-.99c-.9,3.32,2.58,1.5,2.99,2,2.95,3.53-5.31,3.98-6.99,3.99l2.99-4.5c-1.96-2.15-3.84,1.56-4.95,1.96-1.28.47-2.9-.9-3.86-.34-.77.44-2.28,7.16-6.08,1.27-1.59-2.47.1-6.04-5.46-4.44-.58.17-1.99,7.14-8.35,7.85-1.44.16-3.83-1.04-4.2-.78-.27.19-1.33,4.84-2.57,6.04-1.11,1.08-2.62-.45-3.95.88-1.94,1.92-3.33,7.41-4.52,10.05-1.9,1.95-3.11,4.34-2,6.99-4.88-2.79-5.71,1.96-9.49,2.12-2.06.09-7.6-1.64-7.51-4.09-3.84-.54-.55,1.5-1.47,2.98-1.2,1.93-2.34-.63-3.51-1-.92-1.97-1.32-3.45-2-5l9.68-15.73c13.18-16.22,27.14-33.19,37.47-51.51,1.75-3.11,3.59-7.44,3.45-11.04-.16-4.18-6.03-17.28-5.56-18.96.84-3,6.53-2.54,8.91-2.66Z"/>
      <path class="cls-73" d="M293.45,426.56c-1.4,1.62-2.07,4.83-4.51,5.06-1.09.1-5.8-1.63-6.28-2.31-.61-.86-.02-2.08-.2-2.75-1.55-7.04,8.81-18.93,15.34-16.87,3.76,1.19-.35,4.04-.9,5.85-.41,1.35.43,3.06-.08,4.81-.72,2.48-3.02,3.66-3.37,6.21Z"/>
      <path class="cls-74" d="M301.44,414.58c-2.35,2.57-3.16,6.91-4.98,9.53-.9,1.29-2.37,1.73-3.01,2.46.35-2.55,2.65-3.73,3.37-6.21.51-1.75-.33-3.45.08-4.81.55-1.81,4.66-4.66.9-5.85-6.53-2.07-16.89,9.83-15.34,16.87-1.38-5.05-1.03-6.1,1-10.99,4.45-3.9,6.95-7.8,13.54-8.02,5.95-.2,4.12,2.7,4.44,7.02Z"/>
      <path class="cls-17" d="M166.57,348.65c.94,3.65-2.57,3.37-3.78,5.71-3.21,6.22-.21,9.28,2.79,14.26l2.05-.61,1.94-6.38c1.5.64,5.39.17,5,2.5-1.1,6.58-10.09,4.77-10.01,11.49l-6.94-3.05c-.67-3.33,1.65-4.04,3.96-5.45.05-3.32-5.58-1.66-3.47-8.42.28-.89,2.17-1.72,2.22-2.54.14-2.38-8.66-10.27,6.23-7.5Z"/>
      <path class="cls-17" d="M172.56,397.59l.53,8.99c-1.17,2.55-2.92.89-3.87,1.09-.8.17-.44,2.91-3.13,1.9-3.8-1.42.28-5.16,3.49-3.99l-3-6.98,5.99-1.01Z"/>
      <path class="cls-17" d="M164.57,412.58l15.04,15.47c1.16.74.73,3.25.94,3.52-6.14-5.59-10.86-12.68-15.98-18.98Z"/>
      <path class="cls-58" d="M544.2,183.8c.46-6.04.24-14.31,0-20.49-.05-1.21.75-3.71-.99-3.48-1.52,3.98.31,9.97-.05,13.43-.48,4.56-7.82,11.28-4.96,16.53-3.6-2.41-7.53.59-4.27,1.98,1.23.52,4.34-.57,4.32,2.53-.02,2.12-3.5,3.3-3.04,4.98.32,1.17,4.39,1.11,2.99,4.51-5.44-2.48-5.3,3.86-5,7.99-3.47-1.59-4.51-5.1-6.5-7.99-2.56-.66-3.19,5.07-4,5.01-3.54-1.5-6.19-2.36-8.95-5.01-2.35.97-1.05,5.41-1.57,5.94-.41.42-4.17-.63-4.88,1.67l.93,6.37c-2.86.7-3.91-1.9-5.98-2.99-.11,2.45.81,5.28-1.51,6.97l-3.46-4.37c6.91-3.53,2.63-8.38-1.6-3.67-2.91,3.23-1.03,4.85-1.48,6.43-.23.79-2,.51-1.99,1.13.01,2.1,4.5,4.73-.47,8.48-2.32-2.89-1.72-7.78-2.43-10.36-.31-1.11-2.67-.22-3.91-2.26-1.86-3.04-.81-7.74-1.45-10.55-.54-2.4-2.61-4.44-3.69-6.8,2.12-8.19,10.13-.48,13.99-2.45,2.59-1.32,1.77-5.75,3.24-7.3.68-.72,7.26-3.67,7.65-4.39.84-1.54-3.27-8.55,8.08-4.84,1.42-4.42-5.86-4.59-4.87-8.3.89-3.32,5.02-4.25,7.87-2.69-1.05-4.86,5.09-9.78,3.26-14.71-.51-1.36-5.14-7.26-6.56-7.11-8.01.89-4.9,6.57-7.7,8.31-1.14.71-10.18,1.73-13.16,2.83-2.05.76-4.1,3.19-5.46,3.41-1.06.16-3.06-1.05-3.34-.73-.19.22.4,1.96-.22,2.72-3.67,4.46-11.61-2.05-14.77,6.28-3.42-1.77-2.14-2.67.28-4.21,6.58-4.2,14.79-6.4,21.67-9.54,16.39-7.47,32.7-14.67,47.98-24.21.62-.38,1.47-.6,2-1,.88,3.7,1.52,7.46,2.3,11.19,2.64,12.7,2.88,22.05,2.71,35.28-.02,1.69.64,4.43-1.02,5.48Z"/>
      <path class="cls-33" d="M539.21,216.77c5.59-2.54-.27,5.16,3.99,4l1.97-8.59,8.03.59c1.13,5.32-7.48,14.66,2.99,12.98.01.11.86,1.77,1,2-2.09,4.58-4.96-.54-7.99,0v3.99c2.06-.35,3.69-1.92,4.92.63-.66,4.55-1.79,9.38,1.56,13.34,6.65-2.67,4.26-4.41,6.25-8.72,2.9-6.3,4.13,1.53,5.2,2.35s2.51-.62,3.42-.57c.33.02,3.74,3.68,5.19,3.95.27,2.21-.78,3.65-.2,6.09.4,1.65,2.11,1.83,2.29,2.22,1.04,2.37.54,5.43,3.32,7.26,5.17-1.85,9.7-5.06,15.45-4.53,3.08.28,13.86,4.16,5.54,6.96-8.16,1.87-16.85,4.7-24.98,6.99-2.52-2.9,4.48-5.42,5.99-4-2.91-9.59-9.95,1.14-10.98,6-8.65,2.54-17.58,4.55-26.18,7.29-8.42,2.68-17.81,7.77-26.51,9.45-3.06.59-4.93,1.27-4.25-2.75,7.89-15.85,19.77-49.7,23.98-66.93ZM571.17,266.72c.69-2.62-.83-7.24-3.65-7.77-6.76-1.27-1.45,8.72,3.65,7.77Z"/>
      <path class="cls-12" d="M557.19,227.76c-.14-.23-.99-1.89-1-2-.68-7.19,10.88-19.01,12.9-12.34.63,2.09-1.55,18.32-4.61,19.18-2.53.71-6.05-2.85-7.29-4.85Z"/>
      <path class="cls-75" d="M276.46,177.81c-.15,0-1.14.95-2.42,1.04-2.84.2-5.74-.21-8.57-.03l1.6,1.79c4.72-.65,12.36-1.68,16.87-.78,2.29.46,3.15,2.7,4.15,2.89,1.23.23,3.47-2.59,5.95-2.9,3.33-.42,6.9,1.65,10.41.99v2.99c-4.93-2.37-3.94,1.08-6.69,2.81s-7.14,2.03-10.3,1.2l3.99,3.55-1.98,6.43c13.01-.76,4.04,11.95,11.98,16.99-15.56,18.21-34.86,38.81-48.93,57.47-1.43,1.9-5.86,6.39-.02,5.47-.71,3.15,2.5,13.48,1.99,13.98-2.27,2.26-3.79-3.7-5.48-2.99-1.01.43-1.05,2.74-2.21,3.03-2.69.68-7.88-2.83-7.29.96-5.96-.35-9.02-1.52-13.97-4.5,1.96-2.97,8.01-2.76,9.74-3.73,1.29-.72,6.7-8.99,7.19-9.35,1.53-1.12,3.53,1.26,5.58-.29,1.38-1.04,2.34-4.38,3.93-6.14,2.05-2.28,8.31-6.25,9.09-7.97.63-1.39-2.41-2.31-1.56-3.99,6.88,3.58,5.92-6.47,8.95-10.5-.22-2.32-7.02-.52-8.5.48l.53,7.01c-2.54.98-1.71-1.94-2.63-2.05s-2.08.76-2.87.65c-5.41-.77,2.04-8.32,3.39-10.22.86-1.2.67-3.34,1.38-4.1.8-.86,4.44-.26,3.72-3.25-8.45,2.4-5.77-2.12-7.43-7.05-.62-1.84-3.21-3.6-3.28-4.43-.1-1.19,2.87-4.19,2.8-7.03-.06-2.69-3.48-5.8-2.09-9.46-3.11-.71-1.69,2.39-3.7,4.05-4.23,3.5-7.67.6-7.25-4.51.28-3.4,4.97-5.8-1.03-7.53,6.33-6.82,13.16-13.19,18.97-20.49l15.99-.49Z"/>
      <path class="cls-9" d="M343.4,192.79v1c-4.28,3.08-9.77,9.2-13.99,12.99-10.92,9.8-21.71,19.96-31.97,30.48,3.89,1.37,2.91,5.53,5.97,7.98l-5.95,2,3.95,1.55c-1.79,4.2,1.01,4.33,1.82,6.66,2.05,5.88-2.92,4.26-3.64,5.43-.54.86.16,3.23-.63,4.87-.64,1.34-2.9,1.54-3.58,2.66-1.44,2.37-.83,9.98-4.42,3.32-3.38,2.25-2.82,7.1-5.01,9.99-1.03,1.36-3.22,1.89-3.37,2.15-.24.42,1.01,6.79-1.12,8.83-6.56-.11-12.93-.78-19.48-1l1.5,2c-7.9-.23-16.09-.54-23.98-1-.59-3.79,4.6-.28,7.29-.96,1.16-.29,1.2-2.6,2.21-3.03,1.69-.71,3.21,5.25,5.48,2.99.5-.5-2.71-10.83-1.99-13.98.31-1.36,12.32-12.95,14.46-15.01,24.06-23.2,49.69-44.89,73.43-68.48l3.02-1.43Z"/>
      <path class="cls-19" d="M288.45,177.81c14.29-.32,28.66.24,42.96,0,2.32.67-.25,3.41-1.01,4.48-8.2,11.6-19.7,21.65-28.96,32.48-7.94-5.04,1.03-17.75-11.98-16.99l1.98-6.43-3.99-3.55c3.16.82,7.48.57,10.3-1.2s1.76-5.17,6.68-2.81v-2.99c-3.5.65-7.06-1.41-10.39-.99-2.48.31-4.72,3.13-5.95,2.9-1-.19-1.86-2.43-4.15-2.89-4.51-.9-12.15.13-16.87.78l-1.6-1.79c2.83-.18,5.73.23,8.57.03,1.28-.09,2.27-1.03,2.42-1.04,3.38-.21,8.24.08,11.99,0ZM301.6,202.66l.83-2.42c2.76-.02,4.24.86,6-1.97-.89-4.35-2.53-1-3.93-.9-1.85.13-5.44-1.38-6.05.94-.27,1,3.45,11.63,4.99,6.96.57-1.73,0-2.56-1.82-2.61Z"/>
      <path class="cls-66" d="M308.43,168.82v1c-21.03-.16-47.41-2.72-67.53-1.07-2,.16-2.46.15-3.4,2.07.09-.65-.06-1.34,0-2,1.2-.97.32-1.66,3.43-2.05,6.34-.79,13.55,1.05,19.04,1.05h24.98c7.35,0,15.76.9,23.48,1Z"/>
      <path class="cls-70" d="M373.37,167.82c.56,3.02-1.53,1.93-3.45,2-20.15.67-41.26.15-61.49,0v-1c21.69.29,43.39-.74,64.94-1Z"/>
      <path class="cls-65" d="M362.38,178.81c-4.63,1.97-7.66,4.76-10.97,8.49l2.98,3.49c-4.38-1.54-7.43.45-10.99,3.01v-1c5.25-7.2,10.3-11.9,18.98-13.99Z"/>
      <path class="cls-69" d="M425.32,167.82c.53,0,5.21-.59,3.49,1-14.65-.16-29.32.2-43.97.01-1.69-.02-4.44.64-5.48-1.02,15.26-.2,30.7-.28,45.96,0Z"/>
      <path class="cls-75" d="M331.41,177.81c-14.3.24-28.67-.32-42.96,0h42.96Z"/>
      <path class="cls-62" d="M419.32,99.88c1.74.15,4.82.73,6.99,1-2.3,1.63-4.29,4.84-6.1,6.39-11.15,9.57-24.07,16.01-35.34,25.6-4.04,3.44-9.58,8.08-11.51,12.96-26.64.22-54.48-1.19-80.92,0-1.05-1.66-3.79-1-5.48-1.02-16.31-.2-32.98.15-48.98.03-1.1,0-4.49-.35-4.48-2l25.3.02c1.4-.32.91-3.97,3.36-4.85.74-.27,7.75-1.92,8.75-2.06,1.49-.2,6.64,2.73,6.59-1.63-.02-1.95-8-8.43,1.95-7.9.22,8.74,1.11,5.35,5.54,5.87,3.52.42,4.86,2.02,9.45-.47l-1.99-3.47c3.43-.17,9.77-9.5,10.48-9.48.18,0,2.31,2.08,2.4,2.62.26,1.5-4.49,4.24.58,5.37.63.01.33-9.08,4.78-11.31,3.86-1.94,7.39,4.42,11.72,3.3-3.03-3.17-6.2-1.98-4.99-7.98,5.99-.61,4.93,6.88,9.97,7.99.51-5.07,1.73-8.04-2.97-11.49,2.2-4.01,7,.06,8.97-4.49-3.99-.81-8.39,1.95-11.49-.99-3.06,1.71.75,4.06-1.99,5.95-1.63-.81-2.68-4.49-4.09-4.79-.86-.18-2.24.83-2.95.66-3.76-.92-6.67-3.01-11.44-1.86l6.99-1.99c3.73-.1,8.8-1,11.49-1h78.92c5.26,0,14.93.51,20.48,1Z"/>
      <path class="cls-68" d="M42.69,284.7c1.41,1.77,3.02,4.82,4,5.99-2.26,2.62-4.27,1.86-2,5.98-7.88.56-5.74-2.15-8.11-5.35-3.92-5.3-8.89-7.39.12-12.63,2.18,1.46,4.38,3.96,5.99,5.99Z"/>
      <path class="cls-44" d="M41.69,273.71c-.97,1.47-2.85-.03-2.49,1.99.75,4.14,3.6.22,4.48,1.01,1.85,1.68-1.94,2.24-2.02,2.48-.66,2.23.1,2.92,2.35,2.5l-1.32,3.01c-1.62-2.03-3.82-4.53-5.99-5.99l-3.01-5.51c2.97-1.6,5.55.11,8.01.52Z"/>
      <path class="cls-44" d="M72.66,282.7c-1.1,2.08-3.24.61-4.68.19-7.4-2.15-14.74-4.66-22.11-6.92-1.69-.52-3.79.7-3.18-2.27,9.43,1.9,20.53,6.12,29.97,8.99Z"/>
      <path class="cls-45" d="M613.13,290.7c-1.05,2.04-1.51,6.18-2.95,8.57-2.15,3.55-9.68,7.46-11.07,13.65l-35.93,41.72c.75-1.6,3.18-7.26,2.9-8.44-.34-1.4-2.7-1.34-2.89-1.57-1.54-1.88,1.75-2.1,2.39-3.03,1.01-1.47,5.58-8.94,4.59-9.93-6,2.9-6.74-5.66-11-7.48-2.28-.97-5.26.15-7.07-1.92-4.25-4.85,6.31-3.41,1-9-3.75-3.95-4.55-2.66-8.44-3.07-1.12-.12-2.15-1.16-2.9-1.11-3.76.29-10.02,6.44-14.51,1.59-.69,5.48-6.66,1.37-11.01,2l18.51-6c4.53,6.41,5.33-.56,6.07-1.1,1.34-.99,4.38.03,5.68-.8,1.74-1.11,4.6-4.63,8.23-4.68,7.18-.11,10.67-1.61,17.16-3.36,8.15-2.19,22.12-6.62,29.72-7.09,3.85-.24,7.84-.11,11.54,1.05Z"/>
      <path class="cls-15" d="M392.35,316.67c-1.65,1.31-3.37,3.58-5.52,3.98-22.65,4.21-53.34,1.7-76.92,2-1.69.02-4.44-.64-5.48,1.02-2.38.11-8.06-.34-8.91,2.66-.47,1.68,5.4,14.78,5.56,18.96.14,3.6-1.7,7.93-3.45,11.04-10.32,18.32-24.29,35.29-37.47,51.51l-9.68,15.73c-13.38-30.55-24.99-62.46-37.05-93.42l1.02-3.05,27.57-.39c14.65-2.93,35.64.37,49.74-2.43,5.03-1,6.03-2.1,7.31-6.66l70.29-.95c7.64-.13,15.34.18,22.98,0Z"/>
      <path class="cls-25" d="M248.49,96.89h43.47s3.48.99,3.48.99c-17.84.89-36.26-1.6-53.94,1.01v-1c2.24-.29,4.51-1.49,6.99-1Z"/>
      <path class="cls-14" d="M333.41,95.89h-37.96c12.64,0,25.32,0,37.96,0Z"/>
      <path class="cls-57" d="M572.17,269.72c1.03-4.86,8.07-15.59,10.98-6-1.5-1.42-8.51,1.1-5.99,4-1.39.39-3.3,1.5-5,2Z"/>
      <path class="cls-65" d="M329.41,206.78c8.34,6.76,4.22,8.09,4.91,15.51.39,4.24,3.87,4.82-2.45,9.44l-3.96-3.95-2.11,5.9,1.1,2.04,6.5-1.97-4.99,4.5,5,5.97c-8.57.69-1.94,5.09-5.01,10.49,2.58,2.3,11.25-4.88,11.99,2-10.65-3.96-9.13,14.33-20.97,10v2.99s4.99,0,4.99,0c.16,1.72-.36,3.68,0,5.33.06.29,4.95,3.78.49,4.64-2.73.52-3.35-10.57-9.49-7.96-.91.81,4.08,6.19,3.97,8.52-.08,1.68-5.33,6.85-2.98,11.45.82.88,8.93-3.61,7.98,1-14.3-.39-28.63.25-42.95,0,2.13-2.05.87-8.41,1.12-8.83.15-.26,2.34-.8,3.37-2.15,2.19-2.89,1.63-7.74,5.01-9.99,3.6,6.66,2.98-.95,4.42-3.32.68-1.12,2.94-1.32,3.58-2.66.79-1.64.09-4,.63-4.87.73-1.17,5.7.44,3.64-5.43-.81-2.32-3.61-2.46-1.82-6.66l-3.95-1.55,5.95-2c-3.07-2.45-2.09-6.61-5.97-7.98,10.25-10.53,21.04-20.68,31.97-30.48Z"/>
      <path class="cls-57" d="M571.17,266.72c-5.1.95-10.4-9.04-3.65-7.77,2.81.53,4.33,5.15,3.65,7.77Z"/>
      <path class="cls-75" d="M301.6,202.66c1.83.05,2.39.88,1.82,2.61-1.54,4.67-5.25-5.96-4.99-6.96.62-2.32,4.2-.81,6.05-.94,1.4-.1,3.05-3.45,3.93.9-1.76,2.83-3.23,1.95-6,1.97l-.83,2.42Z"/>
    </g>
  </g>
</svg>