<svg width="332" height="447" viewBox="0 0 332 447" fill="none" xmlns="http://www.w3.org/2000/svg">
<path d="M245.77 140.81C252.96 147.79 260.46 158.29 265.23 167.12C270.43 176.77 274.04 187.22 275.75 198.08C274.48 197.67 272.26 197.07 270.93 197.24C270.64 197.42 268.42 202.82 268.26 203.43C255.21 132.89 173.82 99.6497 112.15 134.83C89.1295 147.96 66.2295 175.31 63.2695 202.36L62.1995 202.9C61.9895 200.79 61.8495 199.12 60.6095 197.23C60.1195 196.89 58.0195 197.34 57.3795 197.54H55.7695V196.47C56.4395 195.06 56.5195 191.56 56.9795 189.92C57.8395 186.92 59.4595 183.31 60.0495 180.41C60.1095 180.09 60.0095 179.69 60.0495 179.34C60.9795 178.86 60.8295 177.9 61.1195 177.2C65.4495 166.69 72.9595 154.53 80.3895 146.16C81.1995 145.24 82.6295 143.94 83.5995 142.95C84.2795 142.26 85.0495 141.47 85.7395 140.81C130.06 98.5397 201.57 97.8697 245.78 140.81H245.77Z" fill="#601821"/>
<path d="M212.05 92.6308V93.7008C212.73 93.8008 213.55 93.5808 214.19 93.7008C214.36 93.7308 214.56 93.6608 214.73 93.7008C214.64 94.8508 214.52 97.0708 213.91 97.9608C212.65 99.8108 207.52 98.7008 208.84 102.791C177.91 91.0908 141.09 93.2708 111.43 107.611C112.09 104.701 109.94 105.511 108.19 104.161C106.44 102.811 105.42 100.621 107.11 98.7408C107.94 97.8208 109.59 98.4908 109.28 96.9108C109.43 96.8608 109.64 96.9508 109.82 96.9108C110.29 96.8108 110.91 96.9808 111.42 96.9108L110.35 96.3808C111.94 95.1108 116.17 93.5908 118.24 92.7708C147.25 81.3208 183.08 80.5608 212.04 92.6408L212.05 92.6308Z" fill="#EF786F"/>
<path d="M239.88 227.512C239.88 230.032 237.73 230.782 236.7 232.212C235.87 233.372 234.52 235.532 234.51 236.792C236.63 237.542 236.73 239.832 237.99 240.912C238.71 241.532 239.89 241.542 240.73 242.452C241.98 243.812 241.59 246.312 244.7 245.712C242.39 246.772 237.1 254.912 235.76 257.372C231.85 264.532 228.46 273.452 225.18 281.042C218.48 296.512 206.67 320.132 207.78 336.702C206.04 336.362 207.01 337.722 206.56 338.692C206.45 338.932 204.18 340.802 203.66 340.882C200.66 341.362 198.61 337.392 194.94 339.372C195.09 338.152 194.68 336.602 194.94 335.462C195.04 335.032 195.91 335.322 196.04 334.332C196.21 333.072 196.28 330.302 195.46 329.212C196.37 325.312 198.08 321.232 199.49 317.452C208.49 293.322 219.72 264.762 230.69 241.602C233.2 236.312 235.78 231.622 239.88 227.512Z" fill="#90232C"/>
<path d="M80.3803 221.091C85.1503 221.811 89.3703 224.881 92.1603 228.581C94.1603 231.241 95.1603 234.791 96.6203 236.971C96.9003 237.401 98.5503 238.251 98.6003 238.581C98.8003 240.011 97.6503 240.811 97.4803 242.201C97.1803 244.691 98.5703 245.801 98.6303 247.571C98.6903 249.341 97.3603 252.301 98.8603 254.251C99.3003 254.821 100.4 254.771 100.98 255.341C103.07 257.341 100.59 260.131 97.9103 259.601C96.5203 259.331 96.5103 255.231 94.3103 255.331C94.2403 255.181 94.3803 254.941 94.3103 254.791C93.7603 253.551 93.6003 253.511 93.2503 252.811C91.7903 249.961 94.0503 248.841 93.5503 247.831C92.7103 246.151 91.3403 247.431 90.4103 247.201C89.2303 246.921 89.3903 245.971 86.2903 245.681C86.1203 245.661 85.9303 245.681 85.7503 245.681V244.611L82.8503 244.591C82.2203 244.601 82.6403 245.351 82.5403 245.681C79.3003 256.041 87.2103 276.551 91.1003 286.891C90.0303 288.921 88.3203 291.261 85.7503 290.641C85.2703 291.051 87.8903 294.551 86.2803 295.451C85.9703 294.671 84.6703 293.081 84.1403 291.701C78.4303 276.771 66.7703 246.611 72.2503 231.381C73.8303 226.981 76.9003 226.181 79.7303 223.381C80.6403 222.481 80.5303 222.341 80.3903 221.051L80.3803 221.091Z" fill="#9A222C"/>
<path d="M135.51 328.142C134.56 328.732 135.05 330.342 134.98 331.362H136.05C136.17 331.952 136.52 332.552 136.59 332.962C134.86 336.522 138.15 339.732 133.39 341.312C131 342.102 131.25 339.822 130.14 339.142C129.46 338.732 128.13 338.932 127.72 338.352C127.12 337.512 128.02 335.132 126.68 334.572C124.98 333.852 125.83 336.172 124.28 335.632C124.06 333.562 125.03 330.762 123.21 329.212C121.09 308.912 103.17 274.802 94.3102 255.352C96.5102 255.252 96.5202 259.352 97.9102 259.622C100.59 260.152 103.08 257.362 100.98 255.362C100.39 254.802 99.3002 254.852 98.8602 254.272C97.3602 252.322 98.6901 249.422 98.6301 247.592C98.5701 245.762 97.1802 244.712 97.4802 242.222C97.6502 240.832 98.8002 240.032 98.6002 238.602C98.5502 238.272 96.9002 237.412 96.6202 236.992C95.1602 234.802 94.1702 231.262 92.1602 228.602C96.8702 233.312 99.7002 239.852 102.42 245.902C112.88 269.192 124.57 296.702 133.09 320.672C133.95 323.102 134.9 325.662 135.51 328.152V328.142Z" fill="#90232C"/>
<path d="M290.19 230.73C308.45 245.07 309.5 268.2 303.04 289.07C301.35 294.53 298.67 301.01 296.62 306.73L296.35 304.05C294.13 305.34 289.31 305.96 287.53 303.78C286.09 302.02 288.39 300.53 286.46 298.42C283.35 295.02 278.01 297.68 277.35 292.81C277.63 292.33 277.91 289.94 278.42 289.06C279.39 287.38 280.6 285.44 281.63 283.71C286.13 276.13 291.45 271.63 294.48 262.84C298.75 250.43 296.4 241.67 290.2 230.73H290.19Z" fill="#C62E35"/>
<path d="M266.1 219.49C268.96 222.28 274.18 222.44 277.88 223.77C278.42 223.96 278.97 224.12 279.49 224.31C280.26 224.59 281.39 225.05 282.17 225.38C284.69 226.44 287.5 227.97 289.66 229.66L290.2 230.73C296.4 241.67 298.75 250.44 294.48 262.84C293.22 260.98 291.07 261.45 289.36 260.73C283.68 258.32 278.3 254.21 273.07 251.86C271.4 251.11 268.99 250.58 267.18 249.99C268.25 240.35 266.69 224.21 255.94 220.55C255.05 220.57 254.15 220.52 253.26 220.55L266.11 219.48L266.1 219.49Z" fill="#F07771"/>
<path d="M121.591 366.679C119.501 368.999 115.591 370.619 112.681 371.959C89.7806 382.479 71.9606 377.569 57.8906 357.049C59.5506 357.899 62.1706 359.999 62.1906 361.849C65.3906 360.969 73.0406 361.309 75.5506 359.449C76.1106 359.029 76.0606 357.929 76.6306 357.319C78.5506 355.309 84.4506 351.929 87.1706 350.739C89.6106 349.669 93.6006 349.589 95.3506 346.879C95.6806 347.559 96.7206 348.509 97.2306 349.549C100.431 356.019 101.541 361.949 108.591 364.949C112.951 366.809 117.001 368.359 121.581 366.679H121.591Z" fill="#A3232A"/>
<path d="M235.6 347.408C237.23 347.328 237.7 350.258 239.16 350.538C239.93 350.688 241.17 349.298 242.8 349.528C243.95 349.698 244.43 350.858 245.37 351.278C246.53 351.788 248.26 351.608 249.16 352.168C249.9 352.628 249.77 354.138 250.58 354.628C251.31 355.068 252.49 354.808 253.28 355.148C256.69 356.618 256.57 360.368 258.59 361.078C261.93 362.248 268.12 362.568 270.93 360.248C263.4 372.718 248.6 377.908 233.46 377.378C233.76 375.648 232.58 376.468 231.59 376.328C227.07 375.708 223.15 373.858 219.01 372.018C215.5 370.458 213.13 369.378 209.91 367.198L216.9 366.958C220 365.658 224.47 364.858 227.01 362.618C229.06 360.808 234.13 350.478 235.61 347.398L235.6 347.408Z" fill="#A3232A"/>
<path d="M34.8808 255.881C34.9108 256.331 34.8908 256.811 35.4208 256.951C35.4408 257.131 35.4108 257.311 35.4208 257.491C35.8108 262.131 37.9708 268.101 41.3108 271.411C41.5108 274.561 46.2708 278.031 47.9708 280.541C48.9208 281.951 49.4908 283.701 50.4108 285.321C51.7008 287.581 52.8408 290.011 54.1608 292.281C52.5808 292.081 53.0808 294.121 52.2608 295.471C49.2908 300.361 46.1008 295.221 42.3908 295.491C41.9108 297.241 43.6808 296.271 43.9408 296.591C44.3208 297.061 44.0408 299.361 43.1808 299.761C42.0808 300.251 42.2808 298.331 41.5808 298.161C39.4408 297.641 40.0508 301.061 40.3008 302.121C40.5808 303.351 42.1108 304.051 40.5108 305.111C38.4208 305.901 38.0108 301.551 38.6408 300.311L35.9708 299.771L37.0308 302.691L34.3608 303.511C33.8908 302.241 33.4908 299.891 32.2208 300.301C32.1908 300.131 32.2408 299.941 32.2208 299.761C32.1208 298.891 32.3008 297.961 32.2208 297.081H31.1508C31.1308 296.911 31.1708 296.721 31.1508 296.551C31.0408 295.681 31.2408 294.751 31.1508 293.871H30.0808C30.0608 293.701 30.1008 293.511 30.0808 293.341C29.9708 292.471 30.1708 291.541 30.0808 290.661H29.0108C28.9908 290.491 29.0308 290.301 29.0108 290.131C28.7008 287.481 28.2108 287.081 27.9508 286.021C27.6608 284.821 28.8508 281.781 26.8708 282.101C26.8508 281.921 26.8908 281.741 26.8708 281.561C26.3708 276.781 25.2108 271.111 25.2208 266.311C25.2408 257.111 27.9908 250.001 31.1508 242.491C33.0608 237.961 37.1508 233.281 41.3208 230.711C35.9508 238.861 34.1408 245.991 34.9008 255.871L34.8808 255.881Z" fill="#C62E35"/>
<path d="M40.7695 321.719C43.0695 325.159 44.3595 328.889 46.4495 332.909C46.7895 333.569 47.5195 334.009 47.8695 334.709C48.2495 335.469 48.1995 337.129 48.2995 337.219C48.4995 337.409 49.8595 337.119 50.5295 337.379C52.6595 338.199 55.9095 340.869 58.1395 340.469C59.6595 340.199 59.5795 338.689 62.4595 338.799C64.8295 338.889 64.7295 340.079 65.7695 340.379C67.5995 340.909 67.7795 339.459 68.6295 339.139C69.9295 338.659 71.5795 338.909 72.6495 337.809C73.7195 336.709 73.7095 333.509 75.0395 332.699C76.1795 331.999 81.9595 331.559 83.2595 331.969C84.5695 333.049 88.7095 337.879 90.0195 335.089C91.6695 338.739 93.6095 343.199 95.3695 346.869C93.6295 349.579 89.6395 349.669 87.1895 350.729C84.4595 351.919 78.5595 355.309 76.6495 357.309C76.0695 357.909 76.1295 359.019 75.5695 359.439C73.0695 361.299 65.4095 360.959 62.2095 361.839C62.1895 359.979 59.5695 357.879 57.9095 357.039C57.2295 356.039 54.7995 354.039 54.6995 353.829C54.5395 353.519 54.7595 352.239 54.2795 351.319C49.3495 341.769 44.0395 331.919 40.7795 321.719H40.7695Z" fill="#B0262D"/>
<path d="M246.299 323.32C247.519 324.41 245.879 326.29 245.879 327.45C245.879 330.04 249.669 328.73 250.619 329.45L251.409 331.39C253.599 332.14 254.369 327.69 256.939 329.29C257.589 329.69 258.149 336.03 257.549 337.25C261.789 335.51 260.559 339.85 263.599 340.6C265.399 341.04 267.049 340.19 268.939 340.59C270.829 340.99 274.099 342.61 275.769 343.41C278.949 344.93 278.639 340.05 281.639 341L281.699 338.9C281.869 338.67 282.609 338.94 282.709 338.86C281.199 342.15 280.069 345.82 278.429 349.03C276.359 353.08 273.669 356.67 270.939 360.27C268.139 362.58 261.939 362.27 258.599 361.1C256.579 360.39 256.709 356.64 253.289 355.17C252.499 354.83 251.329 355.1 250.589 354.65C249.779 354.16 249.909 352.65 249.169 352.19C248.259 351.63 246.539 351.81 245.379 351.3C244.429 350.88 243.959 349.72 242.809 349.55C241.179 349.31 239.939 350.7 239.169 350.56C237.709 350.28 237.239 347.35 235.609 347.43C236.119 346.37 236.329 344.43 236.679 343.68C239.839 336.95 243.349 330.19 246.309 323.34L246.299 323.32Z" fill="#B0262D"/>
<path d="M78.2408 220.559C77.3308 220.529 75.8108 220.409 75.0308 220.559C65.3708 222.439 63.8909 239.699 64.3309 247.319C60.8309 249.249 61.6108 244.809 58.2908 245.819C55.8408 246.559 51.0608 252.899 48.4208 254.159C45.1408 255.729 38.9008 255.299 35.4308 257.489C35.4208 257.309 35.4508 257.129 35.4308 256.949C35.3908 256.489 35.4208 256.049 34.8908 255.879C34.1408 246.009 35.9409 238.879 41.3109 230.719C41.4709 230.479 41.5208 230.089 41.8508 229.649C43.1308 227.939 45.3308 227.649 47.2008 225.899C49.0608 225.609 50.7808 224.879 52.5508 224.289C56.6308 222.929 62.6109 221.729 65.4009 219.469L78.2508 220.539L78.2408 220.559Z" fill="#F07771"/>
<path d="M250.58 221.09C250.51 222.29 250.25 222.57 251.23 223.42C253.15 225.08 256.62 226.64 257.99 228.93C261.67 235.09 260.18 246.98 258.98 253.85C258.65 255.77 256.55 266.63 254.85 266.58C253.3 264.84 253.84 268.23 252.39 268.67C249.72 269.47 251.11 266.24 251.06 265.3C250.81 261.07 249.69 258.22 249.5 253.2C249.39 250.11 250.19 243.18 244.68 245.71C241.57 246.32 241.96 243.82 240.71 242.45C239.87 241.53 238.69 241.52 237.97 240.91C236.7 239.83 236.61 237.54 234.49 236.79C234.49 235.54 235.84 233.37 236.68 232.21C237.71 230.78 239.87 230.03 239.86 227.51C243.05 224.31 245.82 221.86 250.56 221.09H250.58Z" fill="#9A222C"/>
<path d="M228.1 333.491C228.09 335.481 226.71 336.101 226.12 337.661C224.15 342.911 223.26 347.331 220.1 351.971C217.95 355.131 212.09 358.811 209.76 362.221L205.61 362.921V363.461C203.98 362.171 201.36 361.111 199.73 359.441C192.42 351.991 193.24 338.601 195.44 329.211C196.25 330.301 196.19 333.071 196.02 334.331C195.89 335.321 195.02 335.031 194.92 335.461C194.65 336.601 195.06 338.151 194.92 339.371C198.59 337.391 200.64 341.351 203.64 340.881C204.16 340.801 206.43 338.921 206.54 338.691C206.99 337.721 206.02 336.361 207.76 336.701C207.91 339.011 207.96 340.811 209.34 342.871C209.96 343.291 211 343.221 211.73 343.101C215.85 342.441 222.53 328.281 224.35 324.391C225.61 325.891 225.28 328.911 226.07 330.431C226.77 331.781 228.11 331.081 228.1 333.491Z" fill="#861D26"/>
<path d="M123.201 329.209C125.021 330.759 124.051 333.559 124.271 335.629C125.821 336.169 124.971 333.839 126.671 334.569C128.011 335.139 127.111 337.509 127.711 338.349C128.121 338.929 129.451 338.719 130.131 339.139C131.241 339.819 130.991 342.099 133.381 341.309C138.141 339.729 134.851 336.519 136.581 332.959C138.911 347.299 137.621 354.929 125.881 363.469C125.391 363.189 124.841 362.979 124.271 362.929C122.791 361.319 120.051 360.559 118.411 359.419C113.001 355.669 105.001 340.959 102.041 334.549C101.701 333.799 101.931 332.729 101.791 332.419C104.181 331.419 104.711 333.769 105.311 333.919C105.701 334.019 106.361 333.549 106.801 333.639C107.391 333.769 112.001 337.759 111.421 334.019C112.171 335.399 114.931 339.779 115.891 340.789C116.271 341.189 118.451 342.759 118.901 342.899C125.341 344.939 123.541 332.479 123.201 329.199V329.209Z" fill="#861D26"/>
<path d="M324.451 94.7814C315.501 101.391 313.931 117.881 300.611 117.281C300.061 117.261 295.771 116.761 297.151 115.651C304.511 115.031 309.991 108.071 312.671 101.731C305.321 103.851 288.511 115.431 281.621 114.351C273.341 113.051 265.871 97.7614 274.451 94.2814C281.721 91.3414 287.661 101.511 288.331 107.621L321.231 93.6914H324.451V94.7614V94.7814Z" fill="white"/>
<path d="M267.181 249.991C265.631 263.891 256.911 280.931 251.661 293.881L247.411 293.301L247.381 292.271C248.131 291.361 254.101 272.191 254.631 269.811C254.871 268.731 254.971 267.681 254.871 266.581C256.571 266.631 258.661 255.761 259.001 253.851C260.201 246.981 261.691 235.091 258.011 228.931C256.641 226.641 253.171 225.081 251.251 223.421C250.271 222.571 250.521 222.291 250.601 221.091C250.771 221.061 250.961 221.121 251.141 221.091C252.691 220.871 254.631 221.641 255.961 220.551C266.711 224.211 268.271 240.351 267.201 249.991H267.181Z" fill="#CB2D34"/>
<path d="M39.6912 101.729C32.7512 97.0888 25.1412 99.0188 18.8312 103.599C18.8212 104.549 33.5012 107.379 35.4112 107.879C37.3212 108.379 46.7512 110.839 47.5712 111.509C50.3812 113.799 50.0012 121.509 49.0612 124.739C45.2012 138.009 32.7712 131.259 36.9912 119.089C37.7112 117.019 38.9812 115.929 39.6912 114.029L2.20117 103.029L2.23117 100.669C10.8312 104.109 15.4612 99.4888 22.5712 96.6588C29.6812 93.8288 37.3512 93.1888 39.6912 101.739V101.729Z" fill="white"/>
<path d="M79.8411 221.089C80.0211 221.109 80.2011 221.059 80.3811 221.089C80.5211 222.379 80.6311 222.509 79.7211 223.419C76.8911 226.219 73.8211 227.019 72.2411 231.419C66.7611 246.649 78.4111 276.819 84.1311 291.739C84.0511 293.759 81.4611 293.859 79.8511 294.419C79.6911 294.479 79.4811 294.369 79.3111 294.419L68.6111 267.659C66.9411 260.919 64.7311 254.329 64.3311 247.319C63.9011 239.689 65.3811 222.429 75.0311 220.559C76.1311 221.639 78.3211 220.929 79.8511 221.099L79.8411 221.089Z" fill="#CB2D34"/>
<path d="M223.819 16.6301C224.269 16.7701 225.729 15.5601 225.799 15.4101C226.259 14.4101 225.309 13.0701 227.029 13.4201C227.299 16.4101 226.679 19.8901 227.019 22.8001C227.529 27.1801 229.369 32.1701 229.179 36.4301C229.179 36.6101 229.179 36.7901 229.179 36.9701H228.109C228.009 37.8301 228.239 38.8201 228.109 39.6501C228.079 39.8201 228.139 40.0101 228.109 40.1901C226.439 39.4101 225.039 46.0101 223.829 44.4701C223.329 43.8401 225.799 39.4001 225.939 38.2901C226.529 33.5801 225.059 29.9701 224.909 25.5201C224.969 25.0201 224.119 25.1201 223.829 25.2101C223.359 25.3601 223.059 25.6401 222.839 26.0701C218.479 33.2301 215.149 43.4401 210.549 50.2101C209.689 51.4701 207.709 53.0401 206.229 53.3001C205.419 53.4401 204.599 52.8901 203.849 53.0301C203.439 53.1001 203.529 54.0601 203.139 54.1401C202.459 54.2701 199.549 53.5801 198.659 53.3301C186.039 49.6701 186.079 35.3201 201.249 38.9701C204.239 39.6901 206.129 41.8201 208.559 43.4201L221.689 20.9401C222.859 21.3901 223.459 18.1401 223.829 17.1901C223.889 17.0301 223.769 16.8101 223.829 16.6501L223.819 16.6301Z" fill="white"/>
<path d="M28.9909 290.141C29.0109 290.321 28.9709 290.501 28.9909 290.681C29.0909 291.591 29.3609 292.711 30.0609 293.361C30.0809 293.541 30.0409 293.721 30.0609 293.901C30.1809 294.831 30.4109 295.921 31.1309 296.581C31.1509 296.761 31.1109 296.941 31.1309 297.121C31.2509 298.051 31.4809 299.141 32.2009 299.801C32.2209 299.981 32.1709 300.161 32.2009 300.341C32.9009 304.271 38.5509 318.431 40.7609 321.751C44.0209 331.951 49.3309 341.801 54.2609 351.351C54.7409 352.271 54.5209 353.551 54.6809 353.861C53.0009 354.011 52.3909 355.761 50.9309 356.541C49.4309 355.571 48.4309 353.701 47.5009 352.211C40.7609 341.481 36.1409 329.261 31.6709 317.461C28.8709 310.091 26.8709 304.201 24.7109 296.591C28.8909 296.281 28.1809 291.281 27.9209 288.031L28.9909 290.171V290.141Z" fill="#F8EEE7"/>
<path d="M307.32 294.95C305.41 302.16 302.97 308.86 300.36 315.82C298.78 320.04 297.31 324.53 295.54 328.67C293.05 334.49 289.58 341.67 286.53 347.23C284.91 350.19 283.05 353.74 280.55 355.97C280.04 354 279.92 351.94 280.04 349.9L278.41 349.01C280.05 345.8 281.18 342.13 282.69 338.84C285.54 336.57 290.47 321.44 292.32 317.43C293.47 316.35 295.87 308.78 296.6 306.73C298.65 301.01 301.33 294.53 303.02 289.07C302.6 292.16 303.89 294.93 307.3 294.96L307.32 294.95Z" fill="#F8EEE7"/>
<path d="M106.6 2.70969C108.83 4.50969 119.73 6.07969 123.19 6.98969C123.49 8.60969 122.37 8.01969 121.34 8.05969C117.86 8.19969 114.35 7.95969 110.88 8.05969C111.23 8.90969 111.43 9.83969 112.49 9.65969C116.67 18.0397 127.13 26.7697 131.14 34.6197C136.45 45.0197 115.31 58.6897 115.65 44.1797C115.76 39.4397 119.76 34.6297 124.25 33.4797C119.55 25.9697 114.09 18.9597 109.26 11.5397C108.42 10.2597 107.84 8.63969 107.13 7.50969C107.7 5.59969 106.14 5.99969 106.06 5.89969C105.9 5.70969 106.36 4.45969 104.99 4.82969C104.97 4.66969 104.99 4.45969 104.99 4.28969C105.01 3.75969 104.96 3.21969 104.99 2.67969H106.6V2.70969Z" fill="white"/>
<path d="M245.231 111.371C242.071 113.971 238.181 115.001 239.341 119.931C230.411 113.061 219.381 106.791 208.831 102.801C207.511 98.7109 212.641 99.8209 213.901 97.9709C214.511 97.0709 214.631 94.8609 214.721 93.7109C224.461 96.0509 237.371 105.141 245.231 111.371Z" fill="#E96F67"/>
<path d="M95.3604 332.42C101.06 344.74 109.19 361.79 124.26 362.93C124.83 362.97 125.37 363.19 125.87 363.47C124.27 364.63 124.32 365.68 121.59 366.68C117.01 368.36 112.97 366.8 108.6 364.95C101.55 361.95 100.44 356.02 97.2404 349.55C96.7304 348.51 95.6804 347.56 95.3604 346.88C93.6004 343.22 91.6604 338.76 90.0104 335.1C89.4704 333.9 89.1004 331.32 88.4004 329.75C91.2404 329.73 92.2904 333.2 95.3604 332.43V332.42Z" fill="#C83B41"/>
<path d="M219.001 372.031C223.141 373.871 227.061 375.711 231.581 376.341C232.571 376.481 233.751 375.651 233.451 377.391C232.931 377.371 231.841 376.191 231.041 377.381L223.181 393.881C217.761 393.271 219.751 393.191 217.491 397.021C215.611 400.211 213.561 403.221 211.511 406.301C210.731 404.571 209.871 402.731 208.301 401.481C210.361 398.261 212.181 394.781 214.131 391.481C214.271 390.311 212.461 390.341 212.121 389.351C211.221 386.761 218.861 375.671 219.011 372.041L219.001 372.031Z" fill="#601821"/>
<path d="M310.529 323.321L304.109 320.641C304.499 319.591 304.819 318.491 305.179 317.431C308.009 309.171 310.879 300.211 312.069 291.401C312.269 289.931 312.829 285.981 312.669 284.781C315.229 285.291 320.219 288.701 320.189 291.431C320.079 301.081 314.079 314.371 310.529 323.311V323.321Z" fill="#D63842"/>
<path d="M16.6797 285.32H18.8197C19.9297 297.32 22.6597 309.35 26.8497 320.65L20.4297 322.79C17.9297 316.49 9.19974 295.35 11.6097 289.62C12.2097 288.19 14.6697 287.23 15.6097 286.4L16.1497 285.86C16.3397 285.7 16.4897 285.48 16.6897 285.32H16.6797Z" fill="#D63842"/>
<path d="M35.9512 208.78L37.2212 209.28L48.7712 205.59C49.6312 209.03 50.6912 212.45 52.0012 215.75C52.2812 216.45 52.5512 217.09 52.5612 217.86C53.5212 218.71 63.4612 214.12 65.3812 215.21C64.2812 218.56 59.7412 218.45 57.1912 218.97C56.9312 219.02 54.4712 222.01 52.5612 221.12L52.5412 224.31C50.7712 224.9 49.0512 225.63 47.1912 225.92C47.6712 225.47 49.0412 225.23 47.9812 224.31L41.3012 226.46C39.7612 220.52 37.1412 214.87 35.9512 208.8V208.78Z" fill="#7F131D"/>
<path d="M47.7301 162.75L47.1901 167.03L55.2201 169.18C55.1401 169.67 55.1401 170.84 55.2201 171.32C53.9201 170.98 53.6601 173.17 53.3801 174.02C50.7501 181.99 49.1401 190.25 48.2601 198.61C47.8101 198.75 43.9701 200.43 43.3201 200.77C42.5801 201.16 43.2901 202.2 41.8401 201.82C42.0201 197.03 41.5901 192.16 41.8401 187.37C42.2801 178.85 44.7301 170.69 47.7301 162.75Z" fill="#C83B41"/>
<path d="M295.011 209.321C293.641 214.941 291.411 220.551 290.191 225.911L278.411 222.701C278.381 222.241 278.601 221.521 278.321 221.191C277.841 220.621 269.801 218.331 268.231 217.621C267.001 217.061 266.381 215.891 265.031 215.741C265.041 215.471 265.501 215.001 265.571 214.671L278.951 217.351C279.081 216.741 278.781 215.681 278.951 215.211C279.031 214.981 279.661 214.481 279.911 213.781C280.451 212.271 281.941 205.891 283.031 205.641L295.021 209.321H295.011Z" fill="#7F131D"/>
<path d="M283.771 163.821C284.981 165.531 285.611 168.211 286.181 170.241C287.831 176.101 289.761 183.761 290.191 189.781C290.481 193.811 289.651 198.871 290.151 202.651C290.311 203.831 291.151 203.301 291.801 203.951C290.991 203.821 289.981 204.051 289.121 203.951L289.661 202.881L282.771 199.331C282.401 190.811 280.561 181.531 277.881 173.441C281.561 172.241 282.081 169.571 284.081 166.771C283.741 165.801 283.901 164.731 283.761 163.801L283.771 163.821Z" fill="#C83B41"/>
<path d="M62.1803 202.891C62.2803 203.941 62.1003 205.051 62.1803 206.111H63.2503C63.2503 206.281 63.2403 206.461 63.2503 206.641C63.3503 207.871 63.1703 209.151 63.2503 210.391H64.3203C64.3703 210.551 64.2703 210.751 64.3203 210.921C64.5403 212.731 64.3903 212.231 63.1603 212.681C59.7403 213.941 55.6103 215.051 52.0103 215.741C50.6903 212.451 49.6403 209.031 48.7803 205.581L37.2303 209.271L35.9603 208.771C35.7403 207.661 34.8303 207.701 35.9403 205.801C37.1903 203.651 38.5803 204.291 40.2403 203.961C45.4503 202.911 52.5003 199.121 57.3703 197.541C58.0103 197.331 60.1103 196.881 60.6003 197.231C61.8303 199.121 61.9803 200.791 62.1903 202.901L62.1803 202.891Z" fill="#CB2D34"/>
<path d="M275.741 198.082C275.941 198.142 276.481 198.822 277.161 199.042C281.271 200.422 285.421 201.962 289.661 202.892L289.121 203.962C289.971 204.062 290.99 203.832 291.8 203.962C293.26 204.202 294.301 204.182 295.241 205.602C296.811 207.952 295.301 208.112 295.011 209.312L283.021 205.632C281.941 205.882 280.441 212.252 279.901 213.772C279.651 214.472 279.031 214.972 278.941 215.202C274.831 214.332 270.431 213.362 266.631 211.452C266.711 211.142 266.551 210.692 266.631 210.382H267.701C267.781 209.502 267.601 208.582 267.701 207.702C267.841 206.442 267.941 204.572 268.241 203.422C268.401 202.812 270.631 197.412 270.911 197.232C272.241 197.052 274.461 197.662 275.731 198.072L275.741 198.082Z" fill="#CB2D34"/>
<path d="M90.0099 108.158C92.2299 107.808 90.0499 110.678 90.0099 111.698C89.9099 114.288 94.2199 115.328 94.8199 117.788C92.4499 119.678 90.1699 121.708 87.8599 123.678C86.9499 124.448 86.3899 125.218 85.7199 125.818C82.4699 128.718 78.7199 131.638 75.5499 134.918C75.8099 131.058 70.4299 128.538 71.7999 124.748C77.6099 118.458 82.8399 113.298 89.9999 108.158H90.0099Z" fill="#E4625F"/>
<path d="M236.671 343.662C236.321 344.412 236.101 346.352 235.601 347.412C234.121 350.492 229.051 360.822 227.001 362.632C224.471 364.872 219.991 365.672 216.891 366.972L209.901 367.212C207.961 365.902 207.041 364.592 205.621 363.462V362.922C207.751 363.782 211.001 362.922 213.101 362.112C221.041 359.012 228.631 347.292 232.381 339.912C236.461 339.092 233.761 343.432 236.661 343.662H236.671Z" fill="#C83B41"/>
<path d="M62.1795 136.522C62.0595 136.812 62.3395 137.672 62.1595 138.262C61.9995 138.792 59.5595 141.022 59.6295 142.582C59.7895 146.232 63.9995 145.632 63.2495 151.512C62.6695 156.062 56.0595 163.892 55.2195 169.172L47.1895 167.022L47.7295 162.742C51.2095 153.532 55.9495 144.122 62.1795 136.512V136.522Z" fill="#D94A4A"/>
<path d="M275.2 145.09C277.9 149.62 283.05 158.81 283.76 163.82C283.89 164.74 283.73 165.82 284.08 166.79C282.07 169.59 281.55 172.26 277.88 173.46C275.37 165.88 270.37 155.6 266.1 148.84C267.78 146.02 268.71 150.04 271.73 148.88C274.02 148.01 273.58 146.41 275.2 145.09Z" fill="#D94A4A"/>
<path d="M245.23 111.371C251.52 116.361 256.55 120.941 261.82 126.891C260.53 128.451 262.83 127.421 262.38 129.291C261.58 132.621 259.44 129.011 258.35 129.021C257.84 129.021 253.81 131.411 252.72 131.711C249.21 127.991 243.43 123.081 239.34 119.931C238.18 115.001 242.07 113.971 245.23 111.371Z" fill="#E4625F"/>
<path d="M275.201 145.091C273.591 146.411 274.021 148.011 271.731 148.881C268.711 150.031 267.781 146.021 266.101 148.841C263.441 144.621 260.121 141.311 257.001 137.601C255.731 136.091 254.011 133.081 252.721 131.711C253.811 131.411 257.841 129.021 258.351 129.021C259.441 129.021 261.571 132.611 262.381 129.291C262.831 127.421 260.531 128.451 261.821 126.891C266.851 132.571 271.311 138.561 275.201 145.091Z" fill="#DF5756"/>
<path d="M50.9411 356.51C49.0611 357.52 48.7011 356.39 46.9311 356.46C45.7911 356.51 44.1011 356.83 42.9111 357.04C44.2411 354.81 42.3011 354.26 42.0211 353.65C40.0311 349.31 37.4011 345.13 35.4111 340.98C35.2411 340.62 35.0411 340.26 34.8711 339.91L34.3311 338.3C31.9511 333.14 29.4011 327.02 27.3711 321.71C27.8011 318.55 30.1711 319.61 31.6511 317.43C36.1211 329.22 40.7511 341.45 47.4811 352.18C48.4211 353.67 49.4111 355.54 50.9111 356.51H50.9411Z" fill="#601821"/>
<path d="M109.28 96.9219C109.59 98.5019 107.93 97.8319 107.11 98.7519C105.41 100.632 106.42 102.802 108.19 104.172C109.96 105.542 112.09 104.722 111.43 107.622C109.03 108.782 96.2097 116.202 95.3697 117.792H94.8297C94.2197 115.332 89.9096 114.282 90.0196 111.702C90.0596 110.672 92.2396 107.812 90.0196 108.162C94.8896 104.662 103.73 98.6319 109.29 96.9219H109.28Z" fill="#E96F67"/>
<path d="M75.5604 134.918L63.2504 151.508C64.0004 145.628 59.7904 146.228 59.6304 142.578C59.5604 141.008 61.9904 138.778 62.1604 138.258C62.3404 137.678 62.0604 136.808 62.1804 136.518C64.1904 131.808 68.5304 128.308 71.8104 124.738C70.4304 128.528 75.8104 131.048 75.5604 134.908V134.918Z" fill="#DF5756"/>
<path d="M310.53 323.321C307.82 330.161 305.73 336.661 301.97 343.121H300.9C300.82 343.631 300.99 344.251 300.9 344.731C300.87 344.911 300.95 345.111 300.9 345.271C298.82 345.011 296.18 344.931 294.48 343.661C294.56 343.531 294.41 343.271 294.48 343.121H295.55C295.64 342.611 295.45 341.971 295.55 341.511C296.05 339.231 297.79 335.251 298.76 332.951C300.44 328.951 302.53 324.951 304.11 320.641L310.53 323.321Z" fill="#A3232A"/>
<path d="M16.6797 285.322C17.4597 284.702 20.3197 281.662 20.9597 282.112C21.7397 287.062 23.3597 291.772 24.7097 296.562C26.8597 304.182 28.8697 310.062 31.6697 317.432C30.1897 319.622 27.8197 318.552 27.3897 321.712C27.2497 321.342 26.9897 321.012 26.8497 320.642C22.6597 309.342 19.9297 297.312 18.8197 285.312H16.6797V285.322Z" fill="#A3232A"/>
<path d="M26.8512 320.641C26.9912 321.011 27.2512 321.341 27.3912 321.711C29.4212 327.031 31.9612 333.141 34.3512 338.301C34.4912 338.591 34.5412 339.171 34.8912 339.911C35.0612 340.261 35.2512 340.621 35.4312 340.981C34.8012 343.941 30.9312 342.971 29.3512 341.551C28.8112 341.071 29.1312 340.281 28.9012 340.031C28.6212 339.721 27.9912 339.971 27.9412 339.911C25.0012 336.211 22.2912 327.441 20.4512 322.781L26.8712 320.641H26.8512Z" fill="#B0262D"/>
<path d="M295.541 328.672L295.631 330.182C297.211 330.432 298.571 331.232 298.761 332.952C297.791 335.262 296.051 339.232 295.551 341.512C294.511 341.702 294.751 342.612 294.481 343.122C294.411 343.262 294.561 343.522 294.481 343.662C292.481 347.182 289.831 350.932 288.141 354.752C287.751 355.642 287.261 356.072 288.051 357.042C285.261 356.622 283.431 356.352 280.561 357.042C280.491 356.702 280.631 356.262 280.561 355.972C283.061 353.742 284.921 350.192 286.541 347.232C289.591 341.672 293.061 334.492 295.551 328.672H295.541Z" fill="#601821"/>
<path d="M312.669 284.782C312.829 285.982 312.269 289.942 312.069 291.402C310.879 300.212 308.009 309.172 305.179 317.432C302.939 317.212 301.009 318.452 300.359 315.822C302.969 308.862 305.409 302.152 307.319 294.952C308.429 290.762 309.339 286.402 309.999 282.112C311.349 282.042 312.519 283.592 312.669 284.782Z" fill="#A3232A"/>
<path d="M17.3003 169.099C15.9703 166.969 19.6403 164.079 18.8203 163.289C14.8303 162.899 11.3003 165.179 7.58033 166.229C7.33033 167.519 7.67032 167.229 8.24032 167.729C10.2903 169.519 18.3303 174.229 19.3003 175.919C22.8303 182.079 11.8403 184.619 15.0103 175.149C10.3303 171.619 5.23032 168.319 0.780325 164.509C0.400325 164.179 -0.229675 164.529 0.100325 163.289C1.69033 163.229 2.85033 163.939 4.50033 163.719C7.23033 163.359 15.4603 159.199 17.2303 159.749C20.1403 160.649 24.2903 167.469 20.9703 169.449C20.2003 169.909 17.6303 169.629 17.2903 169.089L17.3003 169.099Z" fill="white"/>
<path d="M60.7106 47.0083C58.3206 44.5883 62.3106 42.5583 62.1406 41.5983L58.0706 38.1183L52.6106 44.2783L52.5606 44.9883C54.0306 45.8783 60.6406 50.5883 61.0006 51.8083C63.2906 59.4783 53.3806 58.5583 57.6606 51.4283L48.3906 43.1383L56.5506 33.2383C58.8106 36.1383 68.8806 42.7983 64.2906 46.8483C63.3306 47.6883 61.6206 47.9383 60.7006 47.0083H60.7106Z" fill="white"/>
<path d="M182.07 435.191C181.9 435.581 182.23 436.571 181.56 437.091C181.03 437.501 180.31 437.201 179.93 437.331C179.99 436.991 179.85 436.541 179.93 436.261C180.48 435.951 181.47 435.511 182.07 435.191Z" fill="#B1282E"/>
<path d="M206.69 403.608L208.29 403.078C208.32 404.348 209.14 405.698 208.76 406.978C208.45 408.028 207.21 408.088 206.67 408.818C205.82 409.958 205.39 412.158 204.26 413.768C199.36 420.738 190.04 430.918 182.07 435.188C182.57 434.028 184.41 431.998 185.28 430.908C192.48 421.878 200.22 413.398 206.69 403.608Z" fill="#B1282E"/>
<path d="M185.28 430.898C184.41 431.988 182.57 434.018 182.07 435.178C181.47 435.498 180.48 435.938 179.93 436.248C180.45 434.478 183.55 431.818 185.28 430.898Z" fill="#A3232A"/>
<path d="M208.301 401.469C209.871 402.709 210.731 404.559 211.511 406.289C206.541 413.749 201.331 421.389 194.921 427.699C192.321 430.259 189.771 432.929 187.171 435.749C185.341 437.739 183.291 438.309 181.941 440.409L177.781 440.009C177.481 438.509 178.621 437.769 179.921 437.339C180.301 437.209 181.021 437.509 181.551 437.099C182.231 436.579 181.891 435.589 182.061 435.199C190.021 430.929 199.341 420.749 204.251 413.779C205.381 412.169 205.821 409.979 206.661 408.829C207.201 408.099 208.431 408.049 208.751 406.989C209.131 405.699 208.311 404.359 208.281 403.089L206.681 403.619C207.221 402.809 207.941 402.019 208.291 401.479L208.301 401.469Z" fill="#A3232A"/>
<path d="M27.9199 339.91C27.9699 339.97 28.5999 339.72 28.8799 340.03C29.1099 340.28 28.7999 341.07 29.3299 341.55C30.9099 342.97 34.7799 343.93 35.4099 340.98C37.3899 345.13 40.0299 349.31 42.0199 353.65C42.2999 354.25 44.2399 354.81 42.9099 357.04C42.0899 357.19 41.4499 358.37 39.5499 358.03C35.7699 357.34 29.2699 343.72 27.9199 339.92V339.91Z" fill="#90232C"/>
<path d="M252.19 62.1303L245.95 75.5503C244.13 76.6003 241.23 76.0903 241.46 73.6503C241.67 71.3803 245.03 72.2503 246.06 71.2403C246.71 70.6003 247.84 66.3203 247.39 65.8703L241.54 65.3803C240.67 67.6603 241.36 71.7303 239.92 73.6603C237.64 76.7003 232.73 73.2203 235.31 71.1903C236.27 70.4403 238.31 70.7003 238.87 69.8003L240.45 61.0703L252.2 62.1203L252.19 62.1303Z" fill="white"/>
<path d="M300.901 345.272C300.301 347.242 295.141 355.772 293.681 357.052C291.381 359.062 290.211 357.372 288.051 357.052C287.261 356.082 287.751 355.642 288.141 354.762C289.821 350.942 292.481 347.192 294.481 343.672C296.181 344.932 298.821 345.022 300.901 345.282V345.272Z" fill="#90232C"/>
<path d="M326.94 164.939C330.1 163.869 333.04 169.489 329.8 171.049C328.86 171.499 323.78 171.659 321.76 172.109C319.36 172.649 316.46 174.459 314.42 173.589C311.3 172.259 312.57 168.279 315.64 168.119C318.71 167.959 320.55 168.789 324.04 167.429C325.95 166.689 326.23 165.189 326.94 164.939Z" fill="white"/>
<path d="M283.77 47.6712L285.91 45.5312L286.45 49.8113C296.01 50.8113 289.54 62.9813 283.49 57.3113C280.12 54.1513 282.6 51.1213 283.77 47.6613V47.6712Z" fill="white"/>
<path d="M328.591 157.54C330.731 160.49 328.791 162.77 325.281 162.19C324.521 162.07 324.021 161.32 323.221 161.28C322.591 161.25 317.401 162.44 316.681 162.74C314.941 163.48 315.111 165.17 313.451 165.43C308.431 166.22 308.271 160.41 312.131 159.76C313.501 159.53 313.971 160.43 315.111 160.58C316.751 160.8 321.451 160.06 322.971 159.39C324.791 158.58 325.921 155.57 328.591 157.53V157.54Z" fill="white"/>
<path d="M283.77 47.6718C285.78 41.7418 288.38 36.0118 290.2 30.0118C290.55 29.6918 298.08 33.3718 296.61 34.8318L291.27 33.2318L290.71 35.5918C293.02 37.3318 296.86 38.0018 296.07 41.7918C293.69 40.9418 292.35 38.0118 289.66 38.0418C289.05 42.1218 286.01 45.5418 286.44 49.8118L285.9 45.5318L283.76 47.6718H283.77Z" fill="white"/>
<path d="M194.92 427.691C194.97 429.221 193.51 429.591 192.78 430.371L192.24 430.911C191.1 432.121 189.94 433.871 188.84 435.001C187.26 436.641 177.23 446.421 176.2 446.741C173.96 447.431 171.55 444.641 171.95 443.061C172.2 442.071 178.7 436.961 179.92 436.261C179.84 436.541 179.98 436.991 179.92 437.331C178.61 437.761 177.48 438.511 177.78 440.001L181.94 440.401C183.29 438.301 185.33 437.721 187.17 435.741C189.77 432.931 192.31 430.251 194.92 427.691Z" fill="#91161D"/>
<path d="M91.0795 69.0808C91.8395 69.9708 94.5694 74.0208 94.8394 74.1908C95.7594 74.7608 96.8695 73.8908 97.7995 73.8708C101.399 73.7808 99.7095 80.3308 95.7495 79.1608C92.9595 76.5508 91.1595 72.7908 88.9395 69.6208V68.5508L91.0795 69.0808Z" fill="white"/>
<path d="M65.391 219.491C62.611 221.741 56.621 222.951 52.541 224.311L52.561 221.121C54.471 222.011 56.931 219.021 57.191 218.971C59.741 218.451 64.291 218.561 65.381 215.211H65.921C66.261 217.401 65.941 217.211 64.851 219.211L65.391 219.491Z" fill="#601821"/>
<path d="M41.8405 187.371C41.5905 192.151 42.0205 197.031 41.8405 201.821C43.2905 202.201 42.5805 201.161 43.3205 200.771C43.9705 200.431 47.8105 198.751 48.2605 198.611C48.9105 198.401 51.6405 197.591 51.8405 197.551C52.6105 197.381 53.5205 197.701 54.3005 197.531C54.3905 197.511 55.7105 196.551 55.7505 196.471V197.541H57.3605C52.4905 199.121 45.4405 202.921 40.2305 203.961C41.5705 198.581 39.9005 192.711 41.8405 187.371Z" fill="#B1282E"/>
<path d="M265.031 215.738C266.391 215.898 267.001 217.058 268.231 217.618C269.791 218.328 277.841 220.618 278.321 221.188C278.601 221.518 278.381 222.238 278.411 222.698L277.871 223.768C274.181 222.438 268.961 222.278 266.091 219.488C266.191 218.008 264.941 217.268 265.021 215.738H265.031Z" fill="#601821"/>
<path d="M229.171 36.4282C229.371 32.1682 227.521 27.1782 227.011 22.7982C226.671 19.8882 227.291 16.4082 227.021 13.4182C225.301 13.0682 226.251 14.4082 225.791 15.4082C225.721 15.5582 224.261 16.7682 223.811 16.6282C224.891 14.0582 226.891 11.8382 227.031 9.13815C231.821 8.99815 228.791 11.6382 228.231 13.8282C226.341 21.3282 231.011 29.0182 229.161 36.4382L229.171 36.4282Z" fill="white"/>
<path d="M8.11941 218.95C8.99941 218.4 9.35941 218.44 9.09941 217.22C8.74941 215.61 3.91941 206.01 4.36941 205.57C6.75941 205.83 8.06941 207.88 10.7894 207.18C10.9194 209.11 8.84941 208.84 7.57941 208.79C6.89941 209.42 11.7094 218.09 11.8694 219.82C11.9694 220.94 11.2594 223.39 9.71941 223.24C9.74941 223.21 9.68941 222.76 9.90941 222.36C10.0094 222.19 10.6794 222.18 10.7694 221.79C10.9694 220.93 10.7094 219.86 10.7794 218.95C9.90941 219.01 8.95941 218.85 8.09941 218.95H8.11941Z" fill="white"/>
<path d="M278.95 215.199C278.78 215.669 279.08 216.729 278.95 217.339L265.57 214.659C265.87 213.169 266.38 212.429 266.64 211.449C270.44 213.359 274.84 214.329 278.95 215.199Z" fill="#B92830"/>
<path d="M65.9298 215.202H65.3898C63.4698 214.112 53.5298 218.692 52.5698 217.852C52.5698 217.082 52.2898 216.432 52.0098 215.742C55.6098 215.052 59.7298 213.942 63.1598 212.682C64.3898 212.232 64.5498 212.732 64.3198 210.922C64.5798 211.862 65.6698 213.562 65.9298 215.202Z" fill="#B1282E"/>
<path d="M31.1402 242.5C27.9802 250.01 25.2302 257.11 25.2102 266.32C25.2102 271.12 26.3602 276.8 26.8602 281.57C22.5802 269.19 23.4402 253.37 31.1402 242.5Z" fill="#B1282E"/>
<path d="M223.82 25.1909C224.11 25.1009 224.96 25.0009 224.9 25.5009C225.06 29.9609 226.52 33.5609 225.93 38.2709C225.79 39.3909 223.33 43.8209 223.82 44.4509C225.03 45.9909 226.42 39.3909 228.1 40.1709C227.47 43.8609 223.34 46.1409 220.07 47.1309C220.64 45.2009 222.44 44.0309 223.37 42.1409C226.15 36.5009 224.52 31.0509 223.81 25.1809L223.82 25.1909Z" fill="white"/>
<path d="M8.11951 218.952C8.97951 218.852 9.92951 219.012 10.7995 218.952C10.7195 219.862 10.9795 220.932 10.7895 221.792C10.6995 222.182 10.0295 222.182 9.92951 222.362C9.69951 222.752 9.76951 223.212 9.73951 223.242C5.53951 227.272 2.05951 219.672 8.12951 218.962L8.11951 218.952Z" fill="white"/>
<path d="M123.201 7C123.771 7.15 124.531 6.94 125.331 7.25C127.761 8.19 131.251 11.13 131.221 13.95L127.121 10.29C123.531 8.07 117.441 8.4 113.281 8.6C111.971 8.66 111.531 8.21 112.491 9.67C111.441 9.85 111.241 8.92 110.881 8.07C114.351 7.96 117.861 8.2 121.341 8.07C122.371 8.03 123.491 8.62 123.191 7H123.201Z" fill="white"/>
<path d="M88.9407 69.6217C87.6407 67.7617 82.0307 62.9417 84.4607 61.1317C84.8707 60.8217 90.5707 57.4717 89.4707 59.7217L85.7807 62.8517C86.9207 64.0417 87.7207 66.2617 88.9007 67.2717C90.0807 68.2817 89.9307 67.7417 91.0807 69.1017L88.9407 68.5717V69.6417V69.6217Z" fill="white"/>
<path d="M290.191 225.909C289.951 226.949 290.281 228.509 289.651 229.659C287.481 227.959 284.671 226.439 282.161 225.379C282.431 224.009 280.841 224.069 279.801 223.899L279.481 224.309C278.971 224.119 278.411 223.969 277.871 223.769L278.411 222.699L290.191 225.909Z" fill="#A3232A"/>
<path d="M315.88 216.269C315.97 217.139 315.83 218.069 315.88 218.949H314.27C306.54 216.839 315.16 209.519 315.88 216.269Z" fill="white"/>
<path d="M323.381 211.991C323.981 211.621 324.461 211.091 325.251 211.131L331.411 214.141C332.761 215.511 327.501 216.811 324.991 214.671L323.381 211.991Z" fill="white"/>
<path d="M323.381 211.988L324.991 214.668C322.151 213.128 319.521 218.408 316.991 219.258C315.281 219.828 315.291 219.228 314.291 218.948H315.901C315.851 218.078 315.991 217.138 315.901 216.268C316.471 216.928 316.311 217.828 317.521 217.088C319.241 216.028 321.441 213.188 323.401 211.988H323.381Z" fill="white"/>
<path d="M41.3105 226.439L47.9905 224.289C49.0405 225.209 47.6705 225.459 47.2005 225.899C45.3305 227.649 43.1205 227.929 41.8505 229.649C41.3505 228.669 41.5505 227.329 41.3105 226.439Z" fill="#B1282E"/>
<path d="M321.23 93.6983L328.72 90.4883L328.66 93.0983C327.52 93.3283 325.3 94.1283 324.44 94.7583V93.6883H321.23V93.6983Z" fill="white"/>
<path d="M105 4.32C103.3 2.78 100.66 0.77 104.67 0C105.39 0.37 106.47 2.61 106.6 2.71H104.99C104.96 3.24 105.01 3.78 104.99 4.32H105Z" fill="white"/>
<path d="M26.8496 282.111C28.8296 281.781 27.6396 284.831 27.9296 286.031C28.1896 287.101 28.6696 287.491 28.9896 290.141L27.9196 288.001C27.7796 286.221 27.0696 284.141 26.8496 282.111Z" fill="#B1282E"/>
<path d="M64.3197 210.391H63.2497C63.1697 209.161 63.3497 207.881 63.2497 206.641C64.4697 207.571 64.0197 209.311 64.3197 210.391Z" fill="#B1282E"/>
<path d="M229.17 36.9688C229.17 38.0588 229.38 39.2488 228.1 39.6488C228.23 38.8188 228 37.8288 228.1 36.9688H229.17Z" fill="white"/>
<path d="M63.2494 206.102H62.1794C62.0994 205.052 62.2794 203.942 62.1794 202.892L63.2494 202.352C63.0494 204.162 63.1694 204.342 63.2494 206.102Z" fill="#B1282E"/>
<path d="M253.261 220.562C254.151 220.532 255.051 220.582 255.941 220.562C254.611 221.652 252.671 220.872 251.121 221.102C251.491 220.292 252.561 220.592 253.261 220.562Z" fill="#9A222C"/>
<path d="M78.2412 220.558C78.8312 220.578 79.5912 220.398 79.8512 221.098C78.3212 220.938 76.1313 221.648 75.0312 220.558C75.8213 220.408 77.3412 220.528 78.2412 220.558Z" fill="#9A222C"/>
<path d="M267.711 207.711C267.611 208.581 267.791 209.511 267.711 210.391H266.641C266.881 209.481 266.561 208.321 267.711 207.711Z" fill="#B92830"/>
<path d="M136.04 331.351H134.97C135.05 330.341 134.56 328.731 135.5 328.141C135.71 329.021 135.83 330.321 136.04 331.351Z" fill="#861D26"/>
<path d="M223.82 17.1719C223.45 18.1219 222.85 21.3719 221.68 20.9219C221.99 19.5419 222.53 17.8819 223.82 17.1719Z" fill="white"/>
<path d="M214.191 93.6989C213.551 93.5789 212.731 93.7989 212.051 93.6989V92.6289C212.751 92.9189 213.731 92.7589 214.191 93.6989Z" fill="#E96F67"/>
<path d="M105 4.86104C106.37 4.49104 105.91 5.74104 106.07 5.93104C106.15 6.03104 107.71 5.62104 107.14 7.54104C106.92 7.18104 106.29 6.24104 106.07 5.93104C105.88 5.67104 105.27 6.67104 105 4.86104Z" fill="white"/>
<path d="M301.971 343.121C301.651 343.671 301.541 344.351 300.901 344.731C300.991 344.261 300.821 343.641 300.901 343.121H301.971Z" fill="#90232C"/>
<path d="M110.35 96.3811L111.42 96.9111C110.91 96.9911 110.28 96.8211 109.82 96.9111C109.99 96.7211 110.16 96.5311 110.36 96.3711L110.35 96.3811Z" fill="#E96F67"/>
<path d="M192.24 430.899L192.78 430.359C192.61 430.539 192.42 430.709 192.24 430.899Z" fill="#A3232A"/>
<path d="M15.6094 286.392C15.7994 286.232 15.9494 286.022 16.1494 285.852L15.6094 286.392Z" fill="#A3232A"/>
<path d="M208.83 102.798C219.38 106.788 230.41 113.058 239.34 119.928C243.44 123.078 249.21 127.978 252.72 131.708C254.01 133.068 255.74 136.088 257 137.598L257.02 142.058C256.75 143.218 253.01 142.558 252.19 142.128C249.95 140.958 250.97 137.028 245.76 140.808C201.56 97.8682 130.05 98.5382 85.7201 140.808C84.8301 140.778 83.5901 141.948 83.5801 142.948C82.6001 143.938 81.1801 145.238 80.3701 146.158C78.8401 146.418 79.1301 145.508 79.5301 144.518C80.1201 143.068 83.3901 138.758 83.5101 138.288C83.8101 137.128 81.8301 134.958 82.5101 133.318L88.3901 134.918C88.6101 132.478 84.5901 132.428 84.1801 130.808L85.7101 125.828C86.3801 125.228 86.9501 124.458 87.8501 123.688L94.1101 120.848C95.1401 120.078 95.0101 118.428 95.3401 117.798C96.1701 116.208 109 108.788 111.4 107.628C141.06 93.2882 177.88 91.1082 208.81 102.808L208.83 102.798Z" fill="#CB2D34"/>
<path d="M266.1 148.832C270.37 155.592 275.36 165.872 277.88 173.452C280.56 181.542 282.4 190.822 282.77 199.342L289.66 202.892C285.43 201.952 281.27 200.412 277.16 199.042C276.48 198.812 275.94 198.142 275.74 198.082C274.04 187.222 270.43 176.762 265.22 167.122C260.46 158.292 252.95 147.802 245.76 140.812C250.97 137.042 249.95 140.962 252.19 142.132C253.01 142.562 256.75 143.222 257.02 142.062L257 137.602C260.11 141.312 263.44 144.622 266.1 148.842V148.832Z" fill="#C22931"/>
<path d="M85.7299 125.819L84.1999 130.799C84.5999 132.419 88.6299 132.469 88.4099 134.909L82.5299 133.309C81.8499 134.949 83.8399 137.129 83.5299 138.279C83.4099 138.749 80.1399 143.059 79.5499 144.509C79.1499 145.499 78.8599 146.409 80.3899 146.149C72.9599 154.529 65.4499 166.679 61.1199 177.189H60.0499C59.9799 177.889 60.1299 178.629 60.0499 179.329C60.0099 179.679 60.1099 180.089 60.0499 180.399L58.0299 175.189C57.1899 173.799 55.6299 173.539 55.2299 171.299C55.1499 170.819 55.1499 169.649 55.2299 169.159C56.0699 163.879 62.6799 156.039 63.2599 151.499L75.5699 134.909C78.7399 131.629 82.4899 128.709 85.7399 125.809L85.7299 125.819Z" fill="#C22931"/>
<path d="M55.2195 171.309C55.6195 173.549 57.1795 173.809 58.0195 175.199L60.0395 180.409C59.4495 183.309 57.8295 186.919 56.9695 189.919C56.4995 191.559 56.4295 195.059 55.7595 196.469C55.7195 196.549 54.3995 197.509 54.3095 197.529C53.5195 197.699 52.6195 197.379 51.8495 197.549C51.6495 197.589 48.9195 198.409 48.2695 198.609C49.1495 190.249 50.7595 181.989 53.3895 174.019C53.6695 173.169 53.9295 170.969 55.2295 171.319L55.2195 171.309Z" fill="#B92830"/>
<path d="M61.1107 177.199C60.8207 177.909 60.9707 178.869 60.0407 179.339C60.1207 178.639 59.9707 177.899 60.0407 177.199H61.1107Z" fill="#B92830"/>
<path d="M85.7299 140.809C85.0399 141.469 84.2598 142.259 83.5898 142.949C83.5998 141.949 84.8399 140.779 85.7299 140.809Z" fill="#C22931"/>
<path d="M249.511 253.211C248.711 255.761 248.801 258.661 248.291 261.361C245.171 278.131 231.811 308.361 224.351 324.401C222.541 328.301 215.861 342.451 211.731 343.111C211.001 343.231 209.951 343.301 209.341 342.881C207.961 340.821 207.911 339.021 207.761 336.711C206.661 320.151 218.471 296.521 225.161 281.051C228.451 273.461 231.831 264.541 235.741 257.381C237.091 254.921 242.371 246.781 244.681 245.721C250.191 243.201 249.381 250.121 249.501 253.211H249.511Z" fill="#4E131B"/>
<path d="M85.7311 245.708C85.9111 245.708 86.0911 245.688 86.2711 245.708C89.5311 248.238 91.6111 251.748 94.3011 254.808C94.3711 254.958 94.2311 255.198 94.3011 255.348C103.161 274.798 121.091 308.908 123.201 329.208C123.541 332.488 125.341 344.938 118.901 342.908C118.461 342.768 116.271 341.198 115.891 340.798C114.931 339.788 112.171 335.398 111.421 334.028C104.361 321.038 96.3611 300.958 91.0811 286.928C87.1911 276.578 79.2811 256.078 82.5211 245.718C83.5911 245.718 84.6611 245.718 85.7311 245.718V245.708Z" fill="#4E131B"/>
<path d="M111.42 334.031C112 337.761 107.39 333.781 106.8 333.651C106.36 333.551 105.7 334.031 105.31 333.931C104.71 333.781 104.18 331.431 101.79 332.431C99.8496 328.211 96.5296 320.361 94.2996 317.441C94.0996 317.181 92.6296 312.721 92.1796 311.701C89.8096 306.341 88.3796 300.861 86.2796 295.501C87.8796 294.591 85.2596 291.091 85.7496 290.691C88.3196 291.311 90.0296 288.971 91.0996 286.941C96.3796 300.971 104.37 321.051 111.44 334.041L111.42 334.031Z" fill="#94202A"/>
<path d="M86.2698 295.489C88.3698 300.849 89.7998 306.329 92.1698 311.689C92.6198 312.709 94.0998 317.179 94.2898 317.429L93.2798 321.929L91.6199 322.239C91.4399 321.839 90.7798 321.249 90.4498 320.479C86.7298 311.889 83.2298 303.129 79.8398 294.399C81.4498 293.839 84.0399 293.739 84.1199 291.719C84.6499 293.099 85.9498 294.679 86.2598 295.469L86.2698 295.489Z" fill="#A11719"/>
<path d="M86.2698 245.711C89.3698 246.001 89.2098 246.951 90.3898 247.231C91.3298 247.451 92.6898 246.181 93.5298 247.861C94.0298 248.861 91.7698 249.981 93.2298 252.841C93.5898 253.541 93.7398 253.571 94.2898 254.821C91.5998 251.761 89.5198 248.251 86.2598 245.721L86.2698 245.711Z" fill="#90232C"/>
<path d="M82.5203 245.711C82.6203 245.381 82.2003 244.631 82.8303 244.621L85.7303 244.641V245.711C84.6603 245.711 83.5803 245.711 82.5103 245.711H82.5203Z" fill="#90232C"/>
<path d="M277.341 292.809C278.001 297.679 283.341 295.019 286.451 298.419C288.381 300.519 286.081 302.019 287.521 303.779C289.291 305.949 294.121 305.339 296.341 304.049L296.611 306.729C295.871 308.779 293.481 316.349 292.331 317.429C290.621 319.039 290.331 320.559 289.281 322.939C288.941 323.729 289.431 324.629 288.771 324.949L285.191 325.409C282.601 320.789 282.751 322.949 279.241 322.809C277.241 322.729 272.521 321.189 271.721 321.189C270.921 321.189 268.851 323.079 267.171 322.249C269.161 316.739 264.981 318.789 263.501 317.889C263.321 317.779 263.041 316.419 262.601 315.859C260.741 313.489 258.361 311.809 257.001 309.099L254.331 309.409C254.411 307.999 254.201 306.529 254.331 305.129C254.591 302.129 256.291 299.519 257.531 296.799C259.241 295.709 268.581 301.579 271.101 301.869C271.971 301.609 275.251 295.219 276.041 293.899C276.391 293.299 277.261 292.969 277.341 292.819V292.809Z" fill="#C22931"/>
<path d="M294.471 262.84C291.441 271.64 286.121 276.13 281.621 283.71C279.211 282.82 277.361 280.88 275.031 279.86C273.821 279.33 267.851 277.34 266.841 277.29C264.931 277.2 264.691 279.43 263.961 281.03C261.701 285.96 259.461 290.94 257.501 296L251.651 294.94C251.761 294.68 251.541 294.13 251.651 293.87C256.901 280.92 265.621 263.88 267.171 249.98C268.981 250.57 271.391 251.1 273.061 251.85C278.291 254.2 283.671 258.31 289.351 260.72C291.051 261.44 293.201 260.97 294.471 262.83V262.84Z" fill="#ED6663"/>
<path d="M278.42 289.069C277.91 289.949 277.63 292.339 277.35 292.819C277.26 292.969 276.4 293.299 276.05 293.899C275.27 295.219 271.99 301.609 271.11 301.869C268.59 301.579 259.25 295.709 257.54 296.799C256.3 299.529 254.6 302.129 254.34 305.129C253.36 305.469 253.24 306.329 252.87 307.129C250.43 312.419 248.62 317.999 246.32 323.319C243.35 330.169 239.85 336.929 236.69 343.659C233.79 343.429 236.49 339.089 232.41 339.909C236.37 332.119 239.6 322.869 243.11 314.749C245.96 308.159 248.97 301.599 251.67 294.949L257.52 296.009C259.48 290.939 261.72 285.969 263.98 281.039C268.84 282.999 275.06 285.029 278.43 289.069H278.42Z" fill="#D94A4A"/>
<path d="M281.631 283.708C280.601 285.438 279.391 287.388 278.421 289.058C275.041 285.018 268.821 282.988 263.971 281.028C264.701 279.428 264.941 277.188 266.851 277.288C267.861 277.338 273.831 279.328 275.041 279.858C277.371 280.878 279.221 282.818 281.631 283.708Z" fill="#DF5756"/>
<path d="M279.49 224.301L279.81 223.891C280.85 224.061 282.44 224.001 282.17 225.371C281.39 225.041 280.27 224.581 279.49 224.301Z" fill="#7F131D"/>
<path d="M54.1494 292.281C55.1594 294.021 58.9894 301.481 60.4194 301.841L73.4194 296.021C73.7494 295.961 74.2394 296.111 74.4894 296.021C75.6694 301.371 78.2094 306.961 80.3794 312.081C77.0694 312.021 76.2394 311.721 74.7094 308.901C72.5094 309.421 71.7494 311.681 69.1494 311.011C70.9294 315.571 67.3494 316.641 63.4994 316.921C62.4194 317.001 61.2294 316.231 60.4194 316.441C59.7894 316.601 59.3794 317.591 58.5894 317.851C57.7494 318.131 56.7294 317.821 55.7694 318.241C53.8794 319.071 52.2594 325.031 50.1694 324.371C49.6794 324.211 49.5594 323.221 49.1694 322.961C46.7494 321.331 46.9694 320.491 46.1194 319.851C44.9794 318.991 40.2694 319.181 39.7894 318.401C39.5794 317.931 39.8494 317.151 39.6694 316.801C37.3094 312.291 35.9694 307.901 34.3594 303.521L37.0294 302.701L35.9694 299.781L38.6394 300.321C38.0094 301.561 38.4194 305.921 40.5094 305.121C42.1094 304.061 40.5794 303.361 40.2994 302.131C40.0594 301.071 39.4394 297.641 41.5794 298.171C42.2794 298.341 42.0794 300.261 43.1794 299.771C44.0394 299.371 44.3194 297.071 43.9394 296.601C43.6794 296.281 41.9094 297.251 42.3894 295.501C46.1094 295.221 49.2894 300.371 52.2594 295.481C53.0794 294.131 52.5794 292.091 54.1594 292.291L54.1494 292.281Z" fill="#C22931"/>
<path d="M64.3202 247.319C64.7202 254.329 66.9402 260.919 68.6002 267.659L65.6602 270.869C63.6402 268.979 62.4002 266.589 60.9802 264.309C59.4102 261.789 57.5702 265.759 56.2802 266.319C55.2402 266.769 54.0502 266.439 53.0502 266.839C51.1102 267.629 48.9202 269.249 46.6602 269.599C44.6302 269.909 43.8202 268.399 41.8902 268.789C41.6302 269.599 41.2502 270.559 41.3002 271.419C37.9602 268.119 35.8002 262.139 35.4102 257.499C38.8902 255.309 45.1302 255.739 48.4002 254.169C51.0402 252.899 55.8202 246.569 58.2702 245.829C61.5902 244.829 60.8102 249.259 64.3102 247.329L64.3202 247.319Z" fill="#EE6B67"/>
<path d="M41.3112 271.401C41.2612 270.541 41.6312 269.581 41.9012 268.771C43.8312 268.381 44.6412 269.891 46.6712 269.581C48.9412 269.231 51.1212 267.611 53.0612 266.821C54.0612 266.411 55.2512 266.751 56.2912 266.301C57.5812 265.741 59.4312 261.771 60.9912 264.291C62.4112 266.571 63.6512 268.961 65.6712 270.851L68.6112 267.641L79.3112 294.401C77.7212 294.931 76.0612 295.431 74.4912 296.011C74.2412 296.101 73.7512 295.951 73.4212 296.011C73.2612 293.771 67.0512 279.131 66.1412 278.921C64.5612 280.041 62.0012 280.111 60.6012 280.781C59.6112 281.251 58.6012 282.621 56.8212 283.421C54.8412 284.311 52.5012 284.741 50.4112 285.301C49.4812 283.681 48.9212 281.931 47.9712 280.521C46.2712 278.011 41.5112 274.541 41.3112 271.391V271.401Z" fill="#EC615F"/>
<path d="M73.4204 296.021L60.4204 301.841C58.9904 301.481 55.1604 294.021 54.1504 292.281C52.8304 290.011 51.6904 287.581 50.4004 285.321C52.5004 284.761 54.8304 284.331 56.8104 283.441C58.5904 282.641 59.6004 281.261 60.5904 280.801C61.9904 280.131 64.5504 280.061 66.1304 278.941C67.0404 279.151 73.2504 293.791 73.4104 296.031L73.4204 296.021Z" fill="#D94A4A"/>
<path d="M32.2112 300.311C33.4812 299.911 33.8812 302.251 34.3512 303.521C35.9712 307.901 37.3012 312.291 39.6612 316.801C39.8412 317.151 39.5712 317.931 39.7812 318.401C40.2612 319.181 44.9712 318.981 46.1112 319.851C46.9612 320.491 46.7412 321.341 49.1612 322.961C49.5512 323.221 49.6612 324.211 50.1612 324.371C52.2512 325.031 53.8712 319.071 55.7612 318.241C56.7212 317.821 57.7512 318.131 58.5812 317.851C59.3712 317.591 59.7712 316.601 60.4112 316.441C61.2212 316.231 62.4112 316.991 63.4912 316.921C67.3412 316.651 70.9212 315.581 69.1412 311.011C71.7412 311.691 72.5112 309.421 74.7012 308.901C76.2312 311.721 77.0612 312.021 80.3712 312.081C82.8612 317.981 85.9912 324.321 88.4012 329.741C89.1012 331.311 89.4612 333.891 90.0112 335.091C88.7012 337.871 84.5612 333.041 83.2512 331.971C81.9612 331.561 76.1812 332.001 75.0312 332.701C73.7012 333.511 73.7612 336.671 72.6412 337.811C71.5212 338.951 69.9212 338.661 68.6212 339.141C67.7712 339.461 67.5912 340.911 65.7612 340.381C64.7212 340.081 64.8212 338.891 62.4512 338.801C59.5712 338.691 59.6512 340.201 58.1312 340.471C55.9012 340.861 52.6412 338.191 50.5212 337.381C49.8512 337.121 48.4912 337.411 48.2912 337.221C48.1912 337.131 48.2312 335.471 47.8612 334.711C47.5212 334.021 46.7812 333.571 46.4412 332.911C44.3512 328.891 43.0612 325.171 40.7612 321.721C38.4612 318.271 32.8912 304.241 32.2012 300.311H32.2112Z" fill="#B92830"/>
<path d="M30.0703 293.879H31.1403C31.2303 294.749 31.0303 295.689 31.1403 296.559C30.4203 295.899 30.1903 294.809 30.0703 293.879Z" fill="#B1282E"/>
<path d="M28.9902 290.672H30.0602C30.1502 291.542 29.9502 292.482 30.0602 293.352C29.3602 292.702 29.0902 291.592 28.9902 290.672Z" fill="#B1282E"/>
<path d="M31.1406 297.09H32.2106C32.2906 297.97 32.1106 298.89 32.2106 299.77C31.4906 299.11 31.2606 298.02 31.1406 297.09Z" fill="#B1282E"/>
<path d="M35.4209 256.949C34.9009 256.809 34.9209 256.329 34.8809 255.879C35.4009 256.049 35.3709 256.489 35.4209 256.949Z" fill="#EE6B67"/>
<path d="M254.331 305.122C254.211 306.522 254.421 307.992 254.331 309.402L257.001 309.092C258.371 311.802 260.741 313.482 262.601 315.852C263.041 316.412 263.331 317.772 263.501 317.882C264.981 318.782 269.161 316.732 267.171 322.242C268.851 323.072 270.901 321.182 271.721 321.182C272.541 321.182 277.241 322.722 279.241 322.802C282.761 322.942 282.601 320.782 285.191 325.402L288.771 324.942C289.431 324.622 288.931 323.722 289.281 322.932C290.321 320.562 290.611 319.032 292.331 317.422C290.481 321.432 285.541 336.562 282.701 338.832C282.591 338.912 281.861 338.642 281.691 338.872L281.631 340.972C278.631 340.022 278.941 344.892 275.761 343.382C274.091 342.582 270.791 340.962 268.931 340.562C267.071 340.162 265.391 341.012 263.591 340.572C260.551 339.822 261.781 335.492 257.541 337.222C258.141 336.002 257.581 329.672 256.931 329.262C254.361 327.662 253.591 332.112 251.401 331.362L250.611 329.422C249.661 328.702 245.871 330.012 245.871 327.422C245.871 326.262 247.501 324.382 246.291 323.292C248.591 317.972 250.401 312.382 252.841 307.102C253.211 306.302 253.331 305.442 254.311 305.102L254.331 305.122Z" fill="#B92830"/>
<path d="M249.51 253.211C249.69 258.221 250.82 261.081 251.07 265.311C251.13 266.251 249.73 269.491 252.4 268.681C253.85 268.241 253.31 264.841 254.86 266.591C254.96 267.691 254.86 268.741 254.62 269.821C254.08 272.201 248.11 291.371 247.37 292.281C247.32 292.341 246.62 292.121 246.42 292.381C246.15 292.731 244.54 298.751 243.97 300.141C242.98 302.571 241.91 305.421 240.87 308.441C240.53 309.421 239.47 309.031 239.86 312.091C238.51 311.781 238.84 312.841 238.45 313.601C235.52 319.331 233.31 323.571 230.88 329.611C230.51 330.521 229.25 333.361 228.08 333.501C228.1 331.091 226.75 331.791 226.05 330.441C225.26 328.921 225.59 325.901 224.33 324.401C231.79 308.361 245.15 278.131 248.27 261.361C248.77 258.661 248.69 255.761 249.49 253.211H249.51Z" fill="#94202A"/>
<path d="M239.881 312.08C240.171 314.31 240.651 314.92 243.091 314.76C239.571 322.88 236.341 332.12 232.391 339.92C228.641 347.31 221.051 359.02 213.111 362.12C211.011 362.94 207.761 363.8 205.631 362.93L209.781 362.23C212.101 358.81 217.961 355.14 220.121 351.98C223.281 347.34 224.171 342.91 226.141 337.67C226.731 336.1 228.111 335.49 228.121 333.5C229.291 333.36 230.561 330.52 230.921 329.61C233.341 323.57 235.561 319.33 238.491 313.6C238.881 312.85 238.551 311.78 239.901 312.09L239.881 312.08Z" fill="#91161D"/>
<path d="M94.2894 317.43C96.5194 320.34 99.8494 328.19 101.779 332.42C101.929 332.74 101.689 333.81 102.029 334.55C104.989 340.96 112.989 355.67 118.399 359.42C120.039 360.55 122.779 361.31 124.259 362.93C109.189 361.8 101.059 344.74 95.3594 332.42C93.9194 329.3 92.9694 325.34 91.6094 322.25L93.2694 321.94L94.2794 317.44L94.2894 317.43Z" fill="#91161D"/>
<path d="M247.371 292.278L247.401 293.308L251.651 293.888C251.541 294.148 251.761 294.698 251.651 294.958C248.941 301.608 245.941 308.178 243.091 314.758C240.651 314.928 240.171 314.318 239.881 312.078C239.481 309.008 240.551 309.408 240.891 308.428C241.931 305.408 243.001 302.568 243.991 300.128C244.551 298.738 246.171 292.718 246.441 292.368C246.641 292.118 247.341 292.328 247.391 292.268L247.371 292.278Z" fill="#A11719"/>
<path d="M91.6202 322.252C92.9802 325.342 93.9202 329.302 95.3702 332.422C92.3002 333.192 91.2502 329.732 88.4102 329.742C86.0002 324.312 82.8702 317.972 80.3802 312.082C78.2202 306.962 75.6802 301.372 74.4902 296.022C76.0602 295.442 77.7202 294.942 79.3102 294.412C79.4702 294.362 79.6902 294.472 79.8502 294.412C83.2402 303.142 86.7402 311.892 90.4602 320.492C90.7902 321.262 91.4502 321.842 91.6302 322.252H91.6202Z" fill="#D94A4A"/>
<path d="M300.361 315.828C301.011 318.448 302.941 317.208 305.181 317.438C304.821 318.498 304.501 319.598 304.111 320.648C302.531 324.958 300.441 328.958 298.761 332.958C298.571 331.238 297.211 330.438 295.631 330.188L295.541 328.678C297.311 324.548 298.771 320.058 300.361 315.828Z" fill="#7F131D"/>
<path d="M95.3611 117.789C95.0311 118.419 95.1611 120.069 94.1311 120.839L87.8711 123.679C90.1811 121.709 92.4511 119.679 94.8311 117.789H95.3711H95.3611Z" fill="#C22931"/>
<path d="M34.8798 339.911C34.5298 339.171 34.4798 338.601 34.3398 338.301L34.8798 339.911Z" fill="#90232C"/>
<path d="M295.541 341.52C295.441 341.98 295.631 342.62 295.541 343.13H294.471C294.741 342.62 294.511 341.71 295.541 341.52Z" fill="#90232C"/>
</svg>
