<?xml version="1.0" encoding="UTF-8"?>
<svg id="_Слой_2" data-name="Слой 2" xmlns="http://www.w3.org/2000/svg" viewBox="0 0 211.95 209.94">
  <defs>
    <style>
      .cls-1 {
        fill: #230908;
      }

      .cls-2 {
        fill: #350f0d;
      }

      .cls-3 {
        fill: #37110f;
      }

      .cls-4 {
        fill: #fbd8d4;
      }

      .cls-5 {
        fill: #f22a1a;
      }

      .cls-6 {
        fill: #c93e36;
      }

      .cls-7 {
        fill: #fbfbfb;
      }

      .cls-8 {
        fill: #fcd8d4;
      }
    </style>
  </defs>
  <g id="_Слой_2-2" data-name=" Слой 2">
    <g id="_Слой_1-2" data-name=" Слой 1-2">
      <g>
        <path class="cls-2" d="M1.56,91.52c1.83-3.85,2.08-11.15,3.66-16.78,28.09-99.52,173.51-99.77,202.03-.06,34.9,122.01-134.01,188.91-193.15,81.25-6.77-12.32-18.29-52.32-12.54-64.41ZM120.28,202.22c111.22-14.6,111.17-180.48-.06-195C76.5,1.52,34.18,24.68,16.38,64.9c-31.46,71.1,27.73,147.33,103.9,137.33Z"/>
        <path class="cls-5" d="M120.22,7.22c-.6,2.9,1.43,1.82,3.17,2.28,98.47,25.95,98.59,164.25.06,190.44-1.73.46-3.76-.62-3.17,2.28C44.11,212.23-15.08,136,16.38,64.9,34.18,24.68,76.5,1.51,120.22,7.22ZM18.55,113.47c.83,9.91,4.39,22.22,8.99,31.01,1.57,3,4.2,9.5,8.77,6.35,3.07-2.12-2.45-9.86-3.53-12.59-2.55-6.48-5.45-13.79-6.29-20.73-.53-4.37,2.21-10.46-3.88-14.09-5.93.7-4.44,5.54-4.06,10.05h0ZM38.42,160.53c.96,3.42,9.15,11.71,11.71,5.01,1.6-2.4-6.23-9.83-7.56-10.17-2.8-.73-4.9,2.48-4.15,5.16ZM134.23,51.22c-.93-5.38-4.78-10.04-10.56-10.94-5.78-.9-24.95-.8-30.96-.08-4.91.59-11.65,5.71-12.42,10.58-2.24,14.09,1.71,33.46.02,47.99-.17,1.46-.12,2.57-1.55,3.45h-16c-2.65,0-8,7.27-7.54,10.37.05.33,3.42,2.11,2.55,5.62,13.7,13.28,25.03,32.54,38.46,45.55,5.17,5.01,13.26,6.71,19.06,1.97,12.4-15.1,32.08-30.27,43.38-45.62,3.4-4.61,5.71-9.2,1.61-14.43-.64-.82-3.88-3.48-4.52-3.48h-20.5c-.68-16.11.9-32.96-.02-48.99-.05-.85-.04-1.73-1-2h0Z"/>
        <path class="cls-6" d="M120.28,202.22c-.6-2.9,1.43-1.82,3.17-2.28,98.53-26.19,98.41-164.49-.06-190.44-1.74-.46-3.76.61-3.17-2.28,111.23,14.52,111.28,180.4.06,195Z"/>
        <path class="cls-3" d="M134.23,51.22c.14.82,0,1.71,1,2,.92,16.03-.66,32.88.02,49h20.5c.64,0,3.88,2.65,4.52,3.47,4.1,5.23,1.79,9.82-1.61,14.43-11.3,15.35-30.98,30.52-43.38,45.62-5.8,4.73-13.9,3.03-19.06-1.97-13.43-13.01-24.76-32.27-38.46-45.55.86-3.51-2.5-5.29-2.55-5.62-.46-3.1,4.89-10.36,7.54-10.36h16c1.43-.89,1.38-2,1.55-3.46,1.71-14.53-2.24-33.9-.02-47.99.77-4.87,7.51-9.99,12.42-10.58,6-.72,25.16-.82,30.96.08,5.8.9,9.64,5.56,10.56,10.94h0ZM64.25,108.24c-.44,2.32-1.95,4.51-.06,6.55l37.52,44.49c5.74,5.78,11.68,1.42,16.22-3.4.64-.68.64-2.54,1.76-3.71,9.39-9.77,27.39-25.31,34.55-35.47,1.19-1.69,3.62-7.5.5-7.5h-21c-.28,0-2.73-1.54-3-1.99-2.52-16.31,1.66-36.41-.58-52.43-.77-5.55-4.15-7.14-9.39-7.62-4.71-.43-25.93-.53-28.94,1.18-2.55,1.45-4.29,5.5-4.64,8.36-1.77,14.78,1.82,33.3.09,48.07-.17,1.46-.12,2.57-1.55,3.45h-21.5s.02.02.02.02Z"/>
        <path class="cls-8" d="M18.55,113.47c-.38-4.51-1.87-9.35,4.06-10.05,6.1,3.62,3.36,9.72,3.88,14.09.83,6.94,3.74,14.25,6.29,20.73,1.07,2.73,6.6,10.47,3.53,12.59-4.57,3.15-7.2-3.35-8.77-6.35-4.61-8.79-8.17-21.1-8.99-31.01h0Z"/>
        <path class="cls-4" d="M38.42,160.53c-.75-2.68,1.35-5.9,4.15-5.16,1.33.35,9.16,7.78,7.56,10.17-2.56,6.71-10.75-1.59-11.71-5.01Z"/>
        <path class="cls-1" d="M134.23,51.22c.96.27.95,1.15,1,2-1.01-.29-.86-1.18-1-2Z"/>
        <path class="cls-7" d="M64.25,108.24h21.5c1.43-.89,1.38-2,1.55-3.46,1.73-14.78-1.86-33.3-.09-48.07.34-2.87,2.09-6.92,4.64-8.36,3.01-1.71,24.22-1.6,28.94-1.18,5.24.48,8.61,2.07,9.39,7.62,2.24,16.03-1.94,36.12.58,52.43.27.45,2.72,2,3,2h21c3.11,0,.69,5.8-.5,7.49-7.16,10.16-25.16,25.7-34.55,35.47-1.13,1.17-1.12,3.03-1.76,3.71-4.54,4.81-10.48,9.17-16.22,3.4l-37.52-44.49c-1.89-2.05-.37-4.24.06-6.55h-.02Z"/>
      </g>
    </g>
  </g>
</svg>