<?xml version="1.0" encoding="UTF-8"?>
<svg id="_Слой_2" data-name="Слой 2" xmlns="http://www.w3.org/2000/svg" viewBox="0 0 331.62 446.85">
  <defs>
    <style>
      .cls-1 {
        fill: #a1261a;
      }

      .cls-2 {
        fill: #a2271a;
      }

      .cls-3 {
        fill: #e06247;
      }

      .cls-4 {
        fill: #ca3927;
      }

      .cls-5 {
        fill: #b93427;
      }

      .cls-6 {
        fill: #c72f21;
      }

      .cls-7 {
        fill: #771008;
      }

      .cls-8 {
        fill: #811d14;
      }

      .cls-9 {
        fill: #dd3f29;
      }

      .cls-10 {
        fill: #d03521;
      }

      .cls-11 {
        fill: #d54e39;
      }

      .cls-12 {
        fill: #de513c;
      }

      .cls-13 {
        fill: #942218;
      }

      .cls-14 {
        fill: #b32b1e;
      }

      .cls-15 {
        fill: #821e15;
      }

      .cls-16 {
        fill: #aa261a;
      }

      .cls-17 {
        fill: #510c08;
      }

      .cls-18 {
        fill: #fff;
      }

      .cls-19 {
        fill: #e9e4df;
      }

      .cls-20 {
        fill: #701811;
      }

      .cls-21 {
        fill: #da5a40;
      }

      .cls-22 {
        fill: #3f0906;
      }

      .cls-23 {
        fill: #bc392c;
      }

      .cls-24 {
        fill: #df5640;
      }

      .cls-25 {
        fill: #e16049;
      }

      .cls-26 {
        fill: #8b2118;
      }
    </style>
  </defs>
  <g id="_Слой_1-2" data-name="Слой 1">
    <g>
      <path class="cls-17" d="M245.76,140.81c7.19,6.98,14.69,17.48,19.46,26.31,5.2,9.65,8.81,20.1,10.52,30.96-1.27-.41-3.49-1.01-4.82-.84-.29.18-2.51,5.58-2.67,6.19-13.05-70.54-94.44-103.78-156.11-68.6-23.02,13.13-45.92,40.48-48.88,67.53l-1.07.54c-.21-2.11-.35-3.78-1.59-5.67-.49-.34-2.59.11-3.23.31h-1.61v-1.07c.67-1.41.75-4.91,1.21-6.55.86-3,2.48-6.61,3.07-9.51.06-.32-.04-.72,0-1.07.93-.48.78-1.44,1.07-2.14,4.33-10.51,11.84-22.67,19.27-31.04.81-.92,2.24-2.22,3.21-3.21.68-.69,1.45-1.48,2.14-2.14,44.32-42.27,115.83-42.94,160.04,0h0Z"/>
      <path class="cls-3" d="M212.04,92.63v1.07c.68.1,1.5-.12,2.14,0,.17.03.37-.04.54,0-.09,1.15-.21,3.37-.82,4.26-1.26,1.85-6.39.74-5.07,4.83-30.93-11.7-67.75-9.52-97.41,4.82.66-2.91-1.49-2.1-3.24-3.45-1.75-1.35-2.77-3.54-1.08-5.42.83-.92,2.48-.25,2.17-1.83.15-.05.36.04.54,0,.47-.1,1.09.07,1.6,0l-1.07-.53c1.59-1.27,5.82-2.79,7.89-3.61,29.01-11.45,64.84-12.21,93.8-.13h.01Z"/>
      <path class="cls-26" d="M239.87,227.51c0,2.52-2.15,3.27-3.18,4.7-.83,1.16-2.18,3.32-2.19,4.58,2.12.75,2.22,3.04,3.48,4.12.72.62,1.9.63,2.74,1.54,1.25,1.36.86,3.86,3.97,3.26-2.31,1.06-7.6,9.2-8.94,11.66-3.91,7.16-7.3,16.08-10.58,23.67-6.7,15.47-18.51,39.09-17.4,55.66-1.74-.34-.77,1.02-1.22,1.99-.11.24-2.38,2.11-2.9,2.19-3,.48-5.05-3.49-8.72-1.51.15-1.22-.26-2.77,0-3.91.1-.43.97-.14,1.1-1.13.17-1.26.24-4.03-.58-5.12.91-3.9,2.62-7.98,4.03-11.76,9-24.13,20.23-52.69,31.2-75.85,2.51-5.29,5.09-9.98,9.19-14.09Z"/>
      <path class="cls-26" d="M80.37,221.09c4.77.72,8.99,3.79,11.78,7.49,2,2.66,3,6.21,4.46,8.39.28.43,1.93,1.28,1.98,1.61.2,1.43-.95,2.23-1.12,3.62-.3,2.49,1.09,3.6,1.15,5.37.06,1.77-1.27,4.73.23,6.68.44.57,1.54.52,2.12,1.09,2.09,2-.39,4.79-3.07,4.26-1.39-.27-1.4-4.37-3.6-4.27-.07-.15.07-.39,0-.54-.55-1.24-.71-1.28-1.06-1.98-1.46-2.85.8-3.97.3-4.98-.84-1.68-2.21-.4-3.14-.63-1.18-.28-1.02-1.23-4.12-1.52-.17-.02-.36,0-.54,0v-1.07l-2.9-.02c-.63,0-.21.76-.31,1.09-3.24,10.36,4.67,30.87,8.56,41.21-1.07,2.03-2.78,4.37-5.35,3.75-.48.41,2.14,3.91.53,4.81-.31-.78-1.61-2.37-2.14-3.75-5.71-14.93-17.37-45.09-11.89-60.32,1.58-4.4,4.65-5.2,7.48-8,.91-.9.8-1.04.66-2.33v.04Z"/>
      <path class="cls-26" d="M135.5,328.14c-.95.59-.46,2.2-.53,3.22h1.07c.12.59.47,1.19.54,1.6-1.73,3.56,1.56,6.77-3.2,8.35-2.39.79-2.14-1.49-3.25-2.17-.68-.41-2.01-.21-2.42-.79-.6-.84.3-3.22-1.04-3.78-1.7-.72-.85,1.6-2.4,1.06-.22-2.07.75-4.87-1.07-6.42-2.12-20.3-20.04-54.41-28.9-73.86,2.2-.1,2.21,4,3.6,4.27,2.68.53,5.17-2.26,3.07-4.26-.59-.56-1.68-.51-2.12-1.09-1.5-1.95-.17-4.85-.23-6.68-.06-1.83-1.45-2.88-1.15-5.37.17-1.39,1.32-2.19,1.12-3.62-.05-.33-1.7-1.19-1.98-1.61-1.46-2.19-2.45-5.73-4.46-8.39,4.71,4.71,7.54,11.25,10.26,17.3,10.46,23.29,22.15,50.8,30.67,74.77.86,2.43,1.81,4.99,2.42,7.48h0Z"/>
      <path class="cls-1" d="M290.18,230.73c18.26,14.34,19.31,37.47,12.85,58.34-1.69,5.46-4.37,11.94-6.42,17.66l-.27-2.68c-2.22,1.29-7.04,1.91-8.82-.27-1.44-1.76.86-3.25-1.07-5.36-3.11-3.4-8.45-.74-9.11-5.61.28-.48.56-2.87,1.07-3.75.97-1.68,2.18-3.62,3.21-5.35,4.5-7.58,9.82-12.08,12.85-20.87,4.27-12.41,1.92-21.17-4.28-32.11h-.01Z"/>
      <path class="cls-25" d="M266.09,219.49c2.86,2.79,8.08,2.95,11.78,4.28.54.19,1.09.35,1.61.54.77.28,1.9.74,2.68,1.07,2.52,1.06,5.33,2.59,7.49,4.28l.54,1.07c6.2,10.94,8.55,19.71,4.28,32.11-1.26-1.86-3.41-1.39-5.12-2.11-5.68-2.41-11.06-6.52-16.29-8.87-1.67-.75-4.08-1.28-5.89-1.87,1.07-9.64-.49-25.78-11.24-29.44-.89.02-1.79-.03-2.68,0l12.85-1.07h0Z"/>
      <path class="cls-1" d="M121.58,366.68c-2.09,2.32-6,3.94-8.91,5.28-22.9,10.52-40.72,5.61-54.79-14.91,1.66.85,4.28,2.95,4.3,4.8,3.2-.88,10.85-.54,13.36-2.4.56-.42.51-1.52,1.08-2.13,1.92-2.01,7.82-5.39,10.54-6.58,2.44-1.07,6.43-1.15,8.18-3.86.33.68,1.37,1.63,1.88,2.67,3.2,6.47,4.31,12.4,11.36,15.4,4.36,1.86,8.41,3.41,12.99,1.73h.01Z"/>
      <path class="cls-1" d="M235.59,347.41c1.63-.08,2.1,2.85,3.56,3.13.77.15,2.01-1.24,3.64-1.01,1.15.17,1.63,1.33,2.57,1.75,1.16.51,2.89.33,3.79.89.74.46.61,1.97,1.42,2.46.73.44,1.91.18,2.7.52,3.41,1.47,3.29,5.22,5.31,5.93,3.34,1.17,9.53,1.49,12.34-.83-7.53,12.47-22.33,17.66-37.47,17.13.3-1.73-.88-.91-1.87-1.05-4.52-.62-8.44-2.47-12.58-4.31-3.51-1.56-5.88-2.64-9.1-4.82l6.99-.24c3.1-1.3,7.57-2.1,10.11-4.34,2.05-1.81,7.12-12.14,8.6-15.22h0Z"/>
      <path class="cls-1" d="M34.87,255.88c.03.45.01.93.54,1.07.02.18,0,.36,0,.54.39,4.64,2.55,10.61,5.89,13.92.2,3.15,4.96,6.62,6.66,9.13.95,1.41,1.52,3.16,2.44,4.78,1.29,2.26,2.43,4.69,3.75,6.96-1.58-.2-1.08,1.84-1.9,3.19-2.97,4.89-6.16-.25-9.87.02-.48,1.75,1.29.78,1.55,1.1.38.47.1,2.77-.76,3.17-1.1.49-.9-1.43-1.6-1.6-2.14-.52-1.53,2.9-1.28,3.96.28,1.23,1.81,1.93.21,2.99-2.09.79-2.5-3.56-1.87-4.8l-2.67-.54,1.06,2.92-2.67.82c-.47-1.27-.87-3.62-2.14-3.21-.03-.17.02-.36,0-.54-.1-.87.08-1.8,0-2.68h-1.07c-.02-.17.02-.36,0-.53-.11-.87.09-1.8,0-2.68h-1.07c-.02-.17.02-.36,0-.53-.11-.87.09-1.8,0-2.68h-1.07c-.02-.17.02-.36,0-.53-.31-2.65-.8-3.05-1.06-4.11-.29-1.2.9-4.24-1.08-3.92-.02-.18.02-.36,0-.54-.5-4.78-1.66-10.45-1.65-15.25.02-9.2,2.77-16.31,5.93-23.82,1.91-4.53,6-9.21,10.17-11.78-5.37,8.15-7.18,15.28-6.42,25.16h-.02Z"/>
      <path class="cls-1" d="M40.76,321.72c2.3,3.44,3.59,7.17,5.68,11.19.34.66,1.07,1.1,1.42,1.8.38.76.33,2.42.43,2.51.2.19,1.56-.1,2.23.16,2.13.82,5.38,3.49,7.61,3.09,1.52-.27,1.44-1.78,4.32-1.67,2.37.09,2.27,1.28,3.31,1.58,1.83.53,2.01-.92,2.86-1.24,1.3-.48,2.95-.23,4.02-1.33,1.07-1.1,1.06-4.3,2.39-5.11,1.14-.7,6.92-1.14,8.22-.73,1.31,1.08,5.45,5.91,6.76,3.12,1.65,3.65,3.59,8.11,5.35,11.78-1.74,2.71-5.73,2.8-8.18,3.86-2.73,1.19-8.63,4.58-10.54,6.58-.58.6-.52,1.71-1.08,2.13-2.5,1.86-10.16,1.52-13.36,2.4-.02-1.86-2.64-3.96-4.3-4.8-.68-1-3.11-3-3.21-3.21-.16-.31.06-1.59-.42-2.51-4.93-9.55-10.24-19.4-13.5-29.6h0Z"/>
      <path class="cls-1" d="M246.29,323.32c1.22,1.09-.42,2.97-.42,4.13,0,2.59,3.79,1.28,4.74,2l.79,1.94c2.19.75,2.96-3.7,5.53-2.1.65.4,1.21,6.74.61,7.96,4.24-1.74,3.01,2.6,6.05,3.35,1.8.44,3.45-.41,5.34-.01,1.89.4,5.16,2.02,6.83,2.82,3.18,1.52,2.87-3.36,5.87-2.41l.06-2.1c.17-.23.91.04,1.01-.04-1.51,3.29-2.64,6.96-4.28,10.17-2.07,4.05-4.76,7.64-7.49,11.24-2.8,2.31-9,2-12.34.83-2.02-.71-1.89-4.46-5.31-5.93-.79-.34-1.96-.07-2.7-.52-.81-.49-.68-2-1.42-2.46-.91-.56-2.63-.38-3.79-.89-.95-.42-1.42-1.58-2.57-1.75-1.63-.24-2.87,1.15-3.64,1.01-1.46-.28-1.93-3.21-3.56-3.13.51-1.06.72-3,1.07-3.75,3.16-6.73,6.67-13.49,9.63-20.34v-.02Z"/>
      <path class="cls-25" d="M78.23,220.56c-.91-.03-2.43-.15-3.21,0-9.66,1.88-11.14,19.14-10.7,26.76-3.5,1.93-2.72-2.51-6.04-1.5-2.45.74-7.23,7.08-9.87,8.34-3.28,1.57-9.52,1.14-12.99,3.33-.01-.18.02-.36,0-.54-.04-.46-.01-.9-.54-1.07-.75-9.87,1.05-17,6.42-25.16.16-.24.21-.63.54-1.07,1.28-1.71,3.48-2,5.35-3.75,1.86-.29,3.58-1.02,5.35-1.61,4.08-1.36,10.06-2.56,12.85-4.82l12.85,1.07v.02Z"/>
      <path class="cls-26" d="M250.57,221.09c-.07,1.2-.33,1.48.65,2.33,1.92,1.66,5.39,3.22,6.76,5.51,3.68,6.16,2.19,18.05.99,24.92-.33,1.92-2.43,12.78-4.13,12.73-1.55-1.74-1.01,1.65-2.46,2.09-2.67.8-1.28-2.43-1.33-3.37-.25-4.23-1.37-7.08-1.56-12.1-.11-3.09.69-10.02-4.82-7.49-3.11.61-2.72-1.89-3.97-3.26-.84-.92-2.02-.93-2.74-1.54-1.27-1.08-1.36-3.37-3.48-4.12,0-1.25,1.35-3.42,2.19-4.58,1.03-1.43,3.19-2.18,3.18-4.7,3.19-3.2,5.96-5.65,10.7-6.42h.02Z"/>
      <path class="cls-26" d="M228.09,333.49c-.01,1.99-1.39,2.61-1.98,4.17-1.97,5.25-2.86,9.67-6.02,14.31-2.15,3.16-8.01,6.84-10.34,10.25l-4.15.7v.54c-1.63-1.29-4.25-2.35-5.88-4.02-7.31-7.45-6.49-20.84-4.29-30.23.81,1.09.75,3.86.58,5.12-.13.99-1,.7-1.1,1.13-.27,1.14.14,2.69,0,3.91,3.67-1.98,5.72,1.98,8.72,1.51.52-.08,2.79-1.96,2.9-2.19.45-.97-.52-2.33,1.22-1.99.15,2.31.2,4.11,1.58,6.17.62.42,1.66.35,2.39.23,4.12-.66,10.8-14.82,12.62-18.71,1.26,1.5.93,4.52,1.72,6.04.7,1.35,2.04.65,2.03,3.06Z"/>
      <path class="cls-26" d="M123.19,329.21c1.82,1.55.85,4.35,1.07,6.42,1.55.54.7-1.79,2.4-1.06,1.34.57.44,2.94,1.04,3.78.41.58,1.74.37,2.42.79,1.11.68.86,2.96,3.25,2.17,4.76-1.58,1.47-4.79,3.2-8.35,2.33,14.34,1.04,21.97-10.7,30.51-.49-.28-1.04-.49-1.61-.54-1.48-1.61-4.22-2.37-5.86-3.51-5.41-3.75-13.41-18.46-16.37-24.87-.34-.75-.11-1.82-.25-2.13,2.39-1,2.92,1.35,3.52,1.5.39.1,1.05-.37,1.49-.28.59.13,5.2,4.12,4.62.38.75,1.38,3.51,5.76,4.47,6.77.38.4,2.56,1.97,3.01,2.11,6.44,2.04,4.64-10.42,4.3-13.7h0Z"/>
      <path class="cls-18" d="M324.44,94.78c-8.95,6.61-10.52,23.1-23.84,22.5-.55-.02-4.84-.52-3.46-1.63,7.36-.62,12.84-7.58,15.52-13.92-7.35,2.12-24.16,13.7-31.05,12.62-8.28-1.3-15.75-16.59-7.17-20.07,7.27-2.94,13.21,7.23,13.88,13.34l32.9-13.93h3.22v1.09Z"/>
      <path class="cls-26" d="M267.17,249.99c-1.55,13.9-10.27,30.94-15.52,43.89l-4.25-.58-.03-1.03c.75-.91,6.72-20.08,7.25-22.46.24-1.08.34-2.13.24-3.23,1.7.05,3.79-10.82,4.13-12.73,1.2-6.87,2.69-18.76-.99-24.92-1.37-2.29-4.84-3.85-6.76-5.51-.98-.85-.73-1.13-.65-2.33.17-.03.36.03.54,0,1.55-.22,3.49.55,4.82-.54,10.75,3.66,12.31,19.8,11.24,29.44h-.02Z"/>
      <path class="cls-18" d="M39.68,101.73c-6.94-4.64-14.55-2.71-20.86,1.87-.01.95,14.67,3.78,16.58,4.28s11.34,2.96,12.16,3.63c2.81,2.29,2.43,10,1.49,13.23-3.86,13.27-16.29,6.52-12.07-5.65.72-2.07,1.99-3.16,2.7-5.06L2.19,103.03l.03-2.36c8.6,3.44,13.23-1.18,20.34-4.01,7.11-2.83,14.78-3.47,17.12,5.08h0Z"/>
      <path class="cls-26" d="M79.83,221.09c.18.02.36-.03.54,0,.14,1.29.25,1.42-.66,2.33-2.83,2.8-5.9,3.6-7.48,8-5.48,15.23,6.17,45.4,11.89,60.32-.08,2.02-2.67,2.12-4.28,2.68-.16.06-.37-.05-.54,0l-10.7-26.76c-1.67-6.74-3.88-13.33-4.28-20.34-.43-7.63,1.05-24.89,10.7-26.76,1.1,1.08,3.29.37,4.82.54h0Z"/>
      <path class="cls-18" d="M223.81,16.63c.45.14,1.91-1.07,1.98-1.22.46-1-.49-2.34,1.23-1.99.27,2.99-.35,6.47-.01,9.38.51,4.38,2.35,9.37,2.16,13.63v.54h-1.07c-.1.86.13,1.85,0,2.68-.03.17.03.36,0,.54-1.67-.78-3.07,5.82-4.28,4.28-.5-.63,1.97-5.07,2.11-6.18.59-4.71-.88-8.32-1.03-12.77.06-.5-.79-.4-1.08-.31-.47.15-.77.43-.99.86-4.36,7.16-7.69,17.37-12.29,24.14-.86,1.26-2.84,2.83-4.32,3.09-.81.14-1.63-.41-2.38-.27-.41.07-.32,1.03-.71,1.11-.68.13-3.59-.56-4.48-.81-12.62-3.66-12.58-18.01,2.59-14.36,2.99.72,4.88,2.85,7.31,4.45l13.13-22.48c1.17.45,1.77-2.8,2.14-3.75.06-.16-.06-.38,0-.54v-.02Z"/>
      <path class="cls-19" d="M28.98,290.14c.02.18-.02.36,0,.54.1.91.37,2.03,1.07,2.68.02.18-.02.36,0,.54.12.93.35,2.02,1.07,2.68.02.18-.02.36,0,.54.12.93.35,2.02,1.07,2.68.02.18-.03.36,0,.54.7,3.93,6.35,18.09,8.56,21.41,3.26,10.2,8.57,20.05,13.5,29.6.48.92.26,2.2.42,2.51-1.68.15-2.29,1.9-3.75,2.68-1.5-.97-2.5-2.84-3.43-4.33-6.74-10.73-11.36-22.95-15.83-34.75-2.8-7.37-4.8-13.26-6.96-20.87,4.18-.31,3.47-5.31,3.21-8.56l1.07,2.14v-.03Z"/>
      <path class="cls-19" d="M307.31,294.95c-1.91,7.21-4.35,13.91-6.96,20.87-1.58,4.22-3.05,8.71-4.82,12.85-2.49,5.82-5.96,13-9.01,18.56-1.62,2.96-3.48,6.51-5.98,8.74-.51-1.97-.63-4.03-.51-6.07l-1.63-.89c1.64-3.21,2.77-6.88,4.28-10.17,2.85-2.27,7.78-17.4,9.63-21.41,1.15-1.08,3.55-8.65,4.28-10.7,2.05-5.72,4.73-12.2,6.42-17.66-.42,3.09.87,5.86,4.28,5.89h.02Z"/>
      <path class="cls-18" d="M106.59,2.71c2.23,1.8,13.13,3.37,16.59,4.28.3,1.62-.82,1.03-1.85,1.07-3.48.14-6.99-.1-10.46,0,.35.85.55,1.78,1.61,1.6,4.18,8.38,14.64,17.11,18.65,24.96,5.31,10.4-15.83,24.07-15.49,9.56.11-4.74,4.11-9.55,8.6-10.7-4.7-7.51-10.16-14.52-14.99-21.94-.84-1.28-1.42-2.9-2.13-4.03.57-1.91-.99-1.51-1.07-1.61-.16-.19.3-1.44-1.07-1.07-.02-.16,0-.37,0-.54.02-.53-.03-1.07,0-1.61h1.61v.03Z"/>
      <path class="cls-21" d="M245.22,111.37c-3.16,2.6-7.05,3.63-5.89,8.56-8.93-6.87-19.96-13.14-30.51-17.13-1.32-4.09,3.81-2.98,5.07-4.83.61-.9.73-3.11.82-4.26,9.74,2.34,22.65,11.43,30.51,17.66Z"/>
      <path class="cls-1" d="M95.35,332.42c5.7,12.32,13.83,29.37,28.9,30.51.57.04,1.11.26,1.61.54-1.6,1.16-1.55,2.21-4.28,3.21-4.58,1.68-8.62.12-12.99-1.73-7.05-3-8.16-8.93-11.36-15.4-.51-1.04-1.56-1.99-1.88-2.67-1.76-3.66-3.7-8.12-5.35-11.78-.54-1.2-.91-3.78-1.61-5.35,2.84-.02,3.89,3.45,6.96,2.68h0Z"/>
      <path class="cls-17" d="M218.99,372.03c4.14,1.84,8.06,3.68,12.58,4.31.99.14,2.17-.69,1.87,1.05-.52-.02-1.61-1.2-2.41,0l-7.86,16.5c-5.42-.61-3.43-.69-5.69,3.14-1.88,3.19-3.93,6.2-5.98,9.28-.78-1.73-1.64-3.57-3.21-4.82,2.06-3.22,3.88-6.7,5.83-10,.14-1.17-1.67-1.14-2.01-2.13-.9-2.59,6.74-13.68,6.89-17.31h0Z"/>
      <path class="cls-6" d="M310.52,323.32l-6.42-2.68c.39-1.05.71-2.15,1.07-3.21,2.83-8.26,5.7-17.22,6.89-26.03.2-1.47.76-5.42.6-6.62,2.56.51,7.55,3.92,7.52,6.65-.11,9.65-6.11,22.94-9.66,31.88h0Z"/>
      <path class="cls-6" d="M16.67,285.32h2.14c1.11,12,3.84,24.03,8.03,35.33l-6.42,2.14c-2.5-6.3-11.23-27.44-8.82-33.17.6-1.43,3.06-2.39,4-3.22l.54-.54c.19-.16.34-.38.54-.54h0Z"/>
      <path class="cls-20" d="M35.94,208.78l1.27.5,11.55-3.69c.86,3.44,1.92,6.86,3.23,10.16.28.7.55,1.34.56,2.11.96.85,10.9-3.74,12.82-2.65-1.1,3.35-5.64,3.24-8.19,3.76-.26.05-2.72,3.04-4.63,2.15l-.02,3.19c-1.77.59-3.49,1.32-5.35,1.61.48-.45,1.85-.69.79-1.61l-6.68,2.15c-1.54-5.94-4.16-11.59-5.35-17.66v-.02Z"/>
      <path class="cls-5" d="M47.72,162.75l-.54,4.28,8.03,2.15c-.08.49-.08,1.66,0,2.14-1.3-.34-1.56,1.85-1.84,2.7-2.63,7.97-4.24,16.23-5.12,24.59-.45.14-4.29,1.82-4.94,2.16-.74.39-.03,1.43-1.48,1.05.18-4.79-.25-9.66,0-14.45.44-8.52,2.89-16.68,5.89-24.62Z"/>
      <path class="cls-20" d="M295,209.32c-1.37,5.62-3.6,11.23-4.82,16.59l-11.78-3.21c-.03-.46.19-1.18-.09-1.51-.48-.57-8.52-2.86-10.09-3.57-1.23-.56-1.85-1.73-3.2-1.88,0-.27.47-.74.54-1.07l13.38,2.68c.13-.61-.17-1.67,0-2.14.08-.23.71-.73.96-1.43.54-1.51,2.03-7.89,3.12-8.14l11.99,3.68h-.01Z"/>
      <path class="cls-5" d="M283.76,163.82c1.21,1.71,1.84,4.39,2.41,6.42,1.65,5.86,3.58,13.52,4.01,19.54.29,4.03-.54,9.09-.04,12.87.16,1.18,1,.65,1.65,1.3-.81-.13-1.82.1-2.68,0l.54-1.07-6.89-3.55c-.37-8.52-2.21-17.8-4.89-25.89,3.68-1.2,4.2-3.87,6.2-6.67-.34-.97-.18-2.04-.32-2.97v.02Z"/>
      <path class="cls-23" d="M62.17,202.89c.1,1.05-.08,2.16,0,3.22h1.07c0,.17-.01.35,0,.53.1,1.23-.08,2.51,0,3.75h1.07c.05.16-.05.36,0,.53.22,1.81.07,1.31-1.16,1.76-3.42,1.26-7.55,2.37-11.15,3.06-1.32-3.29-2.37-6.71-3.23-10.16l-11.55,3.69-1.27-.5c-.22-1.11-1.13-1.07-.02-2.97,1.25-2.15,2.64-1.51,4.3-1.84,5.21-1.05,12.26-4.84,17.13-6.42.64-.21,2.74-.66,3.23-.31,1.23,1.89,1.38,3.56,1.59,5.67h0Z"/>
      <path class="cls-23" d="M275.73,198.08c.2.06.74.74,1.42.96,4.11,1.38,8.26,2.92,12.5,3.85l-.54,1.07c.85.1,1.87-.13,2.68,0,1.46.24,2.5.22,3.44,1.64,1.57,2.35.06,2.51-.23,3.71l-11.99-3.68c-1.08.25-2.58,6.62-3.12,8.14-.25.7-.87,1.2-.96,1.43-4.11-.87-8.51-1.84-12.31-3.75.08-.31-.08-.76,0-1.07h1.07c.08-.88-.1-1.8,0-2.68.14-1.26.24-3.13.54-4.28.16-.61,2.39-6.01,2.67-6.19,1.33-.18,3.55.43,4.82.84h.01Z"/>
      <path class="cls-11" d="M90,108.16c2.22-.35.04,2.52,0,3.54-.1,2.59,4.21,3.63,4.81,6.09-2.37,1.89-4.65,3.92-6.96,5.89-.91.77-1.47,1.54-2.14,2.14-3.25,2.9-7,5.82-10.17,9.1.26-3.86-5.12-6.38-3.75-10.17,5.81-6.29,11.04-11.45,18.2-16.59h.01Z"/>
      <path class="cls-1" d="M236.66,343.66c-.35.75-.57,2.69-1.07,3.75-1.48,3.08-6.55,13.41-8.6,15.22-2.53,2.24-7.01,3.04-10.11,4.34l-6.99.24c-1.94-1.31-2.86-2.62-4.28-3.75v-.54c2.13.86,5.38,0,7.48-.81,7.94-3.1,15.53-14.82,19.28-22.2,4.08-.82,1.38,3.52,4.28,3.75h.01Z"/>
      <path class="cls-4" d="M62.17,136.52c-.12.29.16,1.15-.02,1.74-.16.53-2.6,2.76-2.53,4.32.16,3.65,4.37,3.05,3.62,8.93-.58,4.55-7.19,12.38-8.03,17.66l-8.03-2.15.54-4.28c3.48-9.21,8.22-18.62,14.45-26.23h0Z"/>
      <path class="cls-4" d="M275.19,145.09c2.7,4.53,7.85,13.72,8.56,18.73.13.92-.03,2,.32,2.97-2.01,2.8-2.53,5.47-6.2,6.67-2.51-7.58-7.51-17.86-11.78-24.62,1.68-2.82,2.61,1.2,5.63.04,2.29-.87,1.85-2.47,3.47-3.79Z"/>
      <path class="cls-11" d="M245.22,111.37c6.29,4.99,11.32,9.57,16.59,15.52-1.29,1.56,1.01.53.56,2.4-.8,3.33-2.94-.28-4.03-.27-.51,0-4.54,2.39-5.63,2.69-3.51-3.72-9.29-8.63-13.38-11.78-1.16-4.93,2.73-5.96,5.89-8.56Z"/>
      <path class="cls-10" d="M275.19,145.09c-1.61,1.32-1.18,2.92-3.47,3.79-3.02,1.15-3.95-2.86-5.63-.04-2.66-4.22-5.98-7.53-9.1-11.24-1.27-1.51-2.99-4.52-4.28-5.89,1.09-.3,5.12-2.69,5.63-2.69,1.09,0,3.22,3.59,4.03.27.45-1.87-1.85-.84-.56-2.4,5.03,5.68,9.49,11.67,13.38,18.2Z"/>
      <path class="cls-17" d="M50.93,356.51c-1.88,1.01-2.24-.12-4.01-.05-1.14.05-2.83.37-4.02.58,1.33-2.23-.61-2.78-.89-3.39-1.99-4.34-4.62-8.52-6.61-12.67-.17-.36-.37-.72-.54-1.07l-.54-1.61c-2.38-5.16-4.93-11.28-6.96-16.59.43-3.16,2.8-2.1,4.28-4.28,4.47,11.79,9.1,24.02,15.83,34.75.94,1.49,1.93,3.36,3.43,4.33h.03Z"/>
      <path class="cls-21" d="M109.27,96.92c.31,1.58-1.35.91-2.17,1.83-1.7,1.88-.69,4.05,1.08,5.42,1.77,1.37,3.9.55,3.24,3.45-2.4,1.16-15.22,8.58-16.06,10.17h-.54c-.61-2.46-4.92-3.51-4.81-6.09.04-1.03,2.22-3.89,0-3.54,4.87-3.5,13.71-9.53,19.27-11.24h-.01Z"/>
      <path class="cls-10" d="M75.55,134.92l-12.31,16.59c.75-5.88-3.46-5.28-3.62-8.93-.07-1.57,2.36-3.8,2.53-4.32.18-.58-.1-1.45.02-1.74,2.01-4.71,6.35-8.21,9.63-11.78-1.38,3.79,4,6.31,3.75,10.17h0Z"/>
      <path class="cls-13" d="M310.52,323.32c-2.71,6.84-4.8,13.34-8.56,19.8h-1.07c-.08.51.09,1.13,0,1.61-.03.18.05.38,0,.54-2.08-.26-4.72-.34-6.42-1.61.08-.13-.07-.39,0-.54h1.07c.09-.51-.1-1.15,0-1.61.5-2.28,2.24-6.26,3.21-8.56,1.68-4,3.77-8,5.35-12.31l6.42,2.68Z"/>
      <path class="cls-13" d="M16.67,285.32c.78-.62,3.64-3.66,4.28-3.21.78,4.95,2.4,9.66,3.75,14.45,2.15,7.62,4.16,13.5,6.96,20.87-1.48,2.19-3.85,1.12-4.28,4.28-.14-.37-.4-.7-.54-1.07-4.19-11.3-6.92-23.33-8.03-35.33h-2.14Z"/>
      <path class="cls-1" d="M26.84,320.64c.14.37.4.7.54,1.07,2.03,5.32,4.57,11.43,6.96,16.59.14.29.19.87.54,1.61.17.35.36.71.54,1.07-.63,2.96-4.5,1.99-6.08.57-.54-.48-.22-1.27-.45-1.52-.28-.31-.91-.06-.96-.12-2.94-3.7-5.65-12.47-7.49-17.13l6.42-2.14h-.02Z"/>
      <path class="cls-17" d="M295.53,328.67l.09,1.51c1.58.25,2.94,1.05,3.13,2.77-.97,2.31-2.71,6.28-3.21,8.56-1.04.19-.8,1.1-1.07,1.61-.07.14.08.4,0,.54-2,3.52-4.65,7.27-6.34,11.09-.39.89-.88,1.32-.09,2.29-2.79-.42-4.62-.69-7.49,0-.07-.34.07-.78,0-1.07,2.5-2.23,4.36-5.78,5.98-8.74,3.05-5.56,6.52-12.74,9.01-18.56h-.01Z"/>
      <path class="cls-13" d="M312.66,284.78c.16,1.2-.4,5.16-.6,6.62-1.19,8.81-4.06,17.77-6.89,26.03-2.24-.22-4.17,1.02-4.82-1.61,2.61-6.96,5.05-13.67,6.96-20.87,1.11-4.19,2.02-8.55,2.68-12.84,1.35-.07,2.52,1.48,2.67,2.67Z"/>
      <path class="cls-18" d="M17.29,169.1c-1.33-2.13,2.34-5.02,1.52-5.81-3.99-.39-7.52,1.89-11.24,2.94-.25,1.29.09,1,.66,1.5,2.05,1.79,10.09,6.5,11.06,8.19,3.53,6.16-7.46,8.7-4.29-.77-4.68-3.53-9.78-6.83-14.23-10.64-.38-.33-1.01.02-.68-1.22,1.59-.06,2.75.65,4.4.43,2.73-.36,10.96-4.52,12.73-3.97,2.91.9,7.06,7.72,3.74,9.7-.77.46-3.34.18-3.68-.36h.01Z"/>
      <path class="cls-18" d="M60.7,47.01c-2.39-2.42,1.6-4.45,1.43-5.41l-4.07-3.48-5.46,6.16-.05.71c1.47.89,8.08,5.6,8.44,6.82,2.29,7.67-7.62,6.75-3.34-.38l-9.27-8.29,8.16-9.9c2.26,2.9,12.33,9.56,7.74,13.61-.96.84-2.67,1.09-3.59.16h.01Z"/>
      <path class="cls-2" d="M182.06,435.19c-.17.39.16,1.38-.51,1.9-.53.41-1.25.11-1.63.24.06-.34-.08-.79,0-1.07.55-.31,1.54-.75,2.14-1.07Z"/>
      <path class="cls-2" d="M206.68,403.61l1.6-.53c.03,1.27.85,2.62.47,3.9-.31,1.05-1.55,1.11-2.09,1.84-.85,1.14-1.28,3.34-2.41,4.95-4.9,6.97-14.22,17.15-22.19,21.42.5-1.16,2.34-3.19,3.21-4.28,7.2-9.03,14.94-17.51,21.41-27.3Z"/>
      <path class="cls-13" d="M185.27,430.9c-.87,1.09-2.71,3.12-3.21,4.28-.6.32-1.59.76-2.14,1.07.52-1.77,3.62-4.43,5.35-5.35Z"/>
      <path class="cls-13" d="M208.29,401.47c1.57,1.24,2.43,3.09,3.21,4.82-4.97,7.46-10.18,15.1-16.59,21.41-2.6,2.56-5.15,5.23-7.75,8.05-1.83,1.99-3.88,2.56-5.23,4.66l-4.16-.4c-.3-1.5.84-2.24,2.14-2.67.38-.13,1.1.17,1.63-.24.68-.52.34-1.51.51-1.9,7.96-4.27,17.28-14.45,22.19-21.42,1.13-1.61,1.57-3.8,2.41-4.95.54-.73,1.77-.78,2.09-1.84.38-1.29-.44-2.63-.47-3.9l-1.6.53c.54-.81,1.26-1.6,1.61-2.14h0Z"/>
      <path class="cls-8" d="M27.91,339.91c.05.06.68-.19.96.12.23.25-.08,1.04.45,1.52,1.58,1.42,5.45,2.38,6.08-.57,1.98,4.15,4.62,8.33,6.61,12.67.28.6,2.22,1.16.89,3.39-.82.15-1.46,1.33-3.36.99-3.78-.69-10.28-14.31-11.63-18.11h0Z"/>
      <path class="cls-18" d="M252.18,62.13l-6.24,13.42c-1.82,1.05-4.72.54-4.49-1.9.21-2.27,3.57-1.4,4.6-2.41.65-.64,1.78-4.92,1.33-5.37l-5.85-.49c-.87,2.28-.18,6.35-1.62,8.28-2.28,3.04-7.19-.44-4.61-2.47.96-.75,3-.49,3.56-1.39l1.58-8.73,11.75,1.05h0Z"/>
      <path class="cls-8" d="M300.89,345.27c-.6,1.97-5.76,10.5-7.22,11.78-2.3,2.01-3.47.32-5.63,0-.79-.97-.3-1.41.09-2.29,1.68-3.82,4.34-7.57,6.34-11.09,1.7,1.26,4.34,1.35,6.42,1.61h0Z"/>
      <path class="cls-18" d="M326.93,164.94c3.16-1.07,6.1,4.55,2.86,6.11-.94.45-6.02.61-8.04,1.06-2.4.54-5.3,2.35-7.34,1.48-3.12-1.33-1.85-5.31,1.22-5.47,3.07-.16,4.91.67,8.4-.69,1.91-.74,2.19-2.24,2.9-2.49Z"/>
      <path class="cls-18" d="M283.76,47.67l2.14-2.14.54,4.28c9.56,1,3.09,13.17-2.96,7.5-3.37-3.16-.89-6.19.28-9.65h0Z"/>
      <path class="cls-18" d="M328.58,157.54c2.14,2.95.2,5.23-3.31,4.65-.76-.12-1.26-.87-2.06-.91-.63-.03-5.82,1.16-6.54,1.46-1.74.74-1.57,2.43-3.23,2.69-5.02.79-5.18-5.02-1.32-5.67,1.37-.23,1.84.67,2.98.82,1.64.22,6.34-.52,7.86-1.19,1.82-.81,2.95-3.82,5.62-1.86h0Z"/>
      <path class="cls-18" d="M283.76,47.67c2.01-5.93,4.61-11.66,6.43-17.66.35-.32,7.88,3.36,6.41,4.82l-5.34-1.6-.56,2.36c2.31,1.74,6.15,2.41,5.36,6.2-2.38-.85-3.72-3.78-6.41-3.75-.61,4.08-3.65,7.5-3.22,11.77l-.54-4.28-2.14,2.14h0Z"/>
      <path class="cls-15" d="M194.91,427.69c.05,1.53-1.41,1.9-2.14,2.68l-.54.54c-1.14,1.21-2.3,2.96-3.4,4.09-1.58,1.64-11.61,11.42-12.64,11.74-2.24.69-4.65-2.1-4.25-3.68.25-.99,6.75-6.1,7.97-6.8-.08.28.06.73,0,1.07-1.31.43-2.44,1.18-2.14,2.67l4.16.4c1.35-2.1,3.39-2.68,5.23-4.66,2.6-2.81,5.14-5.49,7.75-8.05Z"/>
      <path class="cls-18" d="M91.07,69.08c.76.89,3.49,4.94,3.76,5.11.92.57,2.03-.3,2.96-.32,3.6-.09,1.91,6.46-2.05,5.29-2.79-2.61-4.59-6.37-6.81-9.54v-1.07l2.14.53Z"/>
      <path class="cls-17" d="M65.38,219.49c-2.78,2.25-8.77,3.46-12.85,4.82l.02-3.19c1.91.89,4.37-2.1,4.63-2.15,2.55-.52,7.1-.41,8.19-3.76h.54c.34,2.19.02,2-1.07,4l.54.28Z"/>
      <path class="cls-2" d="M41.83,187.37c-.25,4.78.18,9.66,0,14.45,1.45.38.74-.66,1.48-1.05.65-.34,4.49-2.02,4.94-2.16.65-.21,3.38-1.02,3.58-1.06.77-.17,1.68.15,2.46-.02.09-.02,1.41-.98,1.45-1.06v1.07h1.61c-4.87,1.58-11.92,5.38-17.13,6.42,1.34-5.38-.33-11.25,1.61-16.59Z"/>
      <path class="cls-17" d="M265.02,215.74c1.36.16,1.97,1.32,3.2,1.88,1.56.71,9.61,3,10.09,3.57.28.33.06,1.05.09,1.51l-.54,1.07c-3.69-1.33-8.91-1.49-11.78-4.28.1-1.48-1.15-2.22-1.07-3.75h.01Z"/>
      <path class="cls-18" d="M229.16,36.43c.2-4.26-1.65-9.25-2.16-13.63-.34-2.91.28-6.39,0-9.38-1.72-.35-.77.99-1.23,1.99-.07.15-1.53,1.36-1.98,1.22,1.08-2.57,3.08-4.79,3.22-7.49,4.79-.14,1.76,2.5,1.2,4.69-1.89,7.5,2.78,15.19.93,22.61h.01Z"/>
      <path class="cls-18" d="M8.11,218.95c.88-.55,1.24-.51.98-1.73-.35-1.61-5.18-11.21-4.73-11.65,2.39.26,3.7,2.31,6.42,1.61.13,1.93-1.94,1.66-3.21,1.61-.68.63,4.13,9.3,4.29,11.03.1,1.12-.61,3.57-2.15,3.42.03-.03-.03-.48.19-.88.1-.17.77-.18.86-.57.2-.86-.06-1.93.01-2.84-.87.06-1.82-.1-2.68,0h.02Z"/>
      <path class="cls-16" d="M278.94,215.2c-.17.47.13,1.53,0,2.14l-13.38-2.68c.3-1.49.81-2.23,1.07-3.21,3.8,1.91,8.2,2.88,12.31,3.75Z"/>
      <path class="cls-2" d="M65.92,215.2h-.54c-1.92-1.09-11.86,3.49-12.82,2.65,0-.77-.28-1.42-.56-2.11,3.6-.69,7.72-1.8,11.15-3.06,1.23-.45,1.39.05,1.16-1.76.26.94,1.35,2.64,1.61,4.28Z"/>
      <path class="cls-2" d="M31.13,242.5c-3.16,7.51-5.91,14.61-5.93,23.82,0,4.8,1.15,10.48,1.65,15.25-4.28-12.38-3.42-28.2,4.28-39.07Z"/>
      <path class="cls-18" d="M223.81,25.19c.29-.09,1.14-.19,1.08.31.16,4.46,1.62,8.06,1.03,12.77-.14,1.12-2.6,5.55-2.11,6.18,1.21,1.54,2.6-5.06,4.28-4.28-.63,3.69-4.76,5.97-8.03,6.96.57-1.93,2.37-3.1,3.3-4.99,2.78-5.64,1.15-11.09.44-16.96h.01Z"/>
      <path class="cls-18" d="M8.11,218.95c.86-.1,1.81.06,2.68,0-.08.91.18,1.98-.01,2.84-.09.39-.76.39-.86.57-.23.39-.16.85-.19.88-4.2,4.03-7.68-3.57-1.61-4.28h-.01Z"/>
      <path class="cls-18" d="M123.19,7c.57.15,1.33-.06,2.13.25,2.43.94,5.92,3.88,5.89,6.7l-4.1-3.66c-3.59-2.22-9.68-1.89-13.84-1.69-1.31.06-1.75-.39-.79,1.07-1.05.18-1.25-.75-1.61-1.6,3.47-.11,6.98.13,10.46,0,1.03-.04,2.15.55,1.85-1.07h0Z"/>
      <path class="cls-18" d="M88.93,69.62c-1.3-1.86-6.91-6.68-4.48-8.49.41-.31,6.11-3.66,5.01-1.41l-3.69,3.13c1.14,1.19,1.94,3.41,3.12,4.42,1.18,1.01,1.03.47,2.18,1.83l-2.14-.53v1.07-.02Z"/>
      <path class="cls-13" d="M290.18,225.91c-.24,1.04.09,2.6-.54,3.75-2.17-1.7-4.98-3.22-7.49-4.28.27-1.37-1.32-1.31-2.36-1.48l-.32.41c-.51-.19-1.07-.34-1.61-.54l.54-1.07,11.78,3.21Z"/>
      <path class="cls-18" d="M315.87,216.27c.09.87-.05,1.8,0,2.68h-1.61c-7.73-2.11.89-9.43,1.61-2.68Z"/>
      <path class="cls-18" d="M323.37,211.99c.6-.37,1.08-.9,1.87-.86l6.16,3.01c1.35,1.37-3.91,2.67-6.42.53l-1.61-2.68Z"/>
      <path class="cls-18" d="M323.37,211.99l1.61,2.68c-2.84-1.54-5.47,3.74-8,4.59-1.71.57-1.7-.03-2.7-.31h1.61c-.05-.87.09-1.81,0-2.68.57.66.41,1.56,1.62.82,1.72-1.06,3.92-3.9,5.88-5.1h-.02Z"/>
      <path class="cls-2" d="M41.3,226.44l6.68-2.15c1.05.92-.32,1.17-.79,1.61-1.87,1.75-4.08,2.03-5.35,3.75-.5-.98-.3-2.32-.54-3.21Z"/>
      <path class="cls-18" d="M321.22,93.7l7.49-3.21-.06,2.61c-1.14.23-3.36,1.03-4.22,1.66v-1.07h-3.21Z"/>
      <path class="cls-18" d="M104.99,4.32c-1.7-1.54-4.34-3.55-.33-4.32.72.37,1.8,2.61,1.93,2.71h-1.61c-.03.53.02,1.07,0,1.61h.01Z"/>
      <path class="cls-2" d="M26.84,282.11c1.98-.33.79,2.72,1.08,3.92.26,1.07.74,1.46,1.06,4.11l-1.07-2.14c-.14-1.78-.85-3.86-1.07-5.89Z"/>
      <path class="cls-2" d="M64.31,210.39h-1.07c-.08-1.23.1-2.51,0-3.75,1.22.93.77,2.67,1.07,3.75Z"/>
      <path class="cls-18" d="M229.16,36.97c0,1.09.21,2.28-1.07,2.68.13-.83-.1-1.82,0-2.68h1.07Z"/>
      <path class="cls-2" d="M63.24,206.1h-1.07c-.08-1.05.1-2.16,0-3.21l1.07-.54c-.2,1.81-.08,1.99,0,3.75Z"/>
      <path class="cls-26" d="M253.25,220.56c.89-.03,1.79.02,2.68,0-1.33,1.09-3.27.31-4.82.54.37-.81,1.44-.51,2.14-.54Z"/>
      <path class="cls-26" d="M78.23,220.56c.59.02,1.35-.16,1.61.54-1.53-.16-3.72.55-4.82-.54.79-.15,2.31-.03,3.21,0Z"/>
      <path class="cls-16" d="M267.7,207.71c-.1.87.08,1.8,0,2.68h-1.07c.24-.91-.08-2.07,1.07-2.68Z"/>
      <path class="cls-7" d="M136.03,331.35h-1.07c.08-1.01-.41-2.62.53-3.21.21.88.33,2.18.54,3.21Z"/>
      <path class="cls-18" d="M223.81,17.17c-.37.95-.97,4.2-2.14,3.75.31-1.38.85-3.04,2.14-3.75Z"/>
      <path class="cls-21" d="M214.18,93.7c-.64-.12-1.46.1-2.14,0v-1.07c.7.29,1.68.13,2.14,1.07Z"/>
      <path class="cls-18" d="M104.99,4.86c1.37-.37.91.88,1.07,1.07.08.1,1.64-.31,1.07,1.61-.22-.36-.85-1.3-1.07-1.61-.19-.26-.8.74-1.07-1.07Z"/>
      <path class="cls-8" d="M301.96,343.12c-.32.55-.43,1.23-1.07,1.61.09-.47-.08-1.09,0-1.61h1.07Z"/>
      <path class="cls-21" d="M110.34,96.38l1.07.53c-.51.08-1.14-.09-1.6,0,.17-.19.34-.38.54-.54h-.01Z"/>
      <path class="cls-13" d="M192.23,430.9l.54-.54c-.17.18-.36.35-.54.54Z"/>
      <path class="cls-13" d="M15.6,286.39c.19-.16.34-.37.54-.54l-.54.54Z"/>
      <path class="cls-23" d="M208.82,102.8c10.55,3.99,21.58,10.26,30.51,17.13,4.1,3.15,9.87,8.05,13.38,11.78,1.29,1.36,3.02,4.38,4.28,5.89l.02,4.46c-.27,1.16-4.01.5-4.83.07-2.24-1.17-1.22-5.1-6.43-1.32-44.2-42.94-115.71-42.27-160.04,0-.89-.03-2.13,1.14-2.14,2.14-.98.99-2.4,2.29-3.21,3.21-1.53.26-1.24-.65-.84-1.64.59-1.45,3.86-5.76,3.98-6.23.3-1.16-1.68-3.33-1-4.97l5.88,1.6c.22-2.44-3.8-2.49-4.21-4.11l1.53-4.98c.67-.6,1.24-1.37,2.14-2.14l6.26-2.84c1.03-.77.9-2.42,1.23-3.05.83-1.59,13.66-9.01,16.06-10.17,29.66-14.34,66.48-16.52,97.41-4.82h.02Z"/>
      <path class="cls-14" d="M266.09,148.83c4.27,6.76,9.26,17.04,11.78,24.62,2.68,8.09,4.52,17.37,4.89,25.89l6.89,3.55c-4.23-.94-8.39-2.48-12.5-3.85-.68-.23-1.22-.9-1.42-.96-1.7-10.86-5.31-21.32-10.52-30.96-4.76-8.83-12.27-19.32-19.46-26.31,5.21-3.77,4.19.15,6.43,1.32.82.43,4.56,1.09,4.83-.07l-.02-4.46c3.11,3.71,6.44,7.02,9.1,11.24h0Z"/>
      <path class="cls-14" d="M85.72,125.82l-1.53,4.98c.4,1.62,4.43,1.67,4.21,4.11l-5.88-1.6c-.68,1.64,1.31,3.82,1,4.97-.12.47-3.39,4.78-3.98,6.23-.4.99-.69,1.9.84,1.64-7.43,8.38-14.94,20.53-19.27,31.04h-1.07c-.07.7.08,1.44,0,2.14-.04.35.06.76,0,1.07l-2.02-5.21c-.84-1.39-2.4-1.65-2.8-3.89-.08-.48-.08-1.65,0-2.14.84-5.28,7.45-13.12,8.03-17.66l12.31-16.59c3.17-3.28,6.92-6.2,10.17-9.1h-.01Z"/>
      <path class="cls-16" d="M55.21,171.31c.4,2.24,1.96,2.5,2.8,3.89l2.02,5.21c-.59,2.9-2.21,6.51-3.07,9.51-.47,1.64-.54,5.14-1.21,6.55-.04.08-1.36,1.04-1.45,1.06-.79.17-1.69-.15-2.46.02-.2.04-2.93.86-3.58,1.06.88-8.36,2.49-16.62,5.12-24.59.28-.85.54-3.05,1.84-2.7h0Z"/>
      <path class="cls-16" d="M61.1,177.2c-.29.71-.14,1.67-1.07,2.14.08-.7-.07-1.44,0-2.14h1.07Z"/>
      <path class="cls-14" d="M85.72,140.81c-.69.66-1.47,1.45-2.14,2.14.01-1,1.25-2.17,2.14-2.14Z"/>
      <path class="cls-22" d="M249.5,253.21c-.8,2.55-.71,5.45-1.22,8.15-3.12,16.77-16.48,47-23.94,63.04-1.81,3.9-8.49,18.05-12.62,18.71-.73.12-1.78.19-2.39-.23-1.38-2.06-1.43-3.86-1.58-6.17-1.1-16.56,10.71-40.19,17.4-55.66,3.29-7.59,6.67-16.51,10.58-23.67,1.35-2.46,6.63-10.6,8.94-11.66,5.51-2.52,4.7,4.4,4.82,7.49h0Z"/>
      <path class="cls-22" d="M85.72,245.71c.18,0,.36-.02.54,0,3.26,2.53,5.34,6.04,8.03,9.1.07.15-.07.39,0,.54,8.86,19.45,26.79,53.56,28.9,73.86.34,3.28,2.14,15.73-4.3,13.7-.44-.14-2.63-1.71-3.01-2.11-.96-1.01-3.72-5.4-4.47-6.77-7.06-12.99-15.06-33.07-20.34-47.1-3.89-10.35-11.8-30.85-8.56-41.21h3.21Z"/>
      <path class="cls-26" d="M111.41,334.03c.58,3.73-4.03-.25-4.62-.38-.44-.1-1.1.38-1.49.28-.6-.15-1.13-2.5-3.52-1.5-1.94-4.22-5.26-12.07-7.49-14.99-.2-.26-1.67-4.72-2.12-5.74-2.37-5.36-3.8-10.84-5.9-16.2,1.6-.91-1.02-4.41-.53-4.81,2.57.62,4.28-1.72,5.35-3.75,5.28,14.03,13.27,34.11,20.34,47.1h-.02Z"/>
      <path class="cls-26" d="M86.26,295.49c2.1,5.36,3.53,10.84,5.9,16.2.45,1.02,1.93,5.49,2.12,5.74l-1.01,4.5-1.66.31c-.18-.4-.84-.99-1.17-1.76-3.72-8.59-7.22-17.35-10.61-26.08,1.61-.56,4.2-.66,4.28-2.68.53,1.38,1.83,2.96,2.14,3.75v.02Z"/>
      <path class="cls-8" d="M86.26,245.71c3.1.29,2.94,1.24,4.12,1.52.94.22,2.3-1.05,3.14.63.5,1-1.76,2.12-.3,4.98.36.7.51.73,1.06,1.98-2.69-3.06-4.77-6.57-8.03-9.1h0Z"/>
      <path class="cls-8" d="M82.51,245.71c.1-.33-.32-1.08.31-1.09l2.9.02v1.07h-3.22.01Z"/>
      <path class="cls-1" d="M277.33,292.81c.66,4.87,6,2.21,9.11,5.61,1.93,2.1-.37,3.6,1.07,5.36,1.77,2.17,6.6,1.56,8.82.27l.27,2.68c-.74,2.05-3.13,9.62-4.28,10.7-1.71,1.61-2,3.13-3.05,5.51-.34.79.15,1.69-.51,2.01l-3.58.46c-2.59-4.62-2.44-2.46-5.95-2.6-2-.08-6.72-1.62-7.52-1.62s-2.87,1.89-4.55,1.06c1.99-5.51-2.19-3.46-3.67-4.36-.18-.11-.46-1.47-.9-2.03-1.86-2.37-4.24-4.05-5.6-6.76l-2.67.31c.08-1.41-.13-2.88,0-4.28.26-3,1.96-5.61,3.2-8.33,1.71-1.09,11.05,4.78,13.57,5.07.87-.26,4.15-6.65,4.94-7.97.35-.6,1.22-.93,1.3-1.08h0Z"/>
      <path class="cls-12" d="M294.46,262.84c-3.03,8.8-8.35,13.29-12.85,20.87-4.14-2.46-9.99-5.8-14.78-6.42-3.16.53-7.32,15.13-9.34,18.71l-5.85-1.06c4.19-13.54,14.26-30.56,15.52-44.96,8.16,1.68,14.4,7.34,22.18,10.74,1.7.72,3.85.25,5.12,2.11h0Z"/>
      <path class="cls-1" d="M278.41,289.07c-.51.88-.79,3.27-1.07,3.75-.09.15-.95.48-1.3,1.08-.78,1.32-4.06,7.71-4.94,7.97-2.52-.29-11.86-6.16-13.57-5.07-1.24,2.73-2.94,5.33-3.2,8.33-.98.34-1.1,1.2-1.47,2-2.44,5.29-4.25,10.87-6.55,16.19-2.97,6.85-6.47,13.61-9.63,20.34-2.9-.23-.2-4.57-4.28-3.75,3.96-7.79,7.19-17.04,10.7-25.16,2.85-6.59,5.86-13.15,8.56-19.8l5.85,1.06c1.96-5.07,4.2-10.04,6.46-14.97,4.86,1.96,11.08,3.99,14.45,8.03h0Z"/>
      <path class="cls-10" d="M281.62,283.71c-1.03,1.73-2.24,3.68-3.21,5.35-3.38-4.04-9.6-6.07-14.45-8.03.73-1.6.97-3.84,2.88-3.74,1.01.05,6.98,2.04,8.19,2.57,2.33,1.02,4.18,2.96,6.59,3.85Z"/>
      <path class="cls-20" d="M279.48,224.3l.32-.41c1.04.17,2.63.11,2.36,1.48-.78-.33-1.9-.79-2.68-1.07Z"/>
      <path class="cls-1" d="M54.14,292.28c1.01,1.74,4.84,9.2,6.27,9.56l13-5.82c.33-.06.82.09,1.07,0,1.18,5.35,3.72,10.94,5.89,16.06-3.31-.06-4.14-.36-5.67-3.18-2.2.52-2.96,2.78-5.56,2.11,1.78,4.56-1.8,5.63-5.65,5.91-1.08.08-2.27-.69-3.08-.48-.63.16-1.04,1.15-1.83,1.41-.84.28-1.86-.03-2.82.39-1.89.83-3.51,6.79-5.6,6.13-.49-.16-.61-1.15-1-1.41-2.42-1.63-2.2-2.47-3.05-3.11-1.14-.86-5.85-.67-6.33-1.45-.21-.47.06-1.25-.12-1.6-2.36-4.51-3.7-8.9-5.31-13.28l2.67-.82-1.06-2.92,2.67.54c-.63,1.24-.22,5.6,1.87,4.8,1.6-1.06.07-1.76-.21-2.99-.24-1.06-.86-4.49,1.28-3.96.7.17.5,2.09,1.6,1.6.86-.4,1.14-2.7.76-3.17-.26-.32-2.03.65-1.55-1.1,3.72-.28,6.9,4.87,9.87-.02.82-1.35.32-3.39,1.9-3.19h-.01Z"/>
      <path class="cls-24" d="M64.31,247.32c.4,7.01,2.62,13.6,4.28,20.34l-2.94,3.21c-2.02-1.89-3.26-4.28-4.68-6.56-1.57-2.52-3.41,1.45-4.7,2.01-1.04.45-2.23.12-3.23.52-1.94.79-4.13,2.41-6.39,2.76-2.03.31-2.84-1.2-4.77-.81-.26.81-.64,1.77-.59,2.63-3.34-3.3-5.5-9.28-5.89-13.92,3.48-2.19,9.72-1.76,12.99-3.33,2.64-1.27,7.42-7.6,9.87-8.34,3.32-1,2.54,3.43,6.04,1.5h0Z"/>
      <path class="cls-9" d="M41.3,271.4c-.05-.86.32-1.82.59-2.63,1.93-.39,2.74,1.12,4.77.81,2.27-.35,4.45-1.97,6.39-2.76,1-.41,2.19-.07,3.23-.52,1.29-.56,3.14-4.53,4.7-2.01,1.42,2.28,2.66,4.67,4.68,6.56l2.94-3.21,10.7,26.76c-1.59.53-3.25,1.03-4.82,1.61-.25.09-.74-.06-1.07,0-.16-2.24-6.37-16.88-7.28-17.09-1.58,1.12-4.14,1.19-5.54,1.86-.99.47-2,1.84-3.78,2.64-1.98.89-4.32,1.32-6.41,1.88-.93-1.62-1.49-3.37-2.44-4.78-1.7-2.51-6.46-5.98-6.66-9.13h0Z"/>
      <path class="cls-4" d="M73.41,296.02l-13,5.82c-1.43-.36-5.26-7.82-6.27-9.56-1.32-2.27-2.46-4.7-3.75-6.96,2.1-.56,4.43-.99,6.41-1.88,1.78-.8,2.79-2.18,3.78-2.64,1.4-.67,3.96-.74,5.54-1.86.91.21,7.12,14.85,7.28,17.09h.01Z"/>
      <path class="cls-1" d="M32.2,300.31c1.27-.4,1.67,1.94,2.14,3.21,1.62,4.38,2.95,8.77,5.31,13.28.18.35-.09,1.13.12,1.6.48.78,5.19.58,6.33,1.45.85.64.63,1.49,3.05,3.11.39.26.5,1.25,1,1.41,2.09.66,3.71-5.3,5.6-6.13.96-.42,1.99-.11,2.82-.39.79-.26,1.19-1.25,1.83-1.41.81-.21,2,.55,3.08.48,3.85-.27,7.43-1.34,5.65-5.91,2.6.68,3.37-1.59,5.56-2.11,1.53,2.82,2.36,3.12,5.67,3.18,2.49,5.9,5.62,12.24,8.03,17.66.7,1.57,1.06,4.15,1.61,5.35-1.31,2.78-5.45-2.05-6.76-3.12-1.29-.41-7.07.03-8.22.73-1.33.81-1.27,3.97-2.39,5.11-1.12,1.14-2.72.85-4.02,1.33-.85.32-1.03,1.77-2.86,1.24-1.04-.3-.94-1.49-3.31-1.58-2.88-.11-2.8,1.4-4.32,1.67-2.23.39-5.49-2.28-7.61-3.09-.67-.26-2.03.03-2.23-.16-.1-.09-.06-1.75-.43-2.51-.34-.69-1.08-1.14-1.42-1.8-2.09-4.02-3.38-7.74-5.68-11.19-2.3-3.45-7.87-17.48-8.56-21.41h.01Z"/>
      <path class="cls-2" d="M30.06,293.88h1.07c.09.87-.11,1.81,0,2.68-.72-.66-.95-1.75-1.07-2.68Z"/>
      <path class="cls-2" d="M28.98,290.67h1.07c.09.87-.11,1.81,0,2.68-.7-.65-.97-1.76-1.07-2.68Z"/>
      <path class="cls-2" d="M31.13,297.09h1.07c.08.88-.1,1.8,0,2.68-.72-.66-.95-1.75-1.07-2.68Z"/>
      <path class="cls-24" d="M35.41,256.95c-.52-.14-.5-.62-.54-1.07.52.17.49.61.54,1.07Z"/>
      <path class="cls-1" d="M254.32,305.12c-.12,1.4.09,2.87,0,4.28l2.67-.31c1.37,2.71,3.74,4.39,5.6,6.76.44.56.73,1.92.9,2.03,1.48.9,5.66-1.15,3.67,4.36,1.68.83,3.73-1.06,4.55-1.06s5.52,1.54,7.52,1.62c3.52.14,3.36-2.02,5.95,2.6l3.58-.46c.66-.32.16-1.22.51-2.01,1.04-2.37,1.33-3.9,3.05-5.51-1.85,4.01-6.79,19.14-9.63,21.41-.11.08-.84-.19-1.01.04l-.06,2.1c-3-.95-2.69,3.92-5.87,2.41-1.67-.8-4.97-2.42-6.83-2.82-1.86-.4-3.54.45-5.34,0-3.04-.75-1.81-5.08-6.05-3.35.6-1.22.04-7.55-.61-7.96-2.57-1.6-3.34,2.85-5.53,2.1l-.79-1.94c-.95-.72-4.74.59-4.74-2,0-1.16,1.63-3.04.42-4.13,2.3-5.32,4.11-10.91,6.55-16.19.37-.8.49-1.66,1.47-2l.02.02Z"/>
      <path class="cls-26" d="M249.5,253.21c.18,5.01,1.31,7.87,1.56,12.1.06.94-1.34,4.18,1.33,3.37,1.45-.44.91-3.84,2.46-2.09.1,1.1,0,2.15-.24,3.23-.54,2.38-6.51,21.55-7.25,22.46-.05.06-.75-.16-.95.1-.27.35-1.88,6.37-2.45,7.76-.99,2.43-2.06,5.28-3.1,8.3-.34.98-1.4.59-1.01,3.65-1.35-.31-1.02.75-1.41,1.51-2.93,5.73-5.14,9.97-7.57,16.01-.37.91-1.63,3.75-2.8,3.89.02-2.41-1.33-1.71-2.03-3.06-.79-1.52-.46-4.54-1.72-6.04,7.46-16.04,20.82-46.27,23.94-63.04.5-2.7.42-5.6,1.22-8.15h.02Z"/>
      <path class="cls-26" d="M239.87,312.08c.29,2.23.77,2.84,3.21,2.68-3.52,8.12-6.75,17.36-10.7,25.16-3.75,7.39-11.34,19.1-19.28,22.2-2.1.82-5.35,1.68-7.48.81l4.15-.7c2.32-3.42,8.18-7.09,10.34-10.25,3.16-4.64,4.05-9.07,6.02-14.31.59-1.57,1.97-2.18,1.98-4.17,1.17-.14,2.44-2.98,2.8-3.89,2.42-6.04,4.64-10.28,7.57-16.01.39-.75.06-1.82,1.41-1.51h-.02Z"/>
      <path class="cls-26" d="M94.28,317.43c2.23,2.91,5.56,10.76,7.49,14.99.15.32-.09,1.39.25,2.13,2.96,6.41,10.96,21.12,16.37,24.87,1.64,1.13,4.38,1.89,5.86,3.51-15.07-1.13-23.2-18.19-28.9-30.51-1.44-3.12-2.39-7.08-3.75-10.17l1.66-.31,1.01-4.5h0Z"/>
      <path class="cls-26" d="M247.36,292.28l.03,1.03,4.25.58c-.11.26.11.81,0,1.07-2.71,6.65-5.71,13.22-8.56,19.8-2.44.17-2.92-.44-3.21-2.68-.4-3.07.67-2.67,1.01-3.65,1.04-3.02,2.11-5.86,3.1-8.3.56-1.39,2.18-7.41,2.45-7.76.2-.25.9-.04.95-.1h-.02Z"/>
      <path class="cls-1" d="M91.61,322.25c1.36,3.09,2.3,7.05,3.75,10.17-3.07.77-4.12-2.69-6.96-2.68-2.41-5.43-5.54-11.77-8.03-17.66-2.16-5.12-4.7-10.71-5.89-16.06,1.57-.58,3.23-1.08,4.82-1.61.16-.05.38.06.54,0,3.39,8.73,6.89,17.48,10.61,26.08.33.77.99,1.35,1.17,1.76h-.01Z"/>
      <path class="cls-20" d="M300.35,315.83c.65,2.62,2.58,1.38,4.82,1.61-.36,1.06-.68,2.16-1.07,3.21-1.58,4.31-3.67,8.31-5.35,12.31-.19-1.72-1.55-2.52-3.13-2.77l-.09-1.51c1.77-4.13,3.23-8.62,4.82-12.85Z"/>
      <path class="cls-14" d="M95.35,117.79c-.33.63-.2,2.28-1.23,3.05l-6.26,2.84c2.31-1.97,4.58-4,6.96-5.89h.54-.01Z"/>
      <path class="cls-8" d="M34.87,339.91c-.35-.74-.4-1.31-.54-1.61l.54,1.61Z"/>
      <path class="cls-8" d="M295.53,341.52c-.1.46.09,1.1,0,1.61h-1.07c.27-.51.04-1.42,1.07-1.61Z"/>
    </g>
  </g>
</svg>