<?xml version="1.0" encoding="UTF-8"?>
<svg id="_Слой_2" data-name="Слой 2" xmlns="http://www.w3.org/2000/svg" viewBox="0 0 685.79 673.79">
  <defs>
    <style>
      .cls-1 {
        fill: #db7a68;
      }

      .cls-2 {
        fill: #ef3037;
      }

      .cls-3 {
        fill: #ed3138;
      }

      .cls-4 {
        fill: #971921;
      }

      .cls-5 {
        fill: #5d0a0c;
      }

      .cls-6 {
        fill: #e6353b;
      }

      .cls-7 {
        fill: #981921;
      }

      .cls-8 {
        fill: #ee3036;
      }

      .cls-9 {
        fill: #430c12;
      }

      .cls-10 {
        fill: #951921;
      }

      .cls-11 {
        fill: #df4449;
      }

      .cls-12 {
        fill: #fcf5f6;
      }

      .cls-13 {
        fill: #440c12;
      }

      .cls-14 {
        fill: #e9846d;
      }

      .cls-15 {
        fill: #fde9da;
      }

      .cls-16 {
        fill: #fdf8f8;
      }

      .cls-17 {
        fill: #3e0f13;
      }

      .cls-18 {
        fill: #971a22;
      }

      .cls-19 {
        fill: #ec2e36;
      }

      .cls-20 {
        fill: #d77e6d;
      }

      .cls-21 {
        fill: #de7060;
      }

      .cls-22 {
        fill: #f4e5e6;
      }

      .cls-23 {
        fill: #eb3238;
      }

      .cls-24 {
        fill: #f9eaeb;
      }

      .cls-25 {
        fill: #dc7664;
      }

      .cls-26 {
        fill: #e47664;
      }

      .cls-27 {
        fill: #ed3037;
      }

      .cls-28 {
        fill: #fcf1f1;
      }
    </style>
  </defs>
  <g id="_Слой_1-2" data-name="Слой 1">
    <g>
      <path class="cls-9" d="M173.37,325.68l-.32,1.32c13.26,23.54,17.7,44.61,5.74,69.97-12.79,27.1-59.97,51.45-84.77,27.11-1.73-1.7-8.25-12.68-9.98-11.47-.7,3.96-4.71,6.03-6.85,8.65M287.67,241.59c-7.85-42.74-16.3-85.54-25.89-127.93-.18-.77-1.63-.59-2-2.21-4.87-21.4-12.96-49.25-15.64-70.24-1.61-12.62,2.51-27.94,14.73-33.71,26.85-12.66,42.64-9.92,61.32,13.11,8.09,9.97,13.16,22.28,20.18,33.25,23.84,37.23,72.1,76.69,114.79,90.01,13.16,4.11,26.79,4.91,40.48,5.98,3.56,3.34-16.86,25.34-20.48,27.96-4.08,2.95-9.94,4.24-14.2,6.78-.59.35-1.97,0-1.26,1.69.63,1.5,8.28,9.8,9.93,11.06,5.28,4,11.94,5.2,18.48,5.49,5.21.23,12.07-1.47,16.01-1.07,3.09.31.3,4.13-.83,5.7-22.45,31.14-67.42,28.99-100.33,18.58-14.53-4.6-28.5-10.87-41.77-18.24l-22.24,10.13,11.85,81.07c14.31,60.11,18.08,127.02,31.91,187.21.49,14.21,4.85,28.89,5.89,42.89,7.34,98.49-100.16,175.99-191.05,132.1-80.44-38.84-49.88-128.68,5.29-174.25,34.42-28.43,79.49-42.97,123.94-31.41l-37.97-209.79M58.24,440.26c7.41-12,15.15-23.87,24.58-34.4-11.49-39.78,20.66-80.7,61.15-82.19-1.27-1.88-1.8-4.39-2.98-6.24-21.15-33.24-39.79-73.03-58.81-108.3-7.03-13.03-17.05-26.38-22.63-40.3-3.48-8.68-.51-15.2,6.02-20.95,19.06-16.77,28.53,4.3,42.55,14.34,20.47,14.66,50.07,22.67,73.8,11.6,3.32,8.61-2.19,15.83-6.98,22.47,6.98,6.39,12.25-1.11,18.99-.97-8.46,29.14-50.43,33.03-74.94,24.47l50,100.85,2.27-.12M255.86,26.98c-1.05,2.3-2.54,6.37-2.78,8.78-.52,5.17,5.27,27.65,6.86,34.41,10.88,46.11,20.59,95.6,31.84,141.35,1.48,5.33,2.28,20.27,4.53,24.27,1.14,2.03,2.38-.8,3.51-1.02.31-.06.67.03,1,0,.99-.08,2.01.01,3,0v2c-.72.56-1.29,1.49-2,2-2.57,1.84-5.07,1.37-3.9,6.35,9.06,51.62,20.08,102.74,29.35,153.54.3,1.66,1.46,3.52,1.53,3.95,2.93,16.58,4.48,33.3,6.99,49.95,1,6.64,2.41,13.28,2.99,19.98-1.4,1.32-9.68-4.48-12.11-5.38-9.59-3.54-17.81-3.51-27.85-3.62-.33,0-.67,0-1,0-2.54-1.71-8.65-1.66-10.99,0-60.69,4.15-126.32,64.69-125.88,126.88.05,7.7,3.04,29.66,7.93,35.33.79.92,2.24.4,2.76.88.62.57,1.05,3.4,2.36,4.97,34.45,41.42,116.48,35.81,155.81,3.29,31.02-25.65,49.18-67.57,45.86-107.83-3.14-38.18-12.86-82.91-18.9-121.46-2.79-17.81-5.32-33.89-8.11-51.33-6.9-43.11-13.62-86.41-21.04-129.35-.55-.43-1.43,0-1.82-.14-.49-.18-2.84-.99-3-1,3.86-2.62,4.31-3.76,4-8.47-.54-8.23-3.49-22.11-5.07-30.74-.8-4.34-2.57-8.71-2.92-14.74l.99-10.4c-.08-.98,1.9-.76,2.49-.61.68.17,7.14,9.57,8.58,11.19,10.64,11.93,17.14,16.21,30.16,24.81.88.58,4.2,4.2,4.97,4.68.29.18,1.06-.59,1.55-.38.28.12.12,1.61.68,1.63.46.01,1.22-.98,1.53-.95.95.1,2.05-.37,2,1-2.36,2.75-.21,1.53,1.15,2.31,11.86,6.78,30.08,13.08,43.59,15.4,20.99,3.6,43.05,3.83,63.16-3.73.3-1.35-1.04-1.12-2-1.46-3.4-1.2-7.63-1.69-10.88-3.12-8.89-3.9-24.64-22.59-20.1-32.9,9.97-2.55,19.07-7.32,26.31-14.65.87-.88,2.19-.84,1.68-2.81-17.08-2.24-33.59-9.74-48.81-17.62-6.17-3.19-14.17-7.74-20.12-11.35-4.07-2.48-7.26-5.13-10.99-7.99-15.39-11.79-29.14-27.23-43.96-37.96-.66-.48-8.4-10.76-9.95-12.76-9.98-12.96-34.92-56.36-48.78-60.89-11.74-3.84-31.02,4.36-36.19,15.71ZM145.97,184.82c-9.99-1.11-31.48-11.57-40.3-17.15-6.75-4.27-21.74-21.55-28.75-20.28-2.42.44-9.52,6.06-10.88,8.18-.98,1.53-.57,3.1-.99,4.28-.07.19-2.3.96-1.96,2.42-.09,2.97,12.5,25.38,14.98,29.81,10.48,18.76,22.1,38.11,32.22,56.96,8.34,15.53,20.02,45.27,30.69,56.68,3.63,3.88,2.65,9.49,6.99,12.99-.17,2.02,3.18,10.82,2,11.99-4.89-.8-9.38,1.05-13.99,2-3.39.7-11.57.61-11.99,5-.44-.16-1.36.07-2,0-1.55-.18-4.29-1.7-4,2-1.35.62-2.66,1.34-4,2-8.1,4.02-12.46,8.28-16.98,15.98-1.6,2.73-3,3.12-4,6.99-2.18,1.15-2.99,4.74-3.54,6.95-1.66,6.58-3.55,16.45-2.01,23.09.5,2.14,1.29,5.05,3.56,2.93,2.08-1.95,3.93-5.73,5.99-7.99,13.5-14.8,30.97-31.04,45.96-44.96,4.04-3.75,9.73-7.57,14-11.48,2.38-2.18,4.76-4.61,6.78-7.14.58-2.92-9.09-18.71-10.79-22.35-13.8-29.46-29.8-58.61-42.67-88.75-.47-1.1-.13-2.89-.29-3.16.09-1.75-.94-3.96,2-2.5,2.46,1.22,5.5,3.81,8.1,4.89,19,7.87,44.96,2.68,61.82-8.39l-11.03-4.43c-11.42-7.17,3.19-9.94,3.04-17.53-8.34,1.03-19.6,1.92-27.97,1ZM357.76,203.82c-10.69-3.64-17.66-12.96-25.96-19.99l6,30.97c1.64-2.07,21.16-9.4,19.97-10.97ZM93.02,404.61c-.26.34-3.2-1.43-1.53,4.02,7.49,24.44,44.79,18.12,61.39,7.39,11.1-7.17,22.32-25.35,24.83-38.11s-.05-26.05-5.97-37.56c-.64-1.23-2.18-1.38-2.52-1.95-.73-1.23-.41-5.3-3.72-5.78-2.52.39-19.48,17.26-22.52,20.05-18.36,16.82-34.77,32.2-49.95,51.95Z"/>
      <path class="cls-13" d="M663.32,366.8c-27.2.9-51.32-14.73-70.44-32.47l-7.32-10.64c-2.12,12.63-.54,25.69-.97,38.5-1.25,37.23-3.12,74.69-5.08,111.81-.71,13.39.98,29.54-3.78,42.18-8.52,22.66-32.14,41.84-54.92,48.98-32.79,10.28-81.22,1.54-94.14-34.16-10.03-27.71,4.1-48.9,24.99-65.97,26.3-21.5,68.9-30.48,98.43-10.48,1,.05.28-1.45.49-1.99,1.43-3.62,1.35-2.67,5.03-3.56l-.04-20.41-3.99,1.99v-5.99s5.99,0,5.99,0c-.2,8.3.11,16.67,0,24.98-.09,6.32.71,12.87-1.01,18.98l-18.97-9.99c-.14-.19-3.52-2.34-3.92-2.54-2.98-1.46-8.8-3.24-12.06-3.46-.7-2.28-2.58-1.95-4.44-2.06-7.18-.41-17.03-.8-23.53,2.06-.66.03-1.34-.06-2,0-10.21.92-25.53,9.27-33.28,16.17-1.29,1.15-2.77,1.54-2.68,3.81-.41.33-.68.73-1,1-.36.3-.65.7-1,1s-.65.7-1,1-.65.69-1,1-.66.67-1,1c-6.8,6.5-10.03,10.45-13.99,18.98-.12.25-.81.55-1,1-.12.28.11.71,0,1-9.55,24.97.87,40.2,21.79,53.84,40.49,18.07,83.83,3.84,106.92-32.47,8.95-14.07,5.31-27.41,6.11-42.88.8-15.43,2.37-30.9,3.04-46.41.03-.66-.01-1.33,0-2,1.84-2.63.98-7.54,1-10.99.13-30.54,1.64-61.99,3.99-92.42.75-9.69.32-10.13,3.01-19.47,3.85,4.07,5.6,9.64,9.05,14.2,11.28,14.89,28.84,28.22,46.39,34.76,6.24,2.33,12.82,3.48,19.49,2.98-1-2.45-3.88-3.02-5.46-5.02-2.84-3.61-7.73-19.21-2.89-20.8,5.37-.54,11.69.96,16.32-2.64-.03-1.75-13.4-9.14-15.19-10.54-5.88-4.64-10.95-12.52-17.76-15.93-1.77-5.54-5.74-6.66-8.7-10.28-1.28-1.57-5.06-5.36-5.28-5.7-10.46-16.08-17.5-37.17-24.89-54.73-3.01-7.14-4.42-17.78-14.57-18.19-1.31-.05-2.7.83-4,.81-2.72-.05-4.06-1.35-7.6-.39-.45.12-5.33,3.96-5.89,4.57-.31.34-.82.7-1,1l.47-7.02,8.52-5.97c.66-.04,1.33.03,2,0v2c3.46-.45,8.28,1.16,10.99-1,18.86,4.32,22.1,34.42,29.11,50.31,7.48,16.95,26.32,42.73,41.35,53.56,8.5,6.12,19.29,11.42,29.44,14.04-3.36,10.61-16.44,12.66-25.97,14.46,3.5,11.08,10.45,16.19,21.97,17.5,1.05,3.89-11.29,7.84-10.98,8.48"/>
      <path class="cls-17" d="M568.57,206.8l-8.52,5.97-.47,7.02c-1.33,2.28-1.82,4.83-2.04,7.45-2.24,27.11.92,55.83,1.08,82.92.19,30.98-.44,61.99-.06,92.96.02,1.69-.64,4.44,1.02,5.48-.24,4.64-1.83,9.16-2,15.98h-6s.01,5.99.01,5.99l3.99-1.99.04,20.41c-3.68.89-3.6-.06-5.03,3.56l-1.01-226.29c2.24-11.02,6.96-18.75,18.99-19.47Z"/>
      <path class="cls-25" d="M163.95,76.93c-6.51,7.81-4.06,25.29-7.49,34.96l-5.76-29.21c-.48-12.43-30.39-9.85-32.7-14.26-.42-2.25.98-1.39,2.47-1.49,6.05-.39,24.2-1.98,28.18-6.3,4.5-4.88,4.71-28.32,6.31-35.66,2.38-.14,1.76-.31,1.99,1.5.87,6.8,2.89,29.7,6.32,34.16.77,1,3.01,1.78,4.28,2.21l27.35,5.6c-.07,2.08-25.4,4.09-29.95,7.49-.4.3-.69.62-1,1ZM159.95,64.94l-3.98-19.97c-.83,16.01-5.43,22.35-21.98,22.98.14,1.42,4.49,1.74,5.65,1.86,1.8.19,3.54.15,5.34.13,1.9,1.86,2.37,2.84,5,4l4.76,11.72.24,5.26c3.34.82,1.64-3.81,2.23-6.26.39-1.63,1.01-3.23,1.76-4.72.37-.75,2.62-4.17,3.07-4.48,2.1-1.42,4.4,1.01,1.93-4.51l6.99-1.01,8.99-1.99c-6.12-.38-12.91-3.92-18.98-3.01-.36.05-.86-.11-1,0Z"/>
      <path class="cls-21" d="M557.58,114.89l-31.96-6.49c2.37-2.58,6.2-1.17,9.36-1.63,6.74-.98,20.32-2.82,25.83-5.92,8.78-4.95,9.78-35.7,12.25-44.9,2.84,3.23,1.1,8.42,1.51,12.47.59,5.76,2.92,27.91,6.26,31.21,4.54,4.48,30.43,7.2,37.69,7.27.39,2.28-.2,1.95-1.96,2.48-10.05,2.99-22.93,1.85-33,6.51.03-.05-.96-.41-.78-.75.13-.24,3.07-1.83,2.77-4.25,2.46.11,4.97.07,7.44-.05l6.54-2.93c-6.07-.35-11.84-2.91-17.77-3.74-1.94-.27-3.7-1.33-3.21,1.73-.12-.32-.9-.66-1-1-1.83-5.95-2.93-12.32-4.03-18.47-.29-1.64.64-1.73-1.95-1.51-.55,7.49-4.54,13.05-7.18,19.8l-18.8,3.19c.8,1.69,5.21,1.71,6.99,1.99.24.04,1.09.87,2.41,1.04,2.97.39,6.51-.36,9.57-.03l-7.99,1c.66.84.71,2.53,1,2.99Z"/>
      <path class="cls-25" d="M431.7,330.68c-5.28,8.77-3.33,20.22-5.86,29.66-.46,1.72.71,2.78-2.13,2.31-.2-7.99-2.89-27.25-7.98-33.21-2.57-3.01-14.4-5.91-18.58-6.67-3.27-.6-9.33,1.68-9.41-3.07,7.33-1.27,25.49-1.32,29.9-7.79,5.73-8.38,5.75-23.29,6.06-33.17,2.78-.67,2.18,2.03,2.64,3.81,2.35,8.95,1.69,16.93,4.9,26.17.36,1.05-.54,2.48-.33,2.82.36.58,3.32.75,2.78,3.16-1.35-.31-2.18.5-2.01-1.98h-1.98c-.15.93.2,2.15,0,2.98l-4.99-16.98c.24,13.25-6.72,20.73-19.99,20.99-1.47,1.41.1,1.81,1.48,1.99,4.93.63,12.7.29,17.5-1-.09.05.31,1.4-.21,1.78-.83.6-2.71-.16-3.56.46-.54.4-.11,1.65-.22,1.76-.17.16-1.5-.28-1.85.13l-.1,1.24c2.91,5,5.38,10.77,5.95,16.61,3.51.8,1.55-4.07,2.04-6.45.6-2.9,3.38-4.84.95-7.54-1.2-1.34-1.58-1.25-3,0-1.45-.39-1.43-1.49-2-2,1.73.34,5.71-.6,6.86.13.91.58.16,4.88,3.13,3.86ZM411.71,323.7h-1.99v.98h1.99v-.98ZM415.71,323.7h-1.99v.98h1.99v-.98Z"/>
      <path class="cls-1" d="M20.08,286.72c-5.29-.48-12.22-2.6-17.55-3.98-1.65-.43-2.93,1.02-2.43-2.01l19.27-2.21c9.01-2.09,7.48-19.84,8.98-27.03.38-1.84.44-3.3,2.72-2.72,0,6.19.9,22.2,4.57,26.9,2.8,3.59,15.12,4.17,19.91,5.07,1.46.27,3.1,0,3.5,1.98-5.01.95-19.39,2.46-22.56,5.92-4.15,4.52-5.51,19.84-5.42,26.05-2.88.48-1.65-.63-2.13-2.31-2.4-8.39-1.63-19.67-8.86-25.66,4.17.37,9.59-1.11,12.99,1-2.46,1.56-4.38.13-6.99,0l3,12.98,2.99-10.98,5-4.5c.25-.61-1.64-.82-2-1.49l9.98-1.99-11.75-3.24-3.73-13.76c-1.08,10.61-3.61,17.1-15.48,17l8.99,1.99c-.89.36-1.68,1.32-2.99,1.01v1.98Z"/>
      <path class="cls-26" d="M578.56,105.9c.36.98-.62,3.49.93,4.56,1.95.85,4.05.35,6.06.44.29,2.41-2.65,4.01-2.77,4.25-.18.34.8.7.78.75-6.87,11.73-7.57,17.8-8.98,31.48-.33,3.23.39,6.87-.01,9.99-.18,1.37-.68,3.08-1.99,1.49-2.67-10.98-2.87-27.64-7.92-37.55-1.68-3.31-5.52-3.99-7.08-6.41-.29-.46-.34-2.15-1-2.99l7.99-1c-3.06-.33-6.61.43-9.57.03-1.33-.18-2.17-1-2.41-1.04,8.83.1,17.77,1,24.98-5,.1.33.88.68,1,1ZM576.55,115.89h-9.98s5,18.98,5,18.98c3.42.82,1.7-4.85,2.11-7.37.65-3.97,1.83-7.75,2.87-11.61Z"/>
      <path class="cls-1" d="M452.67,621.4c.54,2.6-.5,1.55-1.43,2.1-4.42,2.59-7.3,2.15-11.58,3.39-9.1,2.64-6.94,18.14-8.98,25.47-3.68-2.75-2.32-9.38-3.22-13.24-.44-1.89-2.98-9.5-4.01-10.47-3.19-3.01-15.69-3.4-19.72-5.76,4.54-.61,17.88-1.56,20.97-4.99,3.77-4.18,3.21-18.73,5.01-24.47,1.88.4,1.81,1.97,2.01,3.47.67,4.98,1.25,16.68,4.5,20.47,1.32,1.54,13.84,5.51,16.45,4.03ZM436.69,624.39c1.03.03,9.81.62,7-1.99-2.44-.42-7.86-1.35-9.48-3.02-2.73-2.79-1.2-8.98-4.49-10.98.78,7.55-3.82,14.12-11.49,14.98-1.64,1.43.86.84,1.49,1,1.18.3,3.54,2.55,5,0,1.66,0,3.34.05,5,0l.87,2.88-1.87,1.11c-.59,0-3.42-2.7-2.98.48l4.47,7.52,1.51-8c1.41-.26,5.94-2.17,5-4Z"/>
      <path class="cls-20" d="M229.17,207.55c.12.28,4.05,4,4.31,4.15,2.94,1.68,6.21.62,9.16,1.84,6.51,2.68-7.8,3.38-8.86,3.67-.49.14-4.51,3.54-4.63,3.81-1.05,2.22-.65,10.69-2.75,13.75-2.1-3.57-1.71-7.57-3.22-11.76-3.03-8.38-5.4-4.77-11.88-7.1-1.42-.51-1.68.28-1.38-2.1,8.71-1.2,12.52-.19,14.53-9.95.72-3.51-.53-7.33,1.96-10.03,1.55,3.36,1.57,10.86,2.77,13.73ZM231.88,214.78c-3.04-2.77-5.09-4.38-5.01-8.98-1.74.67-1.86,3.64-2.98,5.5-.65,1.08-2.19,1.93-3,2.99l10.98.48Z"/>
      <path class="cls-20" d="M655.48,434.57c-11.55-.6-12.27,4.25-14.48,13.99-3.3-9.42-2.65-13.61-14.5-14.48l11.09-3.9c2.02-2.71.09-9.61,3.89-11.58.87,3.6,1.55,12.6,5.69,13.8,2.67.77,6.95-1.16,8.31,2.17Z"/>
      <path class="cls-25" d="M156.68,454.75c13.08-2.9,16.71,18.38,2.68,19.78-11.07,1.1-14.6-17.13-2.68-19.78ZM153.19,468.33c3.49,6.15,17.22-.96,9.81-8.34-5.96-5.93-12.91,2.88-9.81,8.34Z"/>
      <path class="cls-25" d="M409.47,23.15c11.25-1.84,16.55,17.4,3.69,19.77-15.09,2.78-16.56-17.66-3.69-19.77ZM405.04,29.28c-4.96,6.78,5.61,14.65,11.16,7.68,6.13-7.7-6.53-14.02-11.16-7.68Z"/>
      <path class="cls-21" d="M514.3,135.19c7.31,6.68-.79,21.66-12.59,15.08-11.93-6.65,2.27-24.49,12.59-15.08ZM512.36,146.6c6.55-6.88-6.32-14.47-10.78-7.02-4.14,6.92,6.4,11.62,10.78,7.02Z"/>
      <path class="cls-20" d="M279.08,376.39c1.65.95,6.92-.2,7.75,2.23-7.52.84-10.48,3.65-12,11-3.15.73-1.63-3.16-2.74-5.73-1.78-4.12-6.18-4.84-10.23-5.26,1.29-2.35,5.77-1.37,7.96-2.52,3.62-1.9,3.31-9.73,4.04-13.45l5.22,13.74Z"/>
      <path class="cls-25" d="M684.16,233.06c7.4,9.19-12.4,21.44-17.78,7.24-2.71-7.17,4.99-13.6,12.39-11.31.32.1,5.18,3.82,5.39,4.08ZM679.17,233.08c-5.63-4.63-13.86,3.64-7.66,9.14,5.21,4.62,13.96-3.95,7.66-9.14Z"/>
      <path class="cls-20" d="M486.63,249.76c.76,2.78.89,11.5,3.21,12.77,1.94,1.06,6.66-1.26,7.79,2.2-3.44-.03-8.31.14-9.55,3.94-.87,2.64.67,7.23-3.43,7.05-.08-7.15-3.87-11.26-10.99-11.48,1.68-2.75,6.18-.7,7.83-1.67,1.5-.89,2.7-9.25,3.17-11.33.35-1.55-.67-1.74,1.97-1.5Z"/>
      <path class="cls-20" d="M558.28,602.62c16.54-4.88,16.54,20.44,0,15.56-6.42-1.89-6.44-13.67,0-15.56ZM557.82,614.16c3.44,3.42,12.56-.14,10.04-5.47-3.75-7.93-16.09-.55-10.04,5.47Z"/>
      <path class="cls-20" d="M435.69,314.69c9.3,2.92,17.14,4.53,26.98,5,3.55,3.08-9.6,2.96-10.39,3.09-2.81.47-5.81,1.25-8.59,1.9-.77-.43-2.38-1.91-3-2l1.45-2.99c-2.13-.1-14.35-5.44-10.44.99-.89-.48-2.4-.09-3-2,.22-.21.89-1.6,1-2,2.16.08,5.16.59,5.99-2Z"/>
      <path class="cls-25" d="M229.18,341.37c-8-6.46,4.21-16.87,11.28-11.76,8.75,6.32-2.87,18.56-11.28,11.76ZM239.65,332.89c-1.92-3.34-7.82-2.47-8.48,2.41-1.21,8.98,12.9,5.27,8.48-2.41Z"/>
      <path class="cls-26" d="M428.7,318.69c.6,1.91,2.11,1.52,3,2,5.05,2.72,4.04,1.29,8.99,2,.62.09,2.23,1.57,3,2-4.91,1.14-8.93.92-11.99,5.99-2.97,1.01-2.22-3.29-3.13-3.86-1.16-.74-5.13.2-6.86-.13-.68-.6-1.68-.89-2-2,.11-.11-.31-1.36.22-1.76.85-.63,2.73.14,3.56-.46.52-.37.12-1.73.21-1.78,1.08-.63,3.71-.77,5-2Z"/>
      <path class="cls-17" d="M581.55,207.8c-2.71,2.16-7.53.54-11,1v-2c3.17-.15,8.07.33,11,1Z"/>
      <path class="cls-26" d="M429.7,315.69c.2-.83-.14-2.05,0-2.99h1.98c-.17,2.49.66,1.69,2.01,1.99.6.14,1.47-.16,2,0-.83,2.59-3.84,2.08-5.99,2,.08-.31-.08-.68,0-1Z"/>
      <path class="cls-14" d="M163.95,76.93c.31-.38.6-.7,1-1l-1,1Z"/>
      <path class="cls-4" d="M356.77,405.61c6.04,38.55,15.76,83.29,18.9,121.46,3.31,40.26-14.85,82.18-45.86,107.83-39.33,32.52-121.36,38.13-155.81-3.29-1.3-1.57-1.73-4.4-2.36-4.97-.52-.48-1.97.04-2.76-.88-4.88-5.67-7.87-27.63-7.93-35.33l11.99-3c.13.96-.09,2.02,0,3v1.49c.2.44.75.34,1,.51,1.55,18.12,18.47,28.22,35.47,28.96,53.23,2.29,89.42-52.77,99.91-98.88,4.4-19.33,7.9-46.08-10.5-58.95,10.04.11,18.26.08,27.85,3.62,2.43.9,10.71,6.69,12.11,5.38-.58-6.7-1.99-13.34-2.99-19.98,3.01.41,4.23-1.71,5.96-3.53,3.85-4.04,9.47-13.04,11.34-17.66,2.55-6.3,2.41-18.7,3.68-25.77ZM312.52,529.66c-1.18.35-2.1,1.4-2.6,2.5-1.06,4.11,6.39,5.61,8.44,2.35s-2.51-5.83-5.83-4.85ZM291.77,624.44c-14.71-4.12-33.32.3-46.2,8.14-6.53,3.97-15.47,9.54-7.03,16.63,9.98,8.39,26.3,5.42,37.57.92,13.43-5.36,7.64-8.61,12.94-19.07.98-1.93,4.39-1.78,2.73-6.61Z"/>
      <path class="cls-2" d="M255.86,26.98c5.16-11.35,24.45-19.54,36.19-15.71,13.86,4.53,38.79,47.92,48.78,60.89,1.54,2,9.29,12.28,9.95,12.76-.39,5.34-2.45.01-2.64-.01-2.17-.29-4.55.19-6.76-.04-1.21.15-.38,1.6-.59,2.05-3.39,7.11-1.61,8.46,1.48,15.01,6.15,13.04,20.89,25.72,33.63,32.31,3.78,1.96,18.64,9.13,21.35,4.64,3.37-5.59-3.43-9.93-6.5-13,.3-1.95.28-3.27-1.98-3.01v-1.98s5.98,1.99,5.98,1.99c3.73,2.86,6.92,5.52,10.99,7.99l5.1,14.16c7.32,9.58,9.25,22.83,6.89,34.79-.82.15-1.71-.01-2,1-4.59-1.54-7.05-1.39-8.56-6.92-.67-2.46.77-6.87-2.42-6.07-.24,4.67-1.84,10.96-6.08,13.42-2.28,1.32-5.63.86-6.92,3.57-37.53-4.95-44.49-13.81-68.9-39.28-1.01-1.06-3.77-.74-4.53-3.68-1.18,6.45.31,12.94.54,19.52.11,2.99-.24,5.04-.04,8.45.35,6.03,2.13,10.39,2.92,14.74,1.59,8.63,4.53,22.51,5.07,30.74.31,4.71-.14,5.85-4,8.47-5.05-.22-17.35,7.77-21.98,10.99-.33.03-.68-.06-1,0l-8.05-47.22c-11.67-46.01-19.2-95.47-31.82-141.39-1.74-6.35-2.66-12.79-4.09-19.19Z"/>
      <path class="cls-8" d="M286.83,463.55c3.55-.24,7.39,0,10.99,0,.33,0,.67,0,1,0,18.4,12.88,14.9,39.62,10.5,58.95-10.49,46.11-46.68,101.17-99.91,98.88-17.01-.73-33.92-10.83-35.47-28.96,3.07,2,1.7,2.49,2.58,3.1,1.1.76,3.37.43,4.64.99.86.37.79,1.71,1.44,1.89,3.63,1.02,3.23-1.76,4-1.95,3.56-.86,7.69,1.14,11.3-.04.44-2.63-1.11-4.7-1.99-6.98-.1-.27.09-.67,0-1-.86-3.33-1.08-1.17-2-2-.11-.1.32-1.36-.23-1.75-.78-.56-2.34.01-2.95-.32-1.72-.94-.59-2.68-5.34-1.99-.29.04-4.72,2.87-4.92,3.08-.61.63-.37,1.8-.54,1.99-1.27,1.37-2.06,3.42-3.99,2.99.29-3.86-.42-8.21,0-11.98.84-7.59,9.85-20.4,14.15-27.31,1.33-2.13,7.05-7.28,2.9-10.22-4.83-3.43-12.32,7.09-14.48,10.64-7.49,12.33-7.48,21.96-5.57,35.89l-11.99,3c-.44-62.18,65.19-122.72,125.88-126.88ZM280.43,488.16c15.85-22.24-18.02-22.18-31.06-12.62-10.88,7.98-11.4,19.5,4,20.96,7.7.73,22.31-1.68,27.06-8.34ZM230.52,518.15c10.05-16.8-5.89-29.01-21.55-18.07-8.91,6.22-24.93,24.87-10.96,33.81,5.89,3.77,9.76,2.81,15.57-.22,5.23-2.73,13.97-10.54,16.94-15.51Z"/>
      <path class="cls-27" d="M325.8,224.78c.39.14,1.28-.29,1.82.14,7.42,42.95,14.14,86.24,21.04,129.35,2.79,17.44,5.32,33.52,8.11,51.33-1.27,7.07-1.13,19.47-3.68,25.77-1.87,4.62-7.49,13.62-11.34,17.66-1.73,1.82-2.96,3.94-5.96,3.53-2.51-16.65-4.07-33.37-6.99-49.95l-26.97-163.84c.71-.5,1.29-1.43,2-2l21.98-11.99Z"/>
      <path class="cls-23" d="M65.04,159.85c.42-1.18.01-2.75.99-4.28,1.36-2.12,8.46-7.74,10.88-8.18,7.01-1.27,22,16.01,28.75,20.28,8.82,5.58,30.31,16.04,40.3,17.15,3.82,7.17,10.4,14.7,1.92,21.4-6.96,5.49-20.18,4.22-28.17,1.35-4.24-1.52-7.45-4.69-11.71-5.76.44,2.72-.66,6.92-.02,9.32.29,1.06,1.95.57,2.01.66.16.27-.18,2.05.29,3.16,12.87,30.15,28.87,59.29,42.67,88.75-1.35,3.01-1.65,6.64-2.52,9.96-.42,1.61-2.37,3.86-2.47,5.02-4.34-3.49-3.37-9.11-6.99-12.99,1.46-4.82-1.66-4.64-2.76-6.69-20.22-37.48-36.3-77.77-60.2-112.94l-12.97-26.23ZM109.62,179.19c6.01,7.66,19.43,12.09,29,12.57,3.98.2,4.69-3.65,1.74-5.83-4.87-.97-31.2-15.27-33.36-13.09-1.14,4.6,1.13,4.45,2.62,6.36Z"/>
      <path class="cls-10" d="M405.72,130.87c5.94,3.62,13.95,8.16,20.12,11.35,15.22,7.88,31.74,15.38,48.81,17.62.51,1.96-.81,1.93-1.68,2.81-7.24,7.33-16.34,12.09-26.31,14.65-4.54,10.31,11.21,29,20.1,32.9,3.25,1.42,7.48,1.92,10.88,3.12.96.34,2.29.12,2,1.46-20.1,7.57-42.17,7.34-63.16,3.73-13.51-2.32-31.73-8.62-43.59-15.4-1.36-.78-3.5.45-1.15-2.31l29.97-11.99c1.63,3.07,1.71,8.3,2.89,11.6.51,1.42-.3,1.69,2.1,1.39.13-12.14,2.72-13.63,11.99-18.98,15.06-8.7,33.48-12.99,49.95-19.49,1.2-.48,2.74-1.03,3-2.48-1.72-.15-3.35-.03-5.03.46-14.52,4.22-35.01,16.03-48.92,18.51,2.36-11.96.43-25.21-6.89-34.79l-5.1-14.16Z"/>
      <path class="cls-18" d="M142.97,352.66c3.04-2.79,20-19.66,22.52-20.05,3.31.47,2.98,4.55,3.72,5.78.34.57,1.88.72,2.52,1.95,5.93,11.51,8.49,24.75,5.97,37.56s-13.73,30.94-24.83,38.11c-16.59,10.73-53.9,17.06-61.39-7.39-1.67-5.45,1.26-3.68,1.53-4.02,13.51,13.41,30.11,5.96,40.99-6.47,10.49-11.99,13.6-26.3,10.98-42.05-.31-1.87,1.13-4-2.02-3.43ZM150.69,397.74c-3.17.5-16.9,12.62-18.19,15.89-2.1,5.31,6.3,4.44,9.74,3.73,6.16-1.28,16.55-14.55,11.29-18.85-.85-.83-1.7-.95-2.84-.77Z"/>
      <path class="cls-19" d="M142.97,352.66c3.15-.57,1.71,1.56,2.02,3.43,2.62,15.75-.49,30.06-10.98,42.05-10.87,12.43-27.48,19.88-40.99,6.47,15.19-19.75,31.6-35.13,49.95-51.95Z"/>
      <path class="cls-4" d="M318.8,169.84c-.2-3.4.15-5.46.04-8.45-.24-6.58-1.72-13.07-.54-19.52.76,2.94,3.52,2.62,4.53,3.68,24.41,25.46,31.37,34.32,68.9,39.28,2.65.35,3.06-.09,5.99,1-7.46,7.43-19.59,8.05-27.97,13.99-.31-.03-1.07.96-1.53.95-.56-.02-.4-1.51-.68-1.63-.49-.21-1.26.56-1.55.38-.77-.47-4.08-4.09-4.97-4.68-13.02-8.6-19.52-12.88-30.16-24.81-1.45-1.62-7.9-11.02-8.58-11.19-.6-.15-2.57-.38-2.49.61l-.99,10.4Z"/>
      <path class="cls-12" d="M255.86,26.98c1.44,6.4,2.35,12.84,4.09,19.19,12.61,45.92,20.14,95.38,31.82,141.39l8.05,47.22c-1.14.22-2.37,3.04-3.51,1.02-2.26-4-3.05-18.94-4.53-24.27-11.25-45.75-20.96-95.24-31.84-141.35-1.59-6.76-7.38-29.25-6.86-34.41.24-2.41,1.74-6.48,2.78-8.78Z"/>
      <path class="cls-6" d="M135.98,332.68c2.2,4.47,6.62,6.14,6.99,11.99-14.98,13.91-32.46,30.16-45.96,44.96-3.75-12.5-9.57,1.6-5.99,7.99-2.27,2.12-3.06-.8-3.56-2.93-1.54-6.64.35-16.51,2.01-23.09.56-2.2,1.36-5.8,3.54-6.95-.94,3.65-1.99,9.3,2.28,11.28,10.02,4.64,21.03-26.86,1.71-18.27,4.52-7.7,8.88-11.97,16.98-15.98-2,2.77-4.79,5.04-3.9,8.9,8.13,5.87,26.33-8.4,13.89-12.89.42-4.39,8.59-4.29,11.99-5Z"/>
      <path class="cls-10" d="M145.97,184.82c8.37.93,19.62.04,27.97-1,.15,7.59-14.46,10.36-3.04,17.53l11.03,4.43c-16.86,11.08-42.82,16.26-61.82,8.39-2.61-1.08-5.64-3.66-8.1-4.89-2.93-1.46-1.91.75-2,2.5-.05-.09-1.72.4-2.01-.66-.65-2.4.46-6.6.02-9.32,4.26,1.08,7.47,4.24,11.71,5.76,7.98,2.87,21.21,4.14,28.17-1.35,8.49-6.7,1.9-14.22-1.92-21.4Z"/>
      <path class="cls-24" d="M301.82,238.77l26.97,163.84c-.08-.43-1.23-2.29-1.53-3.95-9.27-50.8-20.28-101.92-29.35-153.54-1.16-4.98,1.33-4.51,3.9-6.35Z"/>
      <path class="cls-22" d="M65.04,159.85l12.97,26.23c23.9,35.17,39.98,75.46,60.2,112.94,1.11,2.05,4.22,1.87,2.76,6.69-10.68-11.41-22.35-41.15-30.69-56.68-10.13-18.85-21.74-38.19-32.22-56.96-2.47-4.43-15.06-26.83-14.98-29.81-.33-1.45,1.89-2.23,1.96-2.42Z"/>
      <path class="cls-10" d="M152.96,303.71c1.7,3.63,11.37,19.43,10.79,22.35-2.02,2.52-4.4,4.96-6.78,7.14-4.27,3.91-9.96,7.73-14,11.48-.37-5.85-4.8-7.52-6.99-11.99,4.61-.95,9.1-2.8,13.99-2,1.17-1.17-2.17-9.97-2-11.99.1-1.16,2.05-3.42,2.47-5.02.87-3.33,1.17-6.96,2.52-9.96Z"/>
      <path class="cls-11" d="M340.78,86.92c.21-.45-.62-1.9.59-2.05,2.21.22,4.59-.25,6.76.04.19.03,2.26,5.36,2.64.01,14.82,10.74,28.57,26.18,43.96,37.96l-5.99-1.99v1.98c2.27-.25,2.29,1.06,1.99,3.01-7.35-7.32-14.7-12.3-22.17-19.05-5.51-4.98-16.4-18.52-23.02-20.27-1.81-.48-3.05-.32-4.76.36Z"/>
      <path class="cls-12" d="M93.02,364.65c1-3.88,2.4-4.26,4-6.99,19.32-8.58,8.31,22.91-1.71,18.27-4.27-1.98-3.22-7.64-2.28-11.28Z"/>
      <path class="cls-16" d="M123.99,337.67c12.44,4.49-5.76,18.76-13.89,12.89-.88-3.86,1.9-6.13,3.9-8.9,1.33-.66,2.65-1.37,4-2s2.95-.78,4-2c.64.07,1.55-.16,2,0Z"/>
      <path class="cls-5" d="M322.8,223.78c.16,0,2.5.82,3,1l-21.98,11.99v-2c-.99.01-2.01-.08-3,0,4.63-3.22,16.93-11.21,21.98-10.99Z"/>
      <path class="cls-24" d="M97.01,389.62c-2.06,2.26-3.91,6.04-5.99,7.99-3.58-6.4,2.25-20.5,5.99-7.99Z"/>
      <path class="cls-4" d="M297.82,463.55c-3.6,0-7.44-.24-10.99,0,2.34-1.66,8.45-1.71,10.99,0Z"/>
      <path class="cls-6" d="M121.99,337.67c-1.05,1.22-2.64,1.37-4,2-.29-3.7,2.44-2.18,4-2Z"/>
      <path class="cls-3" d="M560.57,218.79c.55-.61,5.44-4.45,5.89-4.57,3.54-.96,4.88.33,7.6.39,1.3.02,2.69-.86,4-.81,10.15.42,11.56,11.05,14.57,18.19,7.39,17.57,14.43,38.65,24.89,54.73-.24-.37-1.71-.91-2.44-2.01-4.22-6.45-6.99-13.61-11.69-19.81l-2.92.29c-6.55,4.78,7.15,25.4,11.07,30,1.84,2.16,12.93,13.55,15.49,9.55s-3.95-8.67-5.77-11.25c-1.54-2.18-2.55-4.96-3.75-6.77.22.34,4,4.13,5.28,5.7,2.96,3.63,6.93,4.74,8.7,10.28,2.92,9.15,2.58,26.05-10.51,25.82-12.48-.22-29.46-17.74-34.5-28.27-.65-1.36-.88-3.04-.96-4.54-2.63-2.69-3.7,9.01-3.99,9.99-2.69,9.34-2.26,9.78-3.01,19.47-2.35,30.43-3.85,61.88-3.99,92.42-1.87,2.66-.93,7.51-1,10.99-.01.66.03,1.33,0,2-4.99,6.87-7.2,15.83-15.98,18.98.11-8.3-.2-16.67,0-24.98.16-6.83,1.76-11.34,2-15.98,1.24-23.95-.88-56.35,1.92-78.49.24-1.91,1.91-.95,2.16-2.86,1.91-15.12,1.91-66.94,0-82.05-.24-1.91-1.91-.95-2.16-2.86-.92-7.29,1.68-16.45-.92-23.54Z"/>
      <path class="cls-7" d="M573.56,430.58c-.67,15.51-2.24,30.99-3.04,46.41-.8,15.47,2.83,28.81-6.11,42.88-23.09,36.31-66.44,50.55-106.92,32.47-20.92-13.63-31.34-28.87-21.79-53.84,1.51.42,3.84-1.37,4.01,1.46.16,2.73-1.21,11.27,2.99,11.52,5.39,19.5,37.64,18.49,52.34,11.88,14.52-6.52,43.85-33.96,45.56-50.34.43-4.16-.57-11.08-3-14.49l18.97,9.99c1.72-6.11.93-12.66,1.01-18.98,8.78-3.15,11-12.11,15.98-18.98ZM503.62,543.49c-3.97-1.95-6.05-4.08-10.75-4.75s-25.8-1.26-26.26,5.28c-.49,6.93,16.23,10.85,21.57,10.5,6.73-.44,5.19-2.82,8.91-6.09,2.15-1.89,4.9-2.91,6.53-4.93Z"/>
      <path class="cls-8" d="M493.64,452.56c3.64-.18,7.35.12,11,0v2c-4.11.24-4.43,1.59-3.53,5.99,6.71,5.33,16.18,9.03,22.1,1.08,1.39-3.43-1.1-6.52-4.59-7.07l-1.99-1.99c1.65.06,3.34-.12,4.99-.01,3.26.22,9.08,2,12.06,3.46.4.19,3.79,2.35,3.92,2.54,2.42,3.41,3.43,10.33,3,14.49-1.71,16.37-31.04,43.81-45.56,50.34-14.7,6.61-46.96,7.62-52.34-11.88-.3-1.07.35-2.92-.02-4.29-.23-.86-1.88-.8-2-1.22-.67-2.56,1.13-2.17,1.58-2.92.79-1.3,1.68-3.31,2.43-4.55,5.39-8.95,9.35-13.53,18.98-18.49,1.09-4.59-9.65-1.29-11.99.51l-1-3c.34-.32.65-.69,1-1l1-1c.35-.3.64-.69,1-1l1-1c.32-.27.59-.67,1-1,.22-.18,1.79.41,2.7-.31,1.07-.84,3.88-4.16,4.32-5.67l1.98.49c.16.39-.14,1,0,1.49.22.84-.08,1.72.52,2.94,4.08,8.4,30.24-1.08,28.47-12.42-.31-1.97-1.96-2.35-2.02-2.5-.32-.85.22-2.87,0-4,.66-.06,1.34.03,2,0Z"/>
      <path class="cls-10" d="M581.55,305.7c.28-.98,1.35-12.68,3.99-9.99.08,1.5.31,3.18.96,4.54,5.03,10.53,22.02,28.06,34.5,28.27,13.09.23,13.43-16.67,10.51-25.82,6.81,3.41,11.88,11.29,17.76,15.93,1.78,1.41,15.15,8.79,15.19,10.54-4.64,3.6-10.96,2.09-16.32,2.64-4.83,1.59.06,17.19,2.89,20.8,1.57,2,4.46,2.58,5.46,5.02-6.67.5-13.25-.65-19.49-2.98-17.54-6.54-35.1-19.87-46.39-34.76-3.46-4.56-5.2-10.13-9.05-14.2Z"/>
      <path class="cls-24" d="M560.57,218.79c2.6,7.1,0,16.25.92,23.54.24,1.91,1.91.95,2.16,2.86,1.91,15.12,1.91,66.94,0,82.05-.24,1.91-1.91.95-2.16,2.86-2.8,22.14-.68,54.54-1.92,78.49-1.66-1.04-1-3.79-1.02-5.48-.38-30.98.24-61.98.06-92.96-.16-27.09-3.32-55.81-1.08-82.92.22-2.62.7-5.18,2.04-7.45.18-.3.69-.66,1-1Z"/>
      <path class="cls-11" d="M451.68,480.53c-1.76,1.35-8.12,10.64-8.74,12.73-.4,1.36-1.48,6.09,1.75,5.25-.75,1.24-1.64,3.25-2.43,4.55-.46.75-2.26.36-1.58,2.92.11.43,1.77.36,2,1.22.36,1.37-.28,3.22.02,4.29-4.19-.25-2.82-8.8-2.99-11.52-.17-2.83-2.5-1.04-4.01-1.46.11-.29-.12-.72,0-1l1-1c3.96-8.53,7.19-12.48,13.99-18.98l1,3Z"/>
      <path class="cls-6" d="M491.64,452.56c.22,1.12-.32,3.14,0,4-8.88-1.76-21.2,5.69-26.97,11.99-.13-.49.16-1.1,0-1.49l-1.98-.49c-.44,1.5-3.25,4.82-4.32,5.67-.91.71-2.48.13-2.7.31-.09-2.27,1.39-2.66,2.68-3.81,7.76-6.9,23.07-15.25,33.28-16.17Z"/>
      <path class="cls-11" d="M521.61,452.56c-1.65-.11-3.34.07-4.99.01l1.99,1.99c-3.37-.53-10.31-.22-13.99,0v-2c-3.64.12-7.35-.18-10.99,0,6.5-2.86,16.35-2.47,23.53-2.06,1.86.11,3.74-.22,4.44,2.06Z"/>
      <path class="cls-7" d="M573.56,428.58c.07-3.48-.88-8.33,1-10.99-.01,3.45.84,8.36-1,10.99Z"/>
      <path class="cls-6" d="M453.67,474.54c.35-.3.64-.7,1-1l-1,1Z"/>
      <path class="cls-6" d="M451.68,476.54c.35-.31.64-.69,1-1l-1,1Z"/>
      <path class="cls-7" d="M435.69,497.52c.19-.45.88-.74,1-1l-1,1Z"/>
      <path class="cls-15" d="M159.95,64.94c-.1.08.52,1.46-1.21,2.31-3.29,1.62-10.04,2.62-13.77,2.68-1.8.03-3.53.06-5.34-.13-1.16-.12-5.51-.44-5.65-1.86,16.56-.64,21.15-6.98,21.98-22.98l3.98,19.97Z"/>
      <path class="cls-14" d="M170.94,69.93l-6.99,1.01c2.47,5.52.17,3.08-1.93,4.51-.44.3-2.69,3.73-3.07,4.48v-2.99c-4.36,1.98-7.13-3.64-8.5-3.99-.58-.15-.44,1-.49.98-2.62-1.16-3.09-2.14-5-4,3.73-.06,10.48-1.07,13.77-2.68,1.73-.85,1.11-2.23,1.21-2.31.14-.11.64.05,1,0l.93,4.56,9.06.44Z"/>
      <path class="cls-24" d="M149.96,73.93c.05.02-.09-1.13.49-.98,1.36.34,4.14,5.97,8.5,3.99v2.99c-.75,1.49-1.37,3.09-1.76,4.72-.59,2.46,1.11,7.08-2.23,6.26l-.24-5.26-4.76-11.72Z"/>
      <path class="cls-15" d="M160.95,64.94c6.07-.91,12.86,2.63,18.98,3.01l-8.99,1.99-9.06-.44-.93-4.56Z"/>
      <path class="cls-15" d="M552.58,109.89c-1.77-.28-6.19-.3-6.99-1.99l18.8-3.19c2.65-6.75,6.63-12.31,7.18-19.8,2.6-.22,1.66-.14,1.95,1.51,1.1,6.15,2.2,12.52,4.03,18.47-7.21,5.99-16.14,5.1-24.98,5Z"/>
      <path class="cls-15" d="M578.56,105.9c-.49-3.06,1.27-2,3.21-1.73,5.92.82,11.7,3.39,17.77,3.74l-6.54,2.93c-2.47.13-4.98.16-7.44.05-2.01-.09-4.11.41-6.06-.44-1.55-1.07-.57-3.58-.93-4.56Z"/>
      <path class="cls-15" d="M429.7,315.69c-.08.31.08.69,0,1-.1.4-.78,1.79-1,2-1.28,1.22-3.92,1.37-5,2-4.8,1.3-12.57,1.63-17.5,1-1.38-.18-2.96-.58-1.48-1.99,13.27-.26,20.23-7.74,19.99-20.99l4.99,16.98Z"/>
      <path class="cls-28" d="M419.71,324.69c.32,1.11,1.32,1.4,2,2,.57.5.55,1.6,2,2,.79.22,2.08-.15,3,0,2.43,2.7-.34,4.64-.95,7.54-.5,2.38,1.46,7.25-2.04,6.45-.57-5.84-3.04-11.62-5.95-16.61l.1-1.24c.35-.41,1.68.03,1.85-.13Z"/>
      <path class="cls-26" d="M426.7,328.68c-.92-.15-2.2.22-3,0,1.42-1.25,1.79-1.34,3,0Z"/>
      <rect class="cls-26" x="413.72" y="323.7" width="1.99" height=".98"/>
      <rect class="cls-26" x="409.72" y="323.7" width="1.99" height=".98"/>
      <path class="cls-24" d="M23.08,283.73l-8.99-1.99c11.87.09,14.4-6.4,15.48-17l3.73,13.76,11.75,3.24-9.98,1.99c-.36-.68.66-2.89-.51-3.01-3.77,1.15-7.82,1.54-11.48,3.01Z"/>
      <path class="cls-14" d="M23.08,283.73c3.65-1.47,7.7-1.87,11.48-3.01,1.17.12.15,2.33.51,3.01s2.25.88,2,1.49l-5,4.5,1-2c-3.4-2.11-8.82-.62-12.99-1v-1.98c1.32.3,2.11-.65,3-1.01Z"/>
      <path class="cls-24" d="M33.07,287.72l-1,2-2.99,10.98-3-12.98c2.6.13,4.53,1.55,6.99,0Z"/>
      <path class="cls-24" d="M576.55,115.89c-1.04,3.85-2.21,7.64-2.87,11.61-.42,2.52,1.31,8.2-2.11,7.37l-5-18.98h9.98Z"/>
      <path class="cls-24" d="M419.71,624.39c-.64-.16-3.13.43-1.49-1,7.68-.86,12.27-7.44,11.49-14.98,3.29,2,1.77,8.19,4.49,10.98,1.62,1.66,7.04,2.6,9.48,3.02,2.81,2.61-5.97,2.02-7,1.99-2.92-.09-4.05-.1-6.99,0-1.66.05-3.33,0-5,0h-5Z"/>
      <path class="cls-15" d="M428.7,628.39c.95,0,2.16.15,3,0l-1.51,8-4.47-7.52c-.43-3.18,2.4-.48,2.98-.48Z"/>
      <path class="cls-14" d="M436.69,624.39c.95,1.83-3.59,3.74-5,4-.84.15-2.05,0-3,0l1.87-1.11-.87-2.88c2.94-.1,4.07-.09,6.99,0Z"/>
      <path class="cls-14" d="M424.7,624.39c-1.46,2.55-3.82.3-5,0h5Z"/>
      <path class="cls-15" d="M231.88,214.78l-10.98-.48c.81-1.06,2.35-1.91,3-2.99,1.12-1.86,1.24-4.83,2.98-5.5-.08,4.6,1.97,6.2,5.01,8.98Z"/>
      <path class="cls-28" d="M153.19,468.33c-3.1-5.46,3.86-14.27,9.81-8.34,7.41,7.38-6.32,14.49-9.81,8.34Z"/>
      <path class="cls-28" d="M405.04,29.28c4.63-6.34,17.29-.02,11.16,7.68-5.55,6.97-16.12-.9-11.16-7.68Z"/>
      <path class="cls-28" d="M512.36,146.6c-4.38,4.6-14.92-.1-10.78-7.02,4.46-7.45,17.33.14,10.78,7.02Z"/>
      <path class="cls-24" d="M679.17,233.08c6.3,5.18-2.45,13.76-7.66,9.14-6.19-5.5,2.03-13.77,7.66-9.14Z"/>
      <path class="cls-28" d="M557.82,614.16c-6.06-6.01,6.29-13.39,10.04-5.47,2.52,5.33-6.6,8.88-10.04,5.47Z"/>
      <path class="cls-24" d="M431.7,320.69c-3.91-6.43,8.32-1.09,10.44-.99l-1.45,2.99c-4.95-.71-3.94.72-8.99-2Z"/>
      <path class="cls-24" d="M239.65,332.89c4.42,7.69-9.69,11.4-8.48,2.41.66-4.88,6.56-5.76,8.48-2.41Z"/>
      <path class="cls-19" d="M291.77,624.44c1.67,4.83-1.75,4.68-2.73,6.61-5.3,10.46.48,13.71-12.94,19.07-11.27,4.5-27.59,7.47-37.57-.92-8.44-7.09.5-12.66,7.03-16.63,12.88-7.84,31.49-12.26,46.2-8.14Z"/>
      <path class="cls-16" d="M175.94,578.44c-3.89,2.94-.44,8.5-3,11.99-.09-.98.13-2.04,0-3-1.91-13.93-1.92-23.55,5.57-35.89,2.15-3.54,9.64-14.06,14.48-10.64,4.15,2.94-1.57,8.1-2.9,10.22-4.3,6.91-13.31,19.72-14.15,27.31Z"/>
      <path class="cls-11" d="M175.94,578.44c-.42,3.77.3,8.12,0,11.98,1.93.43,2.72-1.62,3.99-2.99-1.17,3.95,2.89,3.59,5.33,2.98.79-.2.68-1.98,1.22-2.04,2.45-.29,5.84,4.21,9.44,1.05.88,2.28,2.42,4.35,1.99,6.98-3.61,1.18-7.73-.83-11.3.04-.77.19-.37,2.97-4,1.95-.65-.18-.58-1.52-1.44-1.89-1.27-.55-3.55-.23-4.64-.99-.88-.61.49-1.1-2.58-3.1-.25-.17-.8-.07-.99-.51v-1.49c2.55-3.49-.9-9.05,2.99-11.99Z"/>
      <path class="cls-7" d="M312.52,529.66c3.32-.98,7.89,1.58,5.83,4.85s-9.49,1.76-8.44-2.35c.51-1.1,1.43-2.15,2.6-2.5Z"/>
      <path class="cls-12" d="M340.78,86.92c1.71-.68,2.95-.84,4.76-.36,6.62,1.75,17.51,15.28,23.02,20.27,7.48,6.75,14.82,11.73,22.17,19.05,3.08,3.06,9.87,7.41,6.5,13-2.71,4.49-17.57-2.69-21.35-4.64-12.73-6.59-27.48-19.26-33.63-32.31-3.08-6.55-4.86-7.9-1.48-15.01Z"/>
      <path class="cls-12" d="M391.73,184.82c1.29-2.71,4.63-2.25,6.92-3.57,4.24-2.46,5.83-8.75,6.08-13.42,3.2-.8,1.75,3.61,2.42,6.07,1.51,5.53,3.97,5.38,8.56,6.92,1.28.43,2.54.17,3,2-9.27,5.36-11.86,6.84-11.99,18.98-2.4.3-1.6.03-2.1-1.39-1.17-3.29-1.26-8.53-2.89-11.6-1.28-2.42-1.76-2.17-4-3-2.93-1.09-3.34-.65-5.99-1Z"/>
      <path class="cls-16" d="M230.52,518.15c-2.97,4.97-11.71,12.78-16.94,15.51-5.81,3.03-9.69,3.99-15.57.22-13.97-8.94,2.05-27.59,10.96-33.81,15.66-10.94,31.6,1.27,21.55,18.07Z"/>
      <path class="cls-16" d="M280.43,488.16c-4.75,6.66-19.35,9.08-27.06,8.34-15.4-1.46-14.89-12.98-4-20.96,13.04-9.56,46.91-9.62,31.06,12.62Z"/>
      <path class="cls-21" d="M179.93,587.43c.17-.19-.07-1.36.54-1.99.2-.21,4.63-3.04,4.92-3.08,4.75-.69,3.62,1.05,5.34,1.99.61.33,2.18-.24,2.95.32.55.4.12,1.66.23,1.75v2s2,0,2,0c.09.33-.1.73,0,1-3.6,3.16-6.99-1.34-9.44-1.05-.54.06-.43,1.84-1.22,2.04-2.44.6-6.5.96-5.33-2.98Z"/>
      <path class="cls-11" d="M193.92,586.43c.92.82,1.13-1.33,2,2h-2s0-2,0-2Z"/>
      <path class="cls-28" d="M109.62,179.19c-1.49-1.9-3.76-1.76-2.62-6.36,2.16-2.18,28.49,12.12,33.36,13.09,2.95,2.18,2.25,6.03-1.74,5.83-9.57-.48-22.99-4.91-29-12.57Z"/>
      <path class="cls-19" d="M150.69,397.74c1.14-.18,1.99-.06,2.84.77,5.26,4.3-5.13,17.57-11.29,18.85-3.44.71-11.84,1.58-9.74-3.73,1.29-3.27,15.02-15.39,18.19-15.89Z"/>
      <path class="cls-28" d="M617.52,286.72c1.2,1.81,2.21,4.59,3.75,6.77,1.82,2.58,8.44,7.09,5.77,11.25s-13.65-7.39-15.49-9.55c-3.92-4.6-17.63-25.22-11.07-30l2.92-.29c4.7,6.2,7.46,13.36,11.69,19.81.72,1.11,2.19,1.65,2.44,2.01Z"/>
      <path class="cls-19" d="M503.62,543.49c-1.63,2.02-4.39,3.05-6.53,4.93-3.72,3.27-2.18,5.65-8.91,6.09-5.34.35-22.06-3.57-21.57-10.5.46-6.54,21.56-5.96,26.26-5.28s6.77,2.8,10.75,4.75Z"/>
      <path class="cls-16" d="M491.64,456.56c.06.15,1.71.53,2.02,2.5,1.76,11.35-24.39,20.83-28.47,12.42-.59-1.22-.29-2.09-.52-2.94,5.77-6.3,18.1-13.75,26.97-11.99Z"/>
      <path class="cls-16" d="M504.63,454.56c3.68-.22,10.61-.53,13.99,0s5.97,3.63,4.59,7.07c-5.93,7.95-15.39,4.25-22.1-1.08-.9-4.4-.58-5.74,3.53-5.99Z"/>
      <path class="cls-28" d="M451.68,480.53c2.34-1.8,13.07-5.1,11.99-.51-9.63,4.96-13.59,9.54-18.98,18.49-3.23.84-2.16-3.88-1.75-5.25.62-2.09,6.99-11.38,8.74-12.73Z"/>
    </g>
  </g>
</svg>